/* XPM */
static char *result[] = {
/* columns rows colors chars-per-pixel */
"64 64 185 2 ",
"   c #435D1D",
".  c #46621F",
"X  c #4B651F",
"o  c #4F691F",
"O  c #53651E",
"+  c #53691F",
"@  c #4A6621",
"#  c #4D6A21",
"$  c #506720",
"%  c #526D22",
"&  c #596E21",
"*  c #567224",
"=  c #5A7524",
"-  c #5D7926",
";  c #557529",
":  c #597628",
">  c #5D7B29",
",  c #627323",
"<  c #627D26",
"1  c #6A7C26",
"2  c #617E28",
"3  c #AC5E22",
"4  c #AF6323",
"5  c #B46223",
"6  c #B36926",
"7  c #BA6C29",
"8  c #BC732A",
"9  c #BC792A",
"0  c #B56C32",
"q  c #B97332",
"w  c #BE7F37",
"e  c #C3742A",
"r  c #C47C2C",
"t  c #CB7C2C",
"y  c #C97D30",
"u  c #668127",
"i  c #6A8327",
"p  c #658229",
"a  c #6A8529",
"s  c #6D892A",
"d  c #73852A",
"f  c #7D842A",
"g  c #728C2A",
"h  c #7A8C2C",
"j  c #75912C",
"k  c #7A942D",
"l  c #7A982F",
"z  c #698B31",
"x  c #749430",
"c  c #8D8D2E",
"v  c #948D2E",
"b  c #83932E",
"n  c #8C932F",
"m  c #86992E",
"M  c #89982F",
"N  c #95932F",
"B  c #859431",
"V  c #879B32",
"C  c #999331",
"Z  c #919A31",
"A  c #9B9E33",
"S  c #BF8135",
"D  c #A59D34",
"F  c #AB9C33",
"G  c #8EA234",
"H  c #9CA334",
"J  c #9AAA37",
"K  c #A3A335",
"L  c #ADA436",
"P  c #AFAA37",
"I  c #A2AF3A",
"U  c #BBA537",
"Y  c #B4AB39",
"T  c #BBAC39",
"R  c #AAB63A",
"E  c #BDB13B",
"W  c #B2BC3D",
"Q  c #B8B93C",
"!  c #C8882F",
"~  c #D2842F",
"^  c #C68231",
"/  c #C88736",
"(  c #CD8D31",
")  c #D58730",
"_  c #D38C31",
"`  c #C79135",
"'  c #CA9834",
"]  c #D49333",
"[  c #DD9534",
"{  c #D39C36",
"}  c #DD9A36",
"|  c #E29736",
" . c #E19A36",
".. c #E39F38",
"X. c #C1A737",
"o. c #CDAB39",
"O. c #D4A137",
"+. c #DCA137",
"@. c #DCA438",
"#. c #D1AE3A",
"$. c #DAAC3B",
"%. c #CCB53C",
"&. c #D4B23B",
"*. c #DAB53D",
"=. c #D4BB3E",
"-. c #DEB93E",
";. c #E0A037",
":. c #E2A339",
">. c #EAA63A",
",. c #E3AB3B",
"<. c #EAAC3C",
"1. c #E4B33D",
"2. c #EBB43E",
"3. c #E2BB3F",
"4. c #EBB93F",
"5. c #B9C13F",
"6. c #C48B45",
"7. c #C69243",
"8. c #CB9543",
"9. c #D6AF4F",
"0. c #DCBE40",
"q. c #DAB94E",
"w. c #D3A655",
"e. c #E4BE40",
"r. c #ECBD40",
"t. c #F1BF41",
"y. c #DCBD60",
"u. c #BEC541",
"i. c #CCC340",
"p. c #CBCE44",
"a. c #DDC241",
"s. c #D9CB44",
"d. c #CBD445",
"f. c #D1D647",
"g. c #DAD747",
"h. c #D1D848",
"j. c #D9DE49",
"k. c #DFC25B",
"l. c #E6C141",
"z. c #EDC442",
"x. c #E6CA44",
"c. c #EDCA44",
"v. c #ECC44A",
"b. c #F2C543",
"n. c #F6CD46",
"m. c #F8CE46",
"M. c #E1D647",
"N. c #EDD347",
"B. c #EFD648",
"V. c #E4DC49",
"C. c #EDDB49",
"Z. c #F6D147",
"A. c #F5D648",
"S. c #F8D649",
"D. c #F5DB4A",
"F. c #F8DB4A",
"G. c #ECC553",
"H. c #E2C855",
"J. c #EBD95D",
"K. c #DDE34B",
"L. c #ECE34C",
"P. c #EBEC4E",
"I. c #F5E34C",
"U. c #F9E34C",
"Y. c #F5EA4E",
"T. c #FAEA4E",
"R. c #FBEF50",
"E. c #EFF150",
"W. c #F5F250",
"Q. c #FCF451",
"!. c #F7F852",
"~. c #FEFC54",
"^. c #FDFC5B",
"/. c #DFC160",
"(. c #E1C76F",
"). c #EBDB67",
"_. c #F3EA6B",
"`. c #FEFC64",
"'. c #F9F46A",
"]. c #FDFC6E",
"[. c #F2E77A",
"{. c #FAF776",
"}. c #FEFE70",
"|. c #FDFC79",
" X c #FBFA85",
/* pixels */
"> > p p u a j g s s u = % - + * * * p = o - % % * * = s j s < 1 u < i i s i 1 & * < u a = u a u ; % ; + X . o * i a s p p ; # p ",
"< p p p = i a i u - u u - u = = - * - = u u o % * = p p g g s u i < 1 i g s i & o = < g a a s - o # * % %   X o % = p z z ; ; p ",
"< - * - & < i i - u i g u - - u s u = = u u % % = ; % % < u u < < < < i u i i - # * - s s j a - u = = p = = = X o = u : p ; ; ; ",
"a = % % & < g g u - i g u u - i i i - - u i s = + * < s h b b d h b m h k j i & o * : p p a > - g k s j = u < & u u u - ; p % ; ",
"< < = + + - i s a i s s s u - u a i u a p u h Z L %.3.x.x.c.B.B.D.I.L.L.L.V.p.I h - = * = u s a s j s i u u < u u - u p p x p ; ",
"% - = & = = i g s s i u u - o = - a s a k P 0.b.m.Z.Z.S.F.F.F.U.U.U.U.T.I.T.Q.Q.Y.d.J u * * = i l a u u - u - = u u u : z z p * ",
"= < u < < u a a i i u % # * * - * = g K e.Z.m.m.n.Z.S.F.F.S.n.c.z.z.b.c.c.B.D.I.Q.Q.!.h.m : % = a a - - i i - & - u u u s z p * ",
"u < = - < u < i g s = = * p p a + , T n.m.m.n.m.m.Z.Z.b.4.4.2.2.2.2.4.4.4.4.z.c.N.I.Q.!.E.5.< % p s p u u i = + - u p u p p u * ",
"u u & < s - & 1 g s * = u = = u f %.m.m.n.m.m.n.m.b.4.2.<.<.<.2.2.2.2.2.4.4.4.t.t.z.N.Y.Q.~.f.g u u s i % = , + a i g s p = : = ",
"- < u u i i u u u u * o u u - m l.m.m.n.Z.S.S.n.t.<.>.>.<.<.<.<.<.2.2.2.4.4.4.4.t.4.r.c.L.!.~.K.j * u i i i s i g s i i u = - > ",
"< , 1 u u i g u % = = u g a m -.m.m.m.Z.F.F.n.4.<.>.>.<.>.<.>.2.<.2.2.2.2.4.4.4.r.r.r.r.z.N.R.~.K.j i s k g k g i i i < - = u p ",
"< < < < , < i < o o % u i i =.m.m.m.Z.F.F.Z.r.<.<.>.>.>.>.<.<.2.<.<.2.2.2.4.4.4.r.r.r.r.t.l.N.R.~.K.k j s i k j g a u - u u u u ",
"u u & u 1 i i 1 - + + = i T m.m.n.Z.F.U.F.r.2.<.<.>.>.>.>.<.<.<.<.2.2.2.2.2.4.4.4.r.r.r.l.t.l.N.W.~.d.k u - i j l g * = = u u * ",
"g i = i i u = = u = * * A n.n.m.m.F.T.F.b.<.2.<.<.<.<.>.>.<.>.<.<.>.e.Z.2.2.2.4.4.4.4.r.r.r.t.z.N.!.~.5.a u g g g i u u u i i i ",
"s - * u i < - - = o X , -.m.m.n.S.T.T.Z.2.2.2.<.<.<.<.>.>.>.>.>.<.@.Y.Q.t.2.2.2.4.4.4.r.r.r.l.l.z.C.~.P.G u i u u i g g u u u u ",
"u = % i j 1 < 1 < X X D m.n.m.n.U.R.D.r.4.2.2.2.<.<.<.<.>.>.>.>.;.x.~.~.I.2.2.2.4.4.4.4.r.r.r.l.r.c.Y.~.d.u = = u u i g i = = - ",
"u = + a s g j a p + d z.m.n.m.F.Q.T.c.4.4.4.2.2.2.<.<.<.<.<.<.:.$.Q.~.~.!.Z.<.2.1.r.4.4.4.r.r.r.l.z.N.!.!.J - a p p s s - u u u ",
"u = * * - a l a a u L m.m.n.m.T.Q.F.z.t.4.4.4.2.4.<.<.<.>.>.<.} I.~.~.~.~.Q.z.2.2.2.2.4.4.r.r.e.r.r.r.I.~.h.- + - l k u - a u < ",
"i i = + % > a z a b l.m.n.m.F.!.Q.c.t.4.b.4.4.2.2.<.2.<.2.<...-.~.~.~.~.~.~.T.2.2.2.2.4.4.4.r.r.e.r.r.N.Q.W.b o u s p = u s u < ",
"= = = = - > p u j L n.n.m.n.T.~.I.b.t.z.4.4.4.4.4.2.2.<.<.>.+.T.~.~.~.~.~.~.~.D.<.2.2.4.2.4.2.r.4.t.r.l.I.~.5.* * * - u p g a u ",
"< < = > z p > < k =.m.n.m.S.Q.!.Z.z.z.z.z.4.4.r.2.2.2.2.2.} N.~.~.~.~.~.~.~.~.Q.z.<.2.2.r.2.r.r.4.r.r.l.N.!.P.k : > = 2 a p j a ",
"= p - 2 p - * ; k c.m.m.m.F.Q.U.c.z.b.z.4.b.t.r.r.2.4.2.:.$.!.~.~.~.~.~.~.~.~.~.I.r.2.2.2.2.2.2.4.r.4.l.r.I.Q.J $ # % % - p u ; ",
"% = * = = = - * A n.n.m.m.F.R.A.z.z.b.z.z.r.r.r.r.2.2.r.e.I.Q.Q.!.!.!.!.Q.Q.Q.Q.Q.U.b.2.r.2.2.2.4.4.4.r.r.C.Q.p.> $ = > - - < ; ",
"= * $ % 2 p i < T m.m.m.m.U.U.c.t.z.z.z.b.z.t.r.r.z.b.F.R.Q.Q.T.R.R.R.R.R.Q.Q.Q.R.Q.Q.D.b.r.2.r.4.3.4.r.r.c.Q.P.g * = p p 2 - - ",
"= * % % u g i d 0.m.Z.n.Z.U.S.r.4.z.z.b.b.z.t.z.n.D.T.T.T.T.T.T.T.T.T.T.T.T.T.T.R.T.T.R.U.U.Z.z.r.2.4.4.4.x.I.W.V * : > s p p : ",
"p = = = a g g m z.n.n.n.m.U.Z.4.4.z.z.z.z.c.Z.D.I.U.T.U.U.T.T.U.U.U.U.U.U.U.U.U.U.U.U.U.I.U.U.U.A.c.r.4.2.1.Z.Q.I * = = > ; p p ",
"a < < - i g a Z b.n.m.n.S.S.n.4.4.4.4.4.Z.D.U.F.U.F.F.F.F.F.U.F.U.U.F.U.F.U.U.F.F.F.F.F.F.F.F.F.D.F.3.+.,.,.c.Q.u.: 2 2 - = p a ",
"g a = = = u a A n.n.n.n.m.S.4.2.4.4.{ 9 n.S.F.F.S.S.F.F.S.F.S.S.S.S.S.S.S.S.A.S.S.A.A.S.D.S.D.S.D.n.( +.,.@.3.T.p.a p < a a > p ",
"p p * * * < u K m.n.n.n.n.m.4.<.2.4.:.3 { S.Z.Z.Z.Z.Z.Z.Z.Z.Z.Z.Z.Z.Z.Z.m.Z.Z.m.Z.Z.Z.Z.Z.Z.Z.Z.Z.@.] :.@.,.1.T.V.g u > g g < < ",
"a s u # * p < P m.n.c.b.n.n.<.<.2.2.4.! 4 4.m.m.m.m.m.n.m.m.n.n.Z.n.m.n.m.n.n.n.n.m.n.Z.n.n.n.n.z._ +.:.:.,.1.I.V.j p s j g u - ",
"a = * * * * * E m.n.b.n.n.b.<.<.<.2.2.2.6 ! n.n.m.n.n.n.m.n.m.m.n.n.Z.n.n.n.n.n.Z.n.n.Z.n.n.n.n.+.] :.:.:.:.,.D.V.i - u = a a < ",
"< > u u > * * T n.b.b.c.n.n.>.>.<.<.2.2.} 4 $.m.m.m.m.n.n.m.n.n.n.n.n.n.m.n.n.n.n.n.n.n.n.n.n.r._ ..+.:.@.:.,.D.L.d # + = a a < ",
"- - u p u = = T n.b.n.b.m.b.>.>.<.<.<.2.2.r 8 b.m.n.n.n.n.n.n.m.m.n.n.n.n.n.m.n.n.n.n.n.n.n.n.{ [ :.} :.:.:.,.B.I.h # @ % * : > ",
"s u u s s p - T n.b.c.b.m.n.<.>.>.<.<.<.2.,.4 { m.m.n.m.n.m.n.n.n.m.n.n.n.n.Z.n.n.n.n.n.Z.m.r._ } ..@.:.@.:.:.A.V.< @ @ # * ; : ",
"p s s x j p - Y c.b.z.b.n.b.<.>.>.>.<.<.<.2.( 6 r.m.n.n.m.n.n.n.m.n.n.n.n.n.n.n.n.n.n.n.n.b.} [ ......} :.:.,.A.g.= $ % : ; % : ",
"p s l x p - u P n.c.z.z.m.b.>.>.>.>.<.<.<.2.1.6 ( Z.n.m.n.n.m.m.n.m.n.n.n.n.n.n.Z.n.n.n.n.r._ | }  ...:.} ..,.A.M.a : : : ; * # ",
"= p p p - * = K z.c.z.z.n.n.<.>.>.>.>.>.<.<.2._ 3 r.Z.Z.m.Z.m.m.n.n.Z.n.Z.n.Z.n.Z.Z.Z.Z.S.,.[  . .....} :.} ,.D.s.j p > 2 * * % ",
": - p p - % * M z.z.z.l.n.n.2.>.>.>.>.>.>.>.;.;.5 @.S.A.S.S.S.F.F.S.D.S.F.S.F.F.F.F.S.S.S.1.|  . .} } ....:.1.D.i.s p a p : # @ ",
"p ; > s i u < h l.z.z.r.b.Z.4.>.>.>... . . . .:.8 { U.F.F.U.U.U.F.U.U.U.U.U.F.U.F.F.U.F.U.r. . .| }  . .} :.r.D.W a a a a p 2 > ",
"p p p p g a - i =.z.l.l.b.m.4.>. . .|  ... . . .e { R.R.T.T.T.T.T.T.U.T.T.T.T.T.T.R.R.R.U.r. . . .| }  ...} r.D.H > p s s p s h ",
"p s a a p p % % U z.l.l.r.Z.t. .| |  .| |  . ...e O.Q.Q.Q.Q.Q.Q.Q.Q.Q.Q.Q.Q.Q.Q.Q.!.Q.Q.Q.r. .}  .[ | }  .:.c.N.k p a a p p a u ",
"- u u a p p p ; D z.l.l.l.c.n.>.| | | |  .| |  .t ' ~.~.~.~.~.~.~.~.~.~.~.~.~.~.~.~.~.~.~.z..... . .[ } } :.n.s.s a p p - a a p ",
"u - s a - - p u h 3.l.e.3.c.n.2. .|  . .|  . . .e ` ^.~.~.~.^.~.~.~.~.~.^.~.~.^.~.^.^.~.^.z.:.}  . .[ |  .1.Z.Y > a = % % = * - ",
"= u s u u u s p i %.l.3.3.r.m.4. . .| | | | |  .t ` ^.^.^.^.^.^.^.^.^.^.^.^.^.^.^.^.^.^.^.z.....;. . . . .r.Z.Z * % * = % % - s ",
"- p p * - s a u < F l.e.3.3.b.n.>.| | |  . .| | y / `.`.`.`.`.`.`.`.`.`.`.`.`.`.`.`.`.`.`.v...:.;. . .} :.b.a.g % & % = - < p u ",
"p ; % % = s a p = i *.3.-.-.z.n.4. . .| | | | | y S ].].].].].}.].'.J.q.H._.].].}.}.].}.{.v.:.:.;.;. .;.r.n.L * % = * = a u = < ",
": = X % p p p = o + U 3.-.-.3.n.n.:.| | | | | ..) w {.|.|.|.{.).9./ ^ ^ 8 8 7.k._.|.|.|.|.v.@.:.:.:.;.,.b.x.h * = > - u a a < s ",
"= * u ; % * * - = % n -.-.-.*.z.m.4...| | | | | ) q {. X[./.8.^ _ +.,.1.1.+.! 9 q 6.y.[. XG.:.:.;.+.:.r.A.E s < < , u a u , u s ",
"o o = : & - - i u s g U -.-.*.-.n.b.,.| |  .|  .) 0 (.w./ ~ [ ..:.:.,.,.<.1.3.1.@.( 9 8 6.@.,.:.:.@.1.Z.c.M < = < s g g u < a j ",
"% % * - = s i u u j i d &.-.*.&.e.Z.t...| | | } [ 7 y ) [  .} ..:.:.:.,.,.1.1.1.1.1.,.@._ { ,.:.:.,.n.D.P s u < 1 g a < = 1 > i ",
"p = - - = i i = * u i u F *.*.&.*.b.b.r. .| | | | [ | | |  .} ..:.:.:.,.,.1.1.1.3.1.1.,.1.,.,.@.,.x.D.s.1 < 2 & = 1 g u - - $ & ",
"- u g u = & = = = u g u i X.*.&.#.0.b.n.r.[ | |  .|  .| |  .|  ...:.;.:.,.,.,.1.1.1.1.1.1.,.,.,.z.D.C.M = = = = < u u < % $ & % ",
"s a g j s - g u u i u o i Z o.&.#.#.e.n.b.<.| | | | |  .|  .| |  ...:.:.,.,.,.<.1.1.1.1.1.,.1.z.U.I.K = = % < < - a = o % # X = ",
"g g u s - u s g i i g u i i Z #.#.#.#.e.Z.n.,.| |  .|  .} | | |  . ...:.:.:.,.,.1.1.3.1.1.1.x.Y.Y.Q < + = = < = = < = o o # * - ",
"g i i j u - u u u o u u = u < N o.#.o.#.e.m.b.r... . .| |  .| } | |  ...:.:.:.,.,.1.1.1.3.B.R.W.u.d < 1 = % % % + = * o X X = g ",
"u u g l j u & % o X o = = < , , c o.o.o.#.e.n.n.r.:. .| | | |  .| | | ..:.:.:.:.,.,.1.c.I.!.W.W u < i i O O = = % = - = # o + - ",
"u u g l u u u # o * # p u u * u = f U o.o.o.0.b.m.b.r.:. .| | | | | |  .;.:.:.:.,.3.N.R.~.E.R - u g g u & % u p u < = * % - - = ",
"u u s s u u ; ; o * * u * u u u > # 1 F o.o.o.0.b.m.b.b.r.<.:. . . .|  . .:.,.4.c.I.R.R.j.G - = u i g g u u u p u a p - * - - % ",
"u u u o . . # # % * # ; u u u u u - * * 4 H T o.#.e.c.n.Z.n.b.b.4.4.2.2.4.z.Z.D.I.U.f.5.k - % * u g x l a - u u u s a j p = = u ",
"u % u o . . .   . o # p u u u u < ; % * p p d F U o.#.3.c.b.m.m.Z.m.m.n.Z.Z.Z.x.i.H i u i = = - a l g a s a = p p s < p s * % - ",
"o * # o X = * = @ # # p a p u u = = = > 2 p ; 2 1 B A C v C F L U %.%.%.E L c d i u = u a * * # u g u - a a = u j a u p - @ @ % ",
"* u u * o * u = ; ; # * * * p u - % # $ 2 2 @ @ @ % 2 ; @ % : : * < = = < * + = u u i s g p p p a g u u a x u = g g p g p X ; ; ",
"= * % * * u # u p p # # @ # u # # .     % * @ @ . @ % ; : z p a p 2 - - u = - > u u p p p a j u = u u s g u o * u p z x p # ; p ",
"= * * * . ; p p x z p u ; # # .   . # # @ # @   @ % ; 2 z p 2 g a < i i g u - - * u p u u p a x p p p a u X X - p u p p p # # ; "
};
