/* XPM */
static char *result[] = {
/* columns rows colors chars-per-pixel */
"64 64 163 2 ",
"   c #445E1D",
".  c #46621F",
"X  c #4B651F",
"o  c #4F691F",
"O  c #53651E",
"+  c #516A1F",
"@  c #4A6620",
"#  c #4E6A22",
"$  c #506720",
"%  c #526D22",
"&  c #596E21",
"*  c #567224",
"=  c #5A7524",
"-  c #5E7926",
";  c #567529",
":  c #5A7628",
">  c #5D7C29",
",  c #617121",
"<  c #6B7726",
"1  c #627D26",
"2  c #6A7D26",
"3  c #627E28",
"4  c #737D28",
"5  c #BE792B",
"6  c #BD7B33",
"7  c #C97C2E",
"8  c #668127",
"9  c #698327",
"0  c #658229",
"q  c #6A8529",
"w  c #67882D",
"e  c #6D892A",
"r  c #738528",
"t  c #728C2A",
"y  c #7C8B2D",
"u  c #75912C",
"i  c #79952D",
"p  c #7A982F",
"a  c #668A31",
"s  c #6D8D31",
"d  c #739431",
"f  c #789431",
"g  c #769934",
"h  c #87842A",
"j  c #8D8B2C",
"k  c #928C2E",
"l  c #83922E",
"z  c #8C922E",
"x  c #8C992F",
"c  c #94932E",
"v  c #98952F",
"b  c #819430",
"n  c #849B31",
"m  c #8B9D32",
"M  c #969530",
"N  c #9B9331",
"B  c #939A30",
"V  c #9C9C33",
"C  c #A99731",
"Z  c #A49A32",
"A  c #AB9C33",
"S  c #94A233",
"D  c #9DA335",
"F  c #97AA36",
"G  c #9EA836",
"H  c #9FB037",
"J  c #A4A235",
"K  c #A2A936",
"L  c #A1AE39",
"P  c #B2A637",
"I  c #BBA235",
"U  c #B5AA37",
"Y  c #A5B33A",
"T  c #ADB83D",
"R  c #B0B33A",
"E  c #B0BD3E",
"W  c #BBBD3E",
"Q  c #CB872F",
"!  c #CB8C30",
"~  c #C48E3E",
"^  c #CC8D3B",
"/  c #D48B31",
"(  c #D49333",
")  c #DF9635",
"_  c #D49B35",
"`  c #DE9B36",
"'  c #E19735",
"]  c #E19C36",
"[  c #E39F38",
"{  c #C6A737",
"}  c #C3AD39",
"|  c #CCAA38",
" . c #DEA037",
".. c #DEA338",
"X. c #D2AE3A",
"o. c #DFAA3A",
"O. c #C3B43B",
"+. c #CCB43C",
"@. c #D4B23B",
"#. c #DAB53D",
"$. c #D2BB3E",
"%. c #DDBA3E",
"&. c #E1A037",
"*. c #E4A439",
"=. c #E8A63A",
"-. c #E3AC3B",
";. c #E9AB3B",
":. c #E4B33D",
">. c #EAB43E",
",. c #E4BA3F",
"<. c #EAB93F",
"1. c #CFA053",
"2. c #E5BE40",
"3. c #EABD40",
"4. c #C7C942",
"5. c #D3C641",
"6. c #CCD345",
"7. c #D4D546",
"8. c #DDDB48",
"9. c #DFC453",
"0. c #E6C141",
"q. c #EBC342",
"w. c #E6CB44",
"e. c #EDCB45",
"r. c #EBC74D",
"t. c #F0C643",
"y. c #F4CC45",
"u. c #F8CD46",
"i. c #E5D346",
"p. c #ECD246",
"a. c #E7D14C",
"s. c #ECD449",
"d. c #E5D948",
"f. c #EEDB49",
"g. c #F4D147",
"h. c #F6D648",
"j. c #F5DC4A",
"k. c #F8DE4B",
"l. c #EAC854",
"z. c #E9C758",
"x. c #E7D152",
"c. c #E8D25A",
"v. c #DCE14A",
"b. c #E4E44B",
"n. c #EDE14B",
"m. c #F6E34C",
"M. c #F8E34C",
"N. c #F4EB4E",
"B. c #F9EA4E",
"V. c #FAEF50",
"C. c #F7F050",
"Z. c #FBF451",
"A. c #FDFB54",
"S. c #FCFB5C",
"D. c #E3CB69",
"F. c #E8D66F",
"G. c #ECDC68",
"H. c #EEE26D",
"J. c #F2E865",
"K. c #FCFB64",
"L. c #F6F069",
"P. c #FCFC6F",
"I. c #FCFD7C",
/* pixels */
"> > 8 0 8 e u t e q 8 = % - + * * * 9 - o - * o * * * w p e 1 8 9 1 9 9 r 9 8 * * 8 8 9 - 8 w 8 * o * % X X X * q q w w 0 # ; 8 ",
"1 8 0 8 = 9 e 8 8 - 8 1 - 8 = = - * - * 8 8 + % * - 0 w e e e 9 q = 1 r r t 9 & o * - t e w t * o % % % +   X o % = 0 w a ; 0 ; ",
"1 - ; > & 1 9 8 - 1 q t 8 8 - 9 q 9 * = 8 - * % * * % o > 8 8 - 1 1 1 9 8 8 9 , # * = e e t 9 8 8 - - 0 = * - X o = 8 > 0 ; # ; ",
"q - % # & 8 t t 9 - q t 9 - - 9 9 q - - 8 9 t * % * = p D J V v c x l 9 8 9 8 = # % 8 8 8 w 8 * t u e u - 8 - + 8 8 8 - ; 0 ; ; ",
"1 1 - + + - 8 r q 9 q e q 9 - 8 9 q 8 9 9 9 9 = # t 4.m.m.k.h.y.y.e.q.#.x i , + % * = = = 8 q 8 e t w 9 8 8 8 8 1 - 8 9 w d w * ",
"* = , + = = 9 t e t q 8 8 - X = - 9 t e e e 8 * t 8.V.m.m.M.h.g.y.y.y.u.t.O.8 * o 8 w = * * ; w p w 8 8 8 8 , - 8 9 8 > w a - * ",
"= 1 8 1 1 8 e q 9 e 8 % o * * - * - q 8 - 1 1 e 7.Z.h.e.q.e.g.h.y.y.y.y.y.y.U 9 - - e 8 - * ; - q 8 8 - 8 9 - & - 8 0 > w t w * ",
"1 1 = 1 1 1 1 q t 9 = * * 8 w w # o * * * o o T Z.s.2.:.>.>.3.y.y.y.y.y.y.y.y.U t 8 8 w t - o * 8 t 8 8 8 9 - X 1 8 9 8 8 8 8 * ",
"8 8 & 2 t - & 8 t q = = 8 & = 9 ; X ; w % X 8 b.n.<.,.>.>.;.;.>.y.y.u.y.y.y.u.t.v 9 1 e p 8 - ; 8 8 9 9 % = & , q 9 t e 1 = * = ",
"- - 8 8 8 8 8 8 8 8 * % 8 8 8 9 0 0 0 0 8 * T C.q.<.>.>.>.;.;.;.t.g.y.y.u.y.t.u.$.t 9 i u 8 8 o * * 8 9 9 8 t 9 t e q q 8 = > > ",
"2 , 8 8 2 9 e 8 % = = - e q 9 8 8 8 8 = 8 e v.p.,.<.>.>.>.;.;.=.>.g.g.y.y.y.u.y.t.K u u 9 8 = = = * 8 t u t i r 2 8 9 1 = - 8 9 ",
"- 8 1 1 , 1 q 1 o o % 9 9 - 8 8 8 0 8 8 = H C.w.<.,.>.>.;.;.=.=.;.y.h.u.y.y.y.y.u.$.t 8 = 8 - 8 8 * 8 i t 8 i u e e 8 1 > > 9 9 ",
"8 9 * - 2 9 9 8 - % % * 8 8 9 8 * - w 8 e 6.n.3.<.>.>.>.>.;.=.=.;.3.M.y.y.y.y.y.y.t.x 9 8 9 t 8 8 8 8 e 9 1 9 t i t * * - 8 9 * ",
"t 9 = 9 9 8 = , 8 = * - 8 = - % % - - 9 n b.e.<.,.<.>.q.:.=.=.=.;.>.j.g.y.y.y.y.y.u.U 9 8 8 8 8 = = 8 t e 8 t t u 9 8 8 9 9 9 9 ",
"t - * 8 9 8 - , * o o . X o o o * * - t F N.q.,.,.>.>.h.<.=.=.;.;.>.g.M.y.y.y.y.y.u.%.r = 8 w 8 = * 8 9 9 8 9 8 8 9 t t 9 8 - 8 ",
"- = % e t 8 8 8 1 X . . . % * o % X % - E j.2.<.<.>.>.B.e.*.=.;.>.>.t.M.y.y.y.y.y.y.e.z + % * * 8 8 e 9 = - - - - 8 q t 9 = = 1 ",
"8 * % 9 e t u e 8 % % - - - 9 - + X o 0 6.p.<.<.>.>.3.A.n.*.;.;.;.>.0.B.y.y.y.y.y.y.y.Z X # X * 9 = - - * 8 8 w 0 0 e q - 8 8 8 ",
"8 - % = = e u q e 8 - 9 9 8 9 9 8 o o w v.e.<.<.>.>.g.A.C.-.;.;.>.3.3.m.h.y.y.y.y.y.u.} * * # % = = , - * 8 % o 8 u u 8 - t 9 - ",
"9 9 - + # 8 q q e t t q 9 - 8 u 8 # @ u n.3.<.,.>.>.m.A.A.,.=.;.>.3.3.j.k.y.y.y.y.y.y.2.1 # * * + 8 - = * * # o 8 q 9 - > e 9 - ",
"- = & = > > 8 0 u t t t u - - t 8 X @ n f.<.,.,.>.<.V.A.A.p.-.>.>.3.3.j.m.y.y.y.y.y.y.y.4 # = = % + = - - ; % o % * - 0 q t q 0 ",
"1 1 : - a 0 > 3 u t = 8 t 8 = 8 w * # Y f.<.,.>.;.e.A.A.A.m.-.>.>.3.3.g.m.y.y.y.y.u.y.y.M = > * * o + 8 = = 8 0 : : = 3 9 w u 0 ",
"= 9 = 1 0 > * : e t 8 8 9 = 8 8 e u 8 W y.<.<.:.>.j.A.A.A.C.:.>.3.3.0.y.m.y.y.y.y.y.y.u.P 3 8 > 8 - + 8 - 9 8 * % # % % - 8 8 = ",
"* = * : = : = : w p t e 8 * 8 9 e u t 6.q.<.:.>.q.B.Z.Z.Z.Z.e.>.3.3.q.q.m.e.y.y.y.y.y.u.+.t t - 8 8 * * 8 e = = = $ = > = > 1 * ",
"- % $ % 1 8 9 1 8 e p w * 8 9 e 0 w i 8.3.<.,.3.M.V.V.Z.B.Z.B.y.3.q.q.q.j.y.q.y.y.y.y.u.2.i e 1 8 = = = 8 8 8 9 3 : = w 0 8 = > ",
"* * % % 8 t 9 e r 8 - - * * 8 e q 0 i d.3.-.3.j.V.V.M.V.B.B.B.M.t.t.q.3.g.e.q.y.y.y.y.u.2.y 1 q 8 1 = * 8 u q 8 : * = > w 0 0 ; ",
"0 = = = 9 t e t t t - # * 8 8 - 3 e n i.2.q.j.M.j.M.M.j.M.M.M.M.j.y.q.3.y.e.q.t.y.y.y.y.0.y * 1 1 1 1 1 q 0 0 = = = * > 8 ; 3 w ",
"e 1 1 - 9 t e q t t - * * 9 9 - = 1 m i.o.0.j.j.k.j.j.j.k.k.k.k.j.j.3.3.q.y.q.q.t.y.y.y.q.b > 0 8 = * 9 q : 1 * : = 8 - - - 0 q ",
"t 0 = = - 8 q 0 8 - * - - 8 9 e 8 > S e. .o.h.h.h.h.h.h.h.h.h.h.h.g._ -.q.e.q.q.t.y.y.y.y.J w 3 1 & + = = + * * * 0 8 > 8 q 1 1 ",
"0 0 = % = 1 0 = % % % * - - 8 9 8 = B w... .y.g.g.g.g.g.g.g.u.g.g.3.! >.3.t.3.q.q.y.y.y.y.J w q % # # $ * * # * * 8 1 1 t u 1 - ",
"q e 8 # * 8 8 - * - - 8 q 9 - 8 q e H e..._ 3.y.y.y.y.y.y.y.y.y.y.o.( >.>.t.2.0.q.y.y.y.y.D e e $ # # * # * = # * q 9 t i e 9 - ",
"0 = * * * * * > 8 8 9 q e 9 & & 8 q L q.*._ 3.y.y.y.y.y.y.y.y.y.g._  .;.>.q.2.0.q.t.y.y.y.D w 1 % % # * * * * * * * - 1 - 8 e 1 ",
"1 1 8 8 > * % > 9 9 t t t e 1 = = = D 0...` -.y.y.y.y.y.y.y.y.u.t.! ;.;.>.0.2.3.0.q.t.y.y.D q q * # * = ; * # * $ # % % * 9 q 1 ",
"8 = w q 8 8 ; * 8 9 8 8 t e 9 8 1 1 D 0. .` ..y.y.y.y.y.y.y.y.u.3.! ;.;.>.q.2.2.0.q.t.e.y.V * = * * = * # # % # @ % # # # * ; - ",
"w 8 8 w w 8 = 8 8 8 1 9 8 e t q 2 q G 0. . .) q.y.y.y.y.y.y.y.y.-.( ;.=.>.3.%.,.2.q.t.t.y.c * + + - ; * % 8 0 # # @ @ @ # ; * ; ",
"8 9 e u t 0 8 8 e - - 8 9 e 8 - * - D 0. .[ ) 3.y.y.y.y.u.y.y.u._  .;.=.>.0.%.,.2.0.q.t.y.v = = = * % 0 9 q e 8 0 @ # ; ; ; ; ; ",
"8 e p a 0 8 8 = * - * - 9 9 8 - * 1 G 3. .` ) :.y.y.y.y.y.y.y.y.! -.;.*.>.0.#.%.2.2.0.t.t.V - - > > > > 8 9 q p s 0 ; ; ; ; * % ",
"- 0 0 0 - % 8 0 - * % - q 9 9 9 8 9 S <.` ` ) >.g.y.g.y.y.y.g.3.Q ;.=.[ >.3.#.,.,.2.2.q.t.V 9 8 * 1 e 9 9 > 0 q w w 0 > 0 * * % ",
"; 8 0 0 - o ; 0 * + * - - 8 - 8 9 e S 0.` ` ) <.j.h.h.j.h.h.j.q./ [ =.=.>.3.#.#.%.,.2.q.q.y = - * = = 1 t e u u e e 0 q 0 * % @ ",
"w ; ; w w 8 8 * . + - 8 8 8 8 - 8 9 x 2.` ` ` :.k.m.m.k.k.m.M.e.( ] ] =.<.,.@.#.%.,.2.0.2.2 % - - % X = 8 u u q q 0 w q q 0 - - ",
"8 8 0 w e 0 8 8 o o o * 9 9 e 8 9 e p %.[ ` ) <.B.B.B.B.B.B.V.e./ ] ' ] <.%.@.#.%.%.2.2.#.2 * - - o X * 8 w 0 8 0 8 0 e e 8 e u ",
"8 q e 9 8 0 ; o o * X - > 9 e 9 = 0 f %.] ) ` q.Z.Z.Z.Z.Z.Z.Z.e./ ' ' ' <.%.X.@.,.%.,.0.O.8 * w 0 ; # ; 0 0 * > 8 0 0 e 0 0 q 9 ",
"8 8 8 q 8 0 8 ; * * = 9 8 8 * - - > : +.&.) ` q.A.A.A.A.A.A.A.i./ ' ) ] <.@.X.@.@.:.%.<.1.0 * 0 > ; % % ; - * - 0 q 0 8 = q q 0 ",
"8 - e 8 * 8 w 8 - - 8 t 0 8 - 0 q 3 * } &.) ` q.S.A.A.S.A.A.A.a./ ' ' ] q.X.| @.#.#.%.,.P > > > a 0 > % > 0 8 > 8 0 = % % * * - ",
"* 8 e 8 8 0 q 8 1 - - - 8 0 s t q w > P =.` ] r.S.S.S.S.S.S.S.a./ ' ) [ <.| X.X.@.#.%.,.J 0 > 0 a g g 0 8 e 0 8 * * * = + * > e ",
"8 8 8 * = e w 8 8 - 8 8 1 - = 0 q 9 - J ;.` ` r.K.K.K.K.K.K.K.x./ ) ' *.<.| | @.@.@.#.%.z q 8 > a 0 a w 1 9 q 0 * % % = > > 9 8 ",
"; ; % % - e q 9 - + - q 9 0 0 > q 8 1 B :.`  .r.P.P.L.9.J.P.P.c./ ) ] ;.%.| | | X.@.#.@.t 8 > : w d q 1 - 8 8 * % = * = q 9 1 - ",
"8 ; % % 8 0 w * # # - = 8 = w 0 q - 1 l ,.[  .l.I.H.~ 5 ^ G.I.c./ ' ' >.%.| | | X.@.#.} q > : = w g i > = 3 8 * : = , 9 q 8 - q ",
"; * ; - % * * = * * - % = = 0 0 q 8 - r $.-. .z.D.6 ! :._ ^ F.D./ ' ' <.@.| | | | @.@.C 3 e 1 q e 8 q e 0 1 9 1 1 1 8 q 8 1 8 e ",
"o o = - + - 8 8 8 e e + * * 8 q e 9 8 8 W :..._ 5  .#.-.*.` ^ 1./ ) &.q.| | | | | X.@.h = 9 8 - q - 8 e t e 1 - 8 q e t 9 < 9 u ",
"* + * = - 9 9 8 8 t 8 o = 8 = 8 8 w e 8 V q..._ o.:.:.*.*.&.) 7 / ) ;.2.| | | | | X.{ r = 8 8 , 8 > - 1 1 r 9 , 9 t t - : 1 > 8 ",
"8 = = - - 9 8 = = 8 9 8 * 8 = = = 8 0 0 y w.o.o.o.:.#.*.&.` ) ) ' ' >.,.| | | | | X.A 9 9 8 = = = q 9 8 = 1 1 = = 1 t 8 = 1 % % ",
"- 8 t 9 , * = - - 8 t 8 = 8 8 8 8 w 0 8 8 5.>.-.#.:.o.*.&.) ' ) ' &.3.X.| | { | | { z 1 9 8 = & % q q 1 = & = = 1 2 9 1 & % + + ",
"w e t u 9 8 e 8 8 9 8 + w u t e 0 ; 8 ; = R e.#.:.:.o.*. .) ' ) ' ;.3.| | | | | | I 9 2 8 - = - % * , - * + - 1 1 9 = o $ # o = ",
"t t 9 t - 8 e t 9 e u 8 8 8 8 8 > % o # o l f.,.#.o.*.&.` ) ) ) ' q.%.| | { | | | c 8 r e - , * 1 9 1 + = = 1 = * 1 = o # % * = ",
"t 8 9 u 8 - 8 8 8 X 8 = = 8 8 * ; # X o * u 7.n.:.o...&.) ) ) ' -.t.X.| | | | | { r 9 t q q 8 - 9 2 1 2 = * % * + = * + X X = t ",
"8 8 t i u 8 * + o X * * = - 8 * % # % o - e Y N.<.o...` ' ) ) &.q.2.| | | | | { c t 2 9 9 8 8 - 1 1 q 2 O O = & + = - = # o + - ",
"- 8 t p w 8 0 * o * # 8 8 8 * 8 * @ # # * ; u v.j.2.` ` ) ) ) 3.y.X.| | | | | C 1 9 1 , 8 8 w = 8 t t 9 & * 8 9 8 1 = * * - > * ",
"8 8 e 9 8 * * * o * * 8 * 8 0 0 8 # X # # * e F n.p.o.) ) ] 3.y.,.| | | | | I < % 8 8 1 e w - * 8 9 t t 9 8 9 q 8 e 9 > * = - * ",
"9 8 8 % . . o o % * o ; 8 8 8 8 8 * ; # @ @ 0 w W M.y.3.3.3.y.q.| | | | | I < . + - 8 e t - % % 8 u u u q - - - 1 e e t q * * 8 ",
"8 * 8 # . X . . . o % 8 0 8 8 8 8 ; ; # 8 % @ w i W g.y.y.u.q.X.| | | { C 2 X . % - * 9 q = * 0 q i t w t q = 8 9 e 1 0 q * * - ",
"+ * % o o * * = @ # # 0 w 8 8 8 ; ; * 0 0 0 # 0 > q K 1.| A N k j j h 4 1 = $ * 8 8 = 9 w * % % 8 t 8 = w e = 8 u q - 0 - @ @ # ",
"* 8 * * o * 8 * ; ; # * * * 8 8 8 # o o 0 8 # # @ % 0 - % % > : % * * * 1 * % = 8 9 9 q t 8 w 8 q t - 8 e p 8 = t t w u 8 # ; ; ",
"= * = * % 8 * * 0 0 # # @ # 8 @ # .     # # @ @ . o % ; : w 3 8 3 3 1 - 8 = , 1 8 8 9 9 0 w u 0 - 8 8 u e * + % 8 9 w u > ; ; 0 ",
"= * * * o * 0 w d w 0 8 ; # @ . . . # @ . # @   o o % 0 s w 3 t e 3 9 9 e 8 - > - 8 9 8 - - w t 9 8 8 w w X o = 9 8 0 0 0 # # ; "
};
