/* XPM */
static char *result[] = {
/* columns rows colors chars-per-pixel */
"64 64 183 2 ",
"   c #435D1C",
".  c #46621F",
"X  c #4B651F",
"o  c #4F691F",
"O  c #53651E",
"+  c #4A6621",
"@  c #4D6A21",
"#  c #506720",
"$  c #526D22",
"%  c #596E22",
"&  c #567224",
"*  c #5A7524",
"=  c #5E7926",
"-  c #557429",
";  c #597628",
":  c #5D7C29",
">  c #617121",
",  c #627D26",
"<  c #6A7D26",
"1  c #627E28",
"2  c #6B7E28",
"3  c #727F29",
"4  c #A2531E",
"5  c #A95320",
"6  c #A65A20",
"7  c #AC5C23",
"8  c #AF6624",
"9  c #AF6825",
"0  c #B96725",
"q  c #B26B26",
"w  c #B66E2A",
"e  c #B77429",
"r  c #BB752B",
"t  c #BD7C2B",
"y  c #BB7D36",
"u  c #C37D2C",
"i  c #C97D2C",
"p  c #C97F30",
"a  c #668127",
"s  c #6A8327",
"d  c #658229",
"f  c #6A8529",
"g  c #6D892A",
"h  c #738529",
"j  c #718C2A",
"k  c #7B8B2C",
"l  c #75912C",
"z  c #7A952D",
"x  c #698B31",
"c  c #769431",
"v  c #888D2F",
"b  c #83932E",
"n  c #80982F",
"m  c #8B992F",
"M  c #899531",
"N  c #859932",
"B  c #8B9B31",
"V  c #939D32",
"C  c #9A9C33",
"Z  c #BE822D",
"A  c #BC813B",
"S  c #A49E34",
"D  c #8FA233",
"F  c #94A234",
"G  c #9DA635",
"H  c #9BAB36",
"J  c #95A838",
"K  c #9EAE39",
"L  c #A4A235",
"P  c #ABA436",
"I  c #ACAC37",
"U  c #B1A436",
"Y  c #B3AB37",
"T  c #B4AC39",
"R  c #BEAD39",
"E  c #A5B33A",
"W  c #A8B33A",
"Q  c #B5B63B",
"!  c #B3BC3C",
"~  c #C4812D",
"^  c #CC852F",
"/  c #D1842F",
"(  c #CB8B30",
")  c #C68C3C",
"_  c #D58B31",
"`  c #D88F32",
"'  c #CE9333",
"]  c #D29333",
"[  c #DF9735",
"{  c #D09A35",
"}  c #DF9B36",
"|  c #E09C36",
" . c #E39F38",
".. c #D3A137",
"X. c #DDA037",
"o. c #DEA338",
"O. c #DCAC3B",
"+. c #C2B13B",
"@. c #CBB53D",
"#. c #C5B83D",
"$. c #CDB93D",
"%. c #D1B73E",
"&. c #DBB23C",
"*. c #D3BB3E",
"=. c #E0A037",
"-. c #E3A439",
";. c #E5AC3B",
":. c #E8AD3C",
">. c #E3B23D",
",. c #E8B43E",
"<. c #E4B93F",
"1. c #E9B93F",
"2. c #B9C33F",
"3. c #CDC03F",
"4. c #CC9D4B",
"5. c #D19D48",
"6. c #D2AA4F",
"7. c #D6B846",
"8. c #DEBF40",
"9. c #CDA250",
"0. c #D1AC5F",
"q. c #E6BE40",
"w. c #EABC40",
"e. c #BCC841",
"r. c #CBCC43",
"t. c #D4C641",
"y. c #D4CE44",
"u. c #DCCA44",
"i. c #CBD245",
"p. c #D1D647",
"a. c #DDD145",
"s. c #D2D947",
"d. c #DBD847",
"f. c #DCDB49",
"g. c #DEC257",
"h. c #E4C542",
"j. c #EBC342",
"k. c #E3CC44",
"l. c #EDCB44",
"z. c #F0C543",
"x. c #F3CC45",
"c. c #E4D346",
"v. c #EDD246",
"b. c #EDD748",
"n. c #E4DA48",
"m. c #EDDA49",
"M. c #F4D147",
"N. c #F5D648",
"B. c #F5DD4A",
"V. c #F8DD4A",
"C. c #E2CB57",
"Z. c #F2DF54",
"A. c #F2DF5D",
"S. c #DEE14A",
"D. c #E3E34B",
"F. c #EEE34C",
"G. c #EEEB4E",
"H. c #F6E34C",
"J. c #F8E34C",
"K. c #F5EB4E",
"L. c #F8EA4E",
"P. c #F1E757",
"I. c #F4EE51",
"U. c #FAEE50",
"Y. c #F5F351",
"T. c #FAF351",
"R. c #FBFB54",
"E. c #FAFA5B",
"W. c #DFC767",
"Q. c #DEC46C",
"!. c #E2CA67",
"~. c #E7D564",
"^. c #F1DF68",
"/. c #EFE362",
"(. c #EDE26D",
"). c #FBFB63",
"_. c #F8F56B",
"`. c #FAFA6E",
"'. c #EEE579",
"]. c #F2EC77",
"[. c #FAFB7A",
"{. c #F7F785",
"}. c #FCFF88",
/* pixels */
": : d d a g l j g f a * $ = $ $ o & a * o a & o & $ - g z g , s s * s s j s a % * , s s = , g a & $ & $ X X o & a f x g d - @ ; ",
", d d d * s s s a = a a = a * * a & a & a a o o & a d d g j f s s = < s j h s % o $ , j g g g = @ @ & @ o . X o $ * d g x - d d ",
", = & = % , s s = a s j a a , a s a * & a a o $ - - $ $ , < s = , , , s a a s > $ & = j g l d = a = = a * & * X o , = = d - @ - ",
"f * $ $ % , j j a = s j a = , a a a a a a a g & o $ $ d l m F V F F m k s s a & $ & ; = = g = = g l g l , a = % a = a = - d - - ",
", , * o O = s j g s g g g s = a s s s a s s s s l H #.3.n.F.F.J.L.L.G.n.d.3.2.l , * * & * a f s g l g f a a , , a * a f d c d ; ",
"& = * % * = s j s g s a a * X * = s j g j m Y 8.v.H.V.J.J.V.V.H.B.J.L.L.T.T.T.G.f.2.D a & & * s z f a a = a , * a d a ; x x a - ",
"* , a , = s g s s g a $ @ & & = % * h V #.l.N.N.N.M.v.l.j.j.j.j.j.l.l.v.b.F.K.L.T.T.Y.s.D a $ = g d = * s s = % = a a a g x d & ",
", , * = a , = s j s * & & a f x o h +.l.N.M.x.1.1.1.,.:.,.,.,.,.,.,.1.1.1.j.j.v.F.K.Y.R.Y.s.m * a g f d a s * o = a d a d d a & ",
"a a % , h , & , l s & = a & * g U j.x.x.z.1.:.:.:.:.:.;.:.:.:.,.,.,.,.<.,.1.1.q.q.l.b.L.T.R.Y.2.z a f s o * % % f s j g a & & = ",
", = a a a a a a a a & o a a b 3.N.M.x.1.:.-.:.-.-.-.:.:.:.:.,.:.,.,.1.1.1.1.1.1.1.w.q.l.m.K.R.R.D.n a g s a j s j j s g a * = = ",
", > a a < s g a $ * * , g G k.N.M.z.:. .-.:.-.:.-.:.;.;.:.:.:.:.,.,.,.,.,.1.<.1.1.w.1.w.j.l.H.T.R.Y.E j z j z j a a s , = ; a d ",
", a , , > < g , o $ $ a G b.H.N.z.:.:.:.-.-.-.-.:.-.;.;.;.:.:.:.:.:.,.,.1.,.1.1.1.w.w.w.q.j.j.m.Y.R.R.2.j a z l j g , = = a s s ",
"a a % a < a a a , o o V m.J.N.q.:.:.:.:. .:. .:. .:. .:.;.;.:.;.,.:.:.,.,.,.,.1.1.w.1.w.w.w.j.j.v.K.R.R.! , s j z j & & = = s & ",
"j a * a h s > * , * m F.J.B.j.,.:.:.:.:.:. .:. .-.-. .:.;.:.:.} b.l.:.,.,.1.,.,.1.1.1.1.w.w.w.j.h.v.K.R.Y.E j j l f a a s s s f ",
"g , & a s , = = * h n.L.H.j.,.,.:.:.:. .:.:. .:.:. . .:.-.:.X.8.R.T.j.,.:.,.,.,.1.1.1.1.w.w.w.w.j.q.v.K.R.Y.H a a s j j s a , a ",
", * $ g l < , a l 3.L.K.l.,.,.,.,.:.:.:.:.:.:.:. . .:. .-.} &.T.R.R.L.1.:.,.,.,.,.1.1.1.1.1.w.q.1.j.j.v.T.R.D.l = a s j s * * , ",
"a & $ f g l l g 2.U.U.N.1.1.1.,.,.,.,.;.:.:.;.;.-.:.-.-. .| K.R.R.R.R.K.,.:.:.,.,.,.,.,.1.1.q.1.j.q.j.j.N.T.R.i.f f j s = a a a ",
"a * $ * * g l F I.T.F.j.1.1.1.1.,.,.,.,.:.:.;.;.;.-.-.-.] m.R.R.R.R.R.R.m.,.:.,.,.,.,.,.1.1.1.1.1.1.1.j.h.H.R.Y.K l z a = j d = ",
"s g * o @ a g p.R.U.v.1.q.1.1.1.1.,.,.,.,.:.:.;.:.;.;.] k.R.R.R.R.R.R.R.R.N.;.,.,.,.,.<.,.1.1.1.1.q.1.q.q.v.U.R.S.z s * = g s = ",
"* * * % = : J Y.R.H.j.j.q.j.1.1.1.1.,.,.,.:.:.:.;.;.[ &.R.R.R.R.R.R.R.R.R.T.l.,.:.,.,.,.1.,.1.1.1.1.1.j.q.q.m.T.R.E * s f j f d ",
", , * : g x i.T.Y.l.j.j.j.q.j.1.1.1.1.,.,.,.,.:.:.} ..Y.R.R.R.R.R.R.R.R.R.R.T.j.:.,.,.,.,.,.,.,.1.1.1.q.j.1.j.K.R.S.f = d g l d ",
"* d = 1 d N K.T.H.j.l.h.j.j.1.1.1.1.1.1.,.,.,.:.;.{ F.R.R.R.R.R.R.R.R.R.R.R.R.T.q.:.:.:.,.,.,.,.1.1.1.1.j.1.q.N.T.Y.F $ = d a * ",
"$ * & * * Q L.L.l.j.j.j.j.j.h.1.1.1.1.1.1.,.,.,.<.n.R.T.T.T.T.T.T.T.T.T.T.T.T.T.L.N.w.,.,.,.,.,.1.1.1.1.1.1.j.j.L.T.i.: = = = * ",
"= $ # $ f u.L.B.q.j.j.j.l.j.j.j.1.j.1.1.1.j.l.H.U.U.L.U.U.U.L.U.T.L.T.L.U.U.U.U.L.L.L.B.x.j.,.,.,.,.,.1.1.1.1.j.B.T.G.N d : : : ",
"& & $ $ M N.H.l.1.1.j.j.j.l.j.j.j.j.q.l.N.H.U.U.L.U.L.J.L.L.L.L.L.J.J.L.L.L.L.L.J.L.J.L.J.J.N.l.w.<.,.1.1.1.1.1.l.U.T.E d d d ; ",
"d = & * I V.B.1.1.1.1.1.j.j.j.l.l.N.B.J.H.H.B.H.B.H.H.H.B.J.B.H.H.J.J.V.J.V.B.B.J.B.H.H.H.H.J.V.V.N.x.w.1.,.<.>.>.K.T.e.1 - d d ",
"g , , , @.V.M.1.,.,.1.1.<.<.v.N.B.V.B.B.B.B.B.B.B.V.B.B.V.B.B.V.B.B.B.B.B.B.B.B.V.B.B.V.B.B.B.B.B.B.V.N.O.o.;.-.;.v.T.f.f = d d ",
"j d * , *.N.x.:.,.,.1.<.e Z M.N.N.N.N.N.N.N.B.N.N.N.N.N.N.N.N.N.N.N.N.N.N.N.N.N.N.N.N.N.N.N.N.N.N.N.B.&.^ o.O.o.O.l.L.F.n d , d ",
"d d * < h.M.w.:.:.,.,.,.( 4 { N.M.M.x.M.M.M.M.M.M.M.x.x.N.M.x.x.M.x.M.x.x.M.M.M.M.x.M.M.M.x.M.M.x.M.j.^ } o.O.;.O.<.L.K.H j , = ",
"d g , 2 j.x.1.:.:.:.,.,.,.t 6 &.x.x.x.x.x.x.x.x.x.x.x.x.x.x.x.x.x.x.x.x.x.x.x.x.x.x.x.x.x.x.x.x.x.x.] ] -.=.-.o.-.>.K.L.E s s = ",
"f * & v l.x.,.-.;.:.:.:.,.;.8 q j.x.x.x.x.x.x.x.x.x.x.x.x.x.x.x.x.x.x.x.x.x.x.x.x.x.x.x.x.x.x.x.x.O.^ =.-.o.-.o.-.>.B.L.F a g = ",
", , = V x.x.:.-.-.:.:.:.,.,.X.4 u x.x.x.x.x.x.x.x.x.x.x.x.x.x.x.x.x.x.x.x.x.x.x.x.x.x.x.x.x.x.x.1.^ } o.=.o.o.o.o.;.B.L.m a g , ",
"a = a C x.x.:.:. .:.:.:.:.,.,.] 4 { x.x.x.x.x.x.x.x.x.x.x.x.x.x.x.x.x.x.x.x.x.x.x.x.x.x.x.x.x.x.] ] -.} o.o.-.-.o.;.N.L.b & & : ",
"f = a C x.x.:.-.:. . .:.:.:.,.,.~ 4 >.x.x.x.x.x.x.x.x.x.x.x.x.x.x.x.x.x.x.x.x.x.x.x.x.x.x.x.x.O./ } o.} } -.o.} -.O.b.L.M $ - : ",
"s f h V z.x.,.-. .:. .:.:.:.:.:.>.9 e j.x.x.x.x.x.x.x.x.x.x.x.x.x.x.x.x.x.x.x.x.x.x.x.x.x.x.q./ } } } } -.} -.o.} O.B.H.B - $ - ",
"a j z V z.x.,.-.:. . . .:.-.:.:.,.X.4 ( x.x.x.x.x.x.x.x.x.x.x.x.x.x.x.x.x.x.x.x.x.x.x.x.x.j.] ` } } } -.} o.} } -.;.B.B.B - - @ ",
"- d d g q.x.1.-. . .:. . .:.-.:.;.,.~ 4 O.M.x.x.x.x.x.x.x.x.x.x.x.x.x.x.x.x.x.M.x.x.M.M.N.w._ | [ } } } } } o.-.} <.B.m.k - & $ ",
"; d : f *.x.z.:. . . .:. . .-. .=.=.| 7 ~ N.N.N.N.N.N.B.N.N.N.N.B.N.N.B.N.N.N.N.N.B.N.N.N.j.} } [ [ } } }  .} -.-.w.B.c.k ; @ + ",
"d ; d f +.x.1.:. . . . .| | [ | | | =.u r H.B.H.B.H.B.B.B.B.H.B.V.B.B.V.B.B.J.V.B.B.B.H.V.x.| } [ [ [ } }  .} } o.j.V.t.g d 1 = ",
"s d d d U x.x.:. . .[  .[ [ [ [ | [ [ u r J.L.J.L.J.L.L.L.L.L.L.L.L.L.L.L.L.L.L.L.L.L.L.L.v.} } } [ [ [ } } } } -.l.V.Q g 1 j j ",
"d f f f z h.x.,.[ [ [ [ [ [ [ [ [ } | i e L.T.T.T.T.T.T.T.T.Y.T.T.T.T.T.Y.T.T.T.T.T.T.T.Y.B.o.} } } } [ [ } } } ;.M.N.V d d g a ",
"a a d f a @.x.1.| | [ [ [ [ [ [ [ [ | i 9 K.R.R.R.R.T.R.R.R.R.T.T.R.R.R.R.R.R.R.R.R.R.R.R.H.o.| } } [ [ [ [ } } <.N.u.h * f f d ",
"= a f d * C x.x.-.| [ [ [ [ [ [ [ [ [ i 8 I.R.R.R.R.E.R.E.R.R.E.E.R.R.R.R.R.E.E.E.E.E.R.E.B.-.o.} } } [ [ [ |  .j.V.Y $ $ * & = ",
"* a g d , k h.x.:.[ [ [ [ [ [ [ [ [ [ / 7 I.E.E.E.E.E.E.E.E.E.E.E.R.R.R.E.E.E.E.E.E.E.E.E.Z.o.} o. . .} } [ | ;.x.l.k * $ $ = g ",
"= d a & , g T x.z.-.| [ [ [ [ [ [ | | / 7 P.).).).).).).).).).).).).).).).).).).).).).).).A.-.o.} } }  .| [  .q.M.+.% = = = a a ",
": & & $ = g b h.x.1.| | [ [ [ [ [ | | / 7 /.`.`.`.).`.`.`.`.`./.C.7.g./._.`.`.`.`.`.`.`.`.A.o.} -.o.o.} } | ;.x.j.b $ * f s = , ",
": = @ $ : d f P x.x. .| [ [ [ [ [ [ | / 7 ~.[.[.[.[.[.].~.6.) ~ ~ u w w y 4.g.(.].[.[.[.[.^.o.-.o.o.o.}  .O.x.M.+.1 = , f f , f ",
"& & = = & - & 2 *.x.w.| [ [ [ [ [ [ | ` 4 W.}.{.].!.9.) ~ _ { o.;.>.>.o.' ~ e w A 9.!.'.{.^.O.-.-. .o.-.-.w.N.h.k , d f d > s g ",
"@ # * * % * , a V j.x.,.| [ [ [ [ [ [ ` 5 0.Q.5.p p _ | -.-.o.o.-.&.;.&.>.>.&.X.' u e e A 9.o.-.-.} o.-.w.N.N.G , s g j s > g l ",
"& $ & * * g s a a Y x.x.,.| [ [ [ [ [ ` 0 u p / [ | | | | | o.-.-.o.;.;.>.>.>.>.>.,.O.X.] ' ;.o.o.-.o.<.N.V.7.= a j g , = , , d ",
"1 * * , * s s * * s #.x.z.,.| [ [ [ [ [ ` ` | [ [ [ [ [ | |  . .o.o.O.;.>.&.>.>.>.>.>.;.;.;.;.o.-.o.q.N.V.t.h * = , j s = = # $ ",
", , j s * * * * * a b $.x.z.;.} | [ [ [ | | [ | [ [ [ [ | | | 5.o.-.o.o.;.;.>.>.>.>.&.;.;.O.O.;.O.q.B.H.u.h * = , s s * $ $ # % ",
"g f j l f , j a < s a s $.x.x.,.| | [ [ [ [ [ [ [ [ [ [ [ | | | =.=.-.O.;.O.>.&.&.>.>.>.>.;.O.>.l.H.J.a.k $ > 1 , s * o # @ o * ",
"l j s j = , f j s s j a k @.x.x.w. .[ [ [ [ [ [ [ [ [ [ [ [ [ | =.=.=.=.o.o.-.>.>.>.>.>.>.&.<.v.L.L.y.k * * , * & , * o # $ & = ",
"g s g l a , = s , o , * * j R z.x.z.;.| [ [ [ [ [ [ [ [ [ [ [ | | X.=.-.=.;.o.;.>.&.>.>.<.l.H.T.K.r.h , * $ % $ o * & o X X * j ",
", a j z l a * o o X $ * , > , S h.x.x.w.;.| [ [ [ [ [ [ [ [ [ | | } =.o.X.o.;.o.;.;.,.k.F.Y.T.K.! g h < O X * * % * = * @ o o = ",
"= a l l d a a $ o & $ = = = = a k R l.x.x.w.:. .| | | | [ [ | ` } } | | =.o.o.;.>.j.m.L.R.R.s.n s j j a * $ a d a , = & $ * = & ",
"a a g g d a $ & o & - a = a f s = & v @.x.x.x.j.:.:. . .| [ | | [ } |  .=.:.<.l.B.L.T.T.D.E d * a s j j s a d s a s d = & = = & ",
"a a a o . . o $ & & $ ; a a a a d = & * v +.h.x.x.x.z.z.w.,.w.w.,.,.1.z.l.M.B.H.L.F.3.E z , $ & a l l z s = a * a g f l d * * a ",
"a * a o . . .   . o @ = f a = a : & & & * = 3 P @.j.x.x.x.x.x.x.x.x.x.M.M.v.k.$.W z d a s * & = g l j f g g * a d g , d f - $ = ",
"o & $ o X & & * + @ @ d f a a a * * * * 1 d & : 1 k J C S U 7.@.%.@.U P L M < > a a * a f & $ $ a j a * g g * a l f a d = + + - ",
"& d - $ $ & a * - - $ $ & * f d = $ @ $ 1 : @ @ + $ 1 - + $ * : * = * & , $ o = a a a g g d f a g g a a g l a * g j d l d X - - ",
"* & * * $ a - & d d $ @ X @ - $ + .     $ - + + . + $ ; ; f 1 f 1 , = = a * = , a a a d d g l d - a a j g * o & d s x j a @ - ; ",
"* & & & X & d g c x d d & @ @ . . . # + + @ +   + $ ; 1 x x 1 j f , s s j a * = & d d a a d g j s d d f d o X = d d d d d $ & ; "
};
