/* XPM */
static char *result[] = {
/* columns rows colors chars-per-pixel */
"64 64 183 2 ",
"   c #435D1C",
".  c #46611F",
"X  c #4B651F",
"o  c #4F691F",
"O  c #53651E",
"+  c #53691F",
"@  c #4A6620",
"#  c #4D6A21",
"$  c #506720",
"%  c #526D22",
"&  c #596E21",
"*  c #567224",
"=  c #5A7524",
"-  c #5E7926",
";  c #557529",
":  c #597628",
">  c #5D7B29",
",  c #617524",
"<  c #627D26",
"1  c #6B7D26",
"2  c #627E28",
"3  c #787D28",
"4  c #AB5D22",
"5  c #AD6123",
"6  c #B36424",
"7  c #B66D27",
"8  c #BA6926",
"9  c #B86A28",
"0  c #BA6D2A",
"q  c #BA7129",
"w  c #BF7C2B",
"e  c #BA7737",
"r  c #BC7B35",
"t  c #C06E28",
"y  c #C47229",
"u  c #C17B2B",
"i  c #668127",
"p  c #6A8327",
"a  c #658229",
"s  c #6A8529",
"d  c #6D892A",
"f  c #70862A",
"g  c #7B8329",
"h  c #728C2A",
"j  c #7C8B2C",
"k  c #75912C",
"l  c #7A942D",
"z  c #7A982F",
"x  c #698B31",
"c  c #769431",
"v  c #818C2E",
"b  c #898D2D",
"n  c #908D2F",
"m  c #84932E",
"M  c #8A942F",
"N  c #86982F",
"B  c #88982F",
"V  c #94912E",
"C  c #8F9430",
"Z  c #819933",
"A  c #899C31",
"S  c #9D9531",
"D  c #919C32",
"F  c #9A9A33",
"G  c #A39D33",
"H  c #AB9D34",
"J  c #8EA232",
"K  c #93A234",
"L  c #9DA836",
"P  c #A6A836",
"I  c #B2A435",
"U  c #B1A738",
"Y  c #B3AC39",
"T  c #BCAD39",
"R  c #A6B339",
"E  c #ADB43B",
"W  c #B3B03A",
"Q  c #B4BC3E",
"!  c #BEBD3E",
"~  c #C6822E",
"^  c #CB8232",
"/  c #CE8E32",
"(  c #C68838",
")  c #D28D31",
"_  c #D98D32",
"`  c #CF9534",
"'  c #D49132",
"]  c #DC9534",
"[  c #D69D36",
"{  c #DE9B36",
"}  c #E19735",
"|  c #E19936",
" . c #E39F38",
".. c #C2A637",
"X. c #C3AD3A",
"o. c #CDAB39",
"O. c #DEA037",
"+. c #DEA238",
"@. c #D2AE3A",
"#. c #DEA83A",
"$. c #C5B33C",
"%. c #CBB53C",
"&. c #C6BD3E",
"*. c #D5B23B",
"=. c #DBB53D",
"-. c #D6BB3F",
";. c #DCBA3E",
":. c #E0A037",
">. c #E2A338",
",. c #EAA63A",
"<. c #E3AB3B",
"1. c #EAAC3C",
"2. c #E4B33D",
"3. c #EBB43E",
"4. c #E2BA3F",
"5. c #EBB93F",
"6. c #C4C13F",
"7. c #C8944B",
"8. c #CD9B4C",
"9. c #CFA146",
"0. c #CFA34A",
"q. c #DDBF43",
"w. c #D9B64B",
"e. c #D3AB53",
"r. c #D8B256",
"t. c #E6AF40",
"y. c #E5BE40",
"u. c #EBBC40",
"i. c #F0BD41",
"p. c #BDC540",
"a. c #C3C340",
"s. c #DEC241",
"d. c #D9D647",
"f. c #D4DA47",
"g. c #E5C241",
"h. c #ECC442",
"j. c #E4CB45",
"k. c #ECCA44",
"l. c #F1C443",
"z. c #F6CD46",
"x. c #F8CE46",
"c. c #E5D046",
"v. c #ECD246",
"b. c #EED748",
"n. c #E6D948",
"m. c #EEDA49",
"M. c #F5D147",
"N. c #F8D347",
"B. c #F6D649",
"V. c #F8D649",
"C. c #F4DB4A",
"Z. c #F8DB4A",
"A. c #E5CD5B",
"S. c #E9D65C",
"D. c #E4E44B",
"F. c #EBE24B",
"G. c #EEEE4F",
"H. c #F4E44C",
"J. c #F9E34C",
"K. c #F4EC4F",
"L. c #FAEA4E",
"P. c #EDF04F",
"I. c #FAEF50",
"U. c #F4F451",
"Y. c #FCF451",
"T. c #FEFC54",
"R. c #F9F05C",
"E. c #FEFD5B",
"W. c #E3C96B",
"Q. c #E6D163",
"!. c #EDDF73",
"~. c #F5EC66",
"^. c #F9F067",
"/. c #FEFD64",
"(. c #F8F36A",
"). c #FDFC6E",
"_. c #F8EF70",
"`. c #F5EE7F",
"'. c #F6F174",
"]. c #FEFE70",
"[. c #FDFD7A",
"{. c #FAF883",
"}. c #FFFF88",
/* pixels */
"> > i a i d k h d d i = % - % * % * a = o - % o * * * s l d < i i , p p h i < & = , p a - < s i * % = # X . o = s s x s a # % a ",
"< i a i = i p i i - i i - i = = - = i * i i % o * i a a d h p s d , i p h h p & % + < k d d h - # # * % o . . o % = a x x ; ; a ",
"< - ; > & < p i - i p h i i < i d i = * i i o % * * % % < i i - < - < p p p p , % * - d d k a < i : = i = * = X o = i > a ; # ; ",
"s - % # & i h h i - p h i i = i i p - i i i d = # * - x l N N j j m m j h j p = # ; = < - d - : k l d k < < < & i < i - ; a # a ",
"< < = + + = i h p s d d s a < i p p i a p p p k J p.d.F.F.F.F.m.m.m.v.k.g.g.6...V p - * = i d a s k s s i i < < i = i a a c a ; ",
"* = = = = - p h d h a i i = X = < p h d d J p.F.U.Y.I.K.L.J.J.J.J.Z.J.Z.N.N.x.x.x.g.T j = * = p z i i i < i - = i i i > x x a ; ",
"= , i < , i d p p p i % # * * - * = d l p.P.Y.Y.K.H.M.M.k.l.l.l.k.k.M.N.Z.N.N.x.z.z.M.h.P p % - d a - - p p < & - i i i s x a * ",
"i < = - i i < p h d = * * a s s + + K D.T.Y.H.m.k.h.5.5.5.3.5.3.3.3.5.5.l.x.N.N.x.x.x.x.x.-.v % a h i a i p = o - i a a a a i * ",
"i i & < h < & < h d * = i * = i a R U.U.I.m.k.y.5.5.5.5.3.3.3.3.3.1.3.1.1.3.i.x.x.x.x.x.z.x.h.S s i p d % = = & p s h d i * * - ",
", < i i i i i i i i * o i i i h 6.T.T.K.v.y.u.u.l.5.5.5.3.3.3.3.1.1.1.1.1.1.1.3.l.N.N.N.x.z.z.k.F = i p p < h p h h p d i - - - ",
"i , i i < p h i o = = i d s h 6.T.Y.H.h.y.u.u.i.5.5.5.3.3.3.1.3.1.1.1.1.,.,.,.1.3.l.Z.Z.N.x.x.x.k.F i p l h l h i p i < > : i i ",
"< < i , , < p i o o * a i i p.T.U.m.h.h.u.u.u.5.5.5.5.3.3.3.3.1.1.1.1.,.,.,.,.,.1.3.z.Z.J.N.z.x.M.h.D l h i l k d d i - - i i i ",
"i i & < 1 p i < < % o = i R U.T.F.h.u.5.i.i.5.5.5.5.3.3.3.3.1.1.1.1.1.,.,.,.1.1.1.1.3.M.J.J.N.x.z.N.s.B i - p h l h * * - i i * ",
"h p = p p i = , i * = = A P.T.F.h.u.g.y.h.5.5.5.5.3.3.3.l.v.>.3.1.1.1.,.,.,.1.1.1.1.3.i.B.J.J.x.z.z.z.%.h i h h k p i i i p p p ",
"d i & i p i < , * o X & 6.T.K.k.h.y.5.h.5.5.5.5.3.3.3.3.L.Y.;.>.1.,.,.,.,.1.1.1.3.1.3.3.l.H.L.J.x.z.N.l.G i p i i d h h p i < i ",
"- = * p h i < i , X X J T.I.v.y.u.u.u.i.5.5.5.5.3.3.3.N.T.T.H.+.1.,.,.,.1.1.1.1.3.3.3.3.5.M.L.L.N.x.x.N.;.i - = < < p h p = = < ",
"i * % s d h k s i + 1 D.T.m.h.u.g.5.5.5.5.5.5.5.3.3.5.Y.T.T.T.g.| ,.,.,.1.1.1.1.3.3.i.3.5.h.Z.Y.J.N.x.z.z.G - a a a h s - i < p ",
"i - % = - s k d d i R U.L.k.u.g.g.u.h.5.5.5.3.3.3.3.L.T.T.T.T.Y.#.,.1.1.1.1.3.3.3.3.3.5.u.5.M.Y.Y.Z.z.x.x.-., % > z l i - d i < ",
"p p - + # a s s h l D.T.m.u.u.5.5.u.5.5.3.3.3.3.3.B.T.T.T.T.T.T.m.[ ,.1.1.3.3.3.3.5.u.u.i.u.h.H.Y.L.x.z.z.z.b o < p s = < d i < ",
"- * = & > > a a k R U.L.k.5.g.5.5.5.5.5.3.3.3.3.h.Y.T.T.T.T.T.T.T.=.>.1.1.3.3.3.3.5.u.u.i.h.h.B.T.Y.N.x.x.N.X.* ; = < < s h s a ",
"< < * > x a > i l f.T.m.u.u.5.5.5.5.5.5.3.3.3.3.L.T.T.T.T.T.T.T.T.K.[ 1.3.3.3.3.i.5.u.u.h.h.l.k.L.Y.J.x.x.x.h.h : > = 2 a s c a ",
"= a < < i : * ; Z P.U.k.u.u.4.5.5.5.3.3.3.3.2.M.T.T.T.T.T.T.T.T.T.T.j.{ 3.3.3.5.u.i.u.i.h.h.h.l.Z.Y.J.N.x.x.x.F % $ % % : a p = ",
"% = * = = * - * R U.H.h.g.5.5.5.5.5.3.3.5.5.C.Y.T.Y.Y.Y.Y.T.Y.T.T.Y.Y.g.5.3.3.u.u.u.h.l.h.l.l.h.z.H.L.N.z.x.x.X.: % = > = < < * ",
"= * # & 2 a p < 6.Y.m.u.4.5.4.5.5.3.5.l.Z.L.Y.L.L.Y.Y.Y.Y.L.I.Y.Y.Y.Y.I.J.z.l.u.i.i.u.h.l.k.h.l.h.H.J.N.x.z.x.4.f % : a a 2 = > ",
"; * % * < h p k n.I.k.5.5.5.2.5.u.z.C.L.I.L.L.L.L.L.L.L.I.L.J.I.L.L.L.L.L.L.J.M.l.h.h.h.h.h.h.u.5.M.J.V.z.z.z.z.v * : - d a a ; ",
"i = ; = p k f J G.H.4.2.4.5.h.M.Z.J.J.J.J.J.J.J.J.J.J.J.J.J.J.J.J.J.J.J.J.L.J.J.Z.M.z.h.k.l.h.5.5.l.Z.V.z.z.z.z.F ; = : a ; i a ",
"d < , < p h d L L.m.<.<.+.#.B.H.Z.Z.C.J.Z.Z.Z.C.Z.Z.B.C.Z.J.Z.Z.Z.Z.J.Z.J.Z.J.Z.Z.J.C.B.h.5.5.5.5.5.Z.V.z.z.z.x.U = i > - - a a ",
"d i - = = i i R I.k.<.#.<./ 2.B.Z.V.C.B.Z.B.Z.B.B.Z.B.Z.V.Z.Z.B.Z.V.Z.V.Z.Z.N.Z.Z.Z.Z.B.` u 5.5.3.5.M.M.z.l.z.x.X.a i > i s > i ",
"a s * * = < a Q I.h.#.>.>.[ ' z.x.M.M.M.M.M.M.M.M.M.M.M.M.M.M.M.M.M.M.x.N.x.N.N.M.M.N.5.5 ) 3.3.3.3.z.x.z.z.z.z.%.d < - h k < - ",
"a d i o * a - 6.L.g.#.<.>.:.) <.x.x.z.z.x.x.z.z.x.x.z.z.z.x.z.x.x.x.x.z.x.x.x.z.x.x.z.u 7 3.3.3.1.1.i.x.l.z.z.z.s.h i h l d s - ",
"s - * * * * = p.L.4.>.>.>.>.{ ' l.x.z.z.z.z.z.z.x.z.x.z.z.z.x.z.x.z.z.x.z.x.z.x.x.x.>.4 O.5.3.1.1.,.5.N.h.z.z.x.;.< > i - i d - ",
"< - < i - * % p.L.2.>.>.>.:.>.' #.x.z.z.z.z.z.z.z.z.z.z.z.z.x.z.z.x.x.z.z.z.z.z.M.l.7 ~ 3.3.3.1.1.,.5.x.z.z.h.x.;., o % & s d < ",
"i - s p i : * ! J.2.>.>.:.:.:.{ ) h.z.z.z.z.z.x.z.z.z.z.z.z.z.z.z.x.z.x.z.z.z.x.x.` 5 <.3.1.1.1.,.,.i.z.z.h.k.z.-., % @ # * ; > ",
"d - i x d i - ! J.2.O.O.:.:.:. .' +.x.z.z.z.z.z.z.z.x.z.z.x.z.x.z.z.x.z.z.z.z.x.u.6 ' u.3.1.1.,.,.,.i.x.z.h.l.z.-.& @ # % * * : ",
"a s d k k i < 6.J.2.O.>.:.:.{  . .) h.x.z.z.z.z.z.z.z.z.x.z.z.z.x.z.x.z.z.x.z.z.~ q 1.3.1.1.,.,.,.,.i.z.z.h.h.z.-.& # # : ; % : ",
"a d z k a > i Q Z.4. .#.:.:. . . ._ +.z.z.z.z.x.z.z.z.x.z.z.x.x.z.x.z.x.z.x.x.<.5 [ 3.1.1.1.,.,.,.,.i.z.k.h.h.l.-.a > ; > ; ; # ",
"= a a a - * : E J.4.O.>.O. .{ { | ] ] z.x.x.x.x.z.M.M.M.x.x.M.x.x.x.x.x.z.M.x.w q 1.3.1.,.,.,.,.,.1.l.x.l.h.h.z.w.d a > > * * % ",
"> > : a - % * P Z.u.O.O.{ {  .} } | >.M.Z.V.Z.V.B.B.Z.V.B.V.B.Z.V.Z.V.V.B.B.h.4 _ ,.,.,.,.,.,.,.,.1.l.x.h.h.h.h.W h a a a = # @ ",
"a a i a s < < B m.j.>.{ {  .] } | | <.Z.Z.J.J.Z.J.Z.J.Z.J.J.J.J.J.J.Z.J.Z.Z.h.6 |  .| | }  .,.,.,.1.x.z.h.h.h.h.P i a d s a > > ",
"a a a a d d - h j.z.>.{ ]  .{ } | | <.J.I.L.I.I.I.L.L.I.L.L.L.L.L.L.L.L.I.I.j.9 |  .| | } } }  . .3.x.l.g.g.g.h.B - i d d i h h ",
"a a s s a i ; * &.M.>.{ } ] }  .|  .<.I.Y.Y.Y.Y.Y.Y.Y.Y.Y.Y.Y.Y.Y.Y.Y.Y.Y.T.j.9 { | } } | | } } | 3.M.k.y.g.u.;.j i a d i i s i ",
"i a i s i a a * Y Z.5.{ { } ] ] |  .<.I.T.T.T.T.T.T.T.T.T.T.T.T.T.T.T.T.T.T.k.9 } } } | } | } }  .5.x.u.y.g.h.X.i d i i : s d i ",
"- i s s - - a > M B.5. .} ] {  . . .<.Y.E.E.E.E.E.E.T.E.T.E.E.T.T.E.T.E.T.E.j.8 } | | } | | } } >.z.x.4.y.y.u.P - i : * % * * : ",
"* i d a i i d i g 6.z.>.]  . .{ :.:.t.R.E.E.E.E.E.E.E.E.E.E.E.E.E.E.E.E.E.E.q.8 | } } | } | | } 1.x.k.4.y.y.4.m * * * - % * - h ",
"- a a * - d a i i Y x.2.{ { { { >.>.<.~././././././././././././././././././.w.8 } | } | | } }  .i.N.u.;.4.s.%.d * & + : - < i i ",
"> * * # - d s s * g j.i.| { >.O.| >.2.^.].].].].].).(.S.w.A.~.).).).).).).).w.8 | } | } | | } 1.x.l.4.4.4.4.G & + = * = s i < - ",
"i ; # * a a a * o * $.M.2.>.O.>.>.>.t._.[.[.[.'.Q.0.r 7 u ~ ~ 9.A.'.[.[.[.[.e.t  .} } | } }  .u.M.g.;.;.;.;.j * ; - = i s s < s ",
"* * * a # * * - * * C M.k.>.{ >.>.>.<.`.{.W.8.e q ~ [ <.2.<.+.' ^ ( r.!.{.}.e.y } } | } | | 1.z.l.2.=.;.;.I s < < , i s s , i d ",
"o o * - & = i a i d h $.Z.u.>.:.>.>.#.8.e q ~ O.2.4.2.2.<.<.<.,.>.} _ ^ 8.W.7.y | } } | }  .i.z.u.;.=.;.*.B i = i p d d p < p l ",
"* % % = = p i i i h i h v.b.2.>.>.>.#.) [ <.2.2.2.2.2.<.<.1.<.:.>.| | | _ ^ 0 ^ | | | | } 3.M.k.;.*.=.=.H p i - i h h < - < < i ",
"- - - - < p p = = i p i Y J.b.2.#.#.<.2.2.2.2.2.3.2.2.<.>.>.O. . .} | } } } } } | | } } 1.l.z.;.*.=.=.X.p < < = , < h p - = % & ",
"a i h i = * , = - i h i p 6.J.k.<.#.<.#.<.2.2.2.2.<.<.<.>.>.:. . .} } | } } } } | }  .>.l.M.y.*.*.*.*.b = & * = < i p , & % + + ",
"s s h k d < d i i p p + p J n.H.v.2.#.2.2.2.2.2.2.<.<.>.>.>. . .} } | | | }  .} } } >.i.N.u.@.@.*.*.S , & % = i - p - o # # # = ",
"k h i h < i d h p p h i i i K F.L.v.4.<.2.2.2.2.<.<.<.>.>.>. . .} } | } } } } } | ,.i.N.h.*.@.@.*.I 1 & , * < = * < * o o # * - ",
"h i p k i - < i i o i - - < < D F.Y.H.g.=.<.2.2.<.>.,.>.|  .} } | } | | } } } ] 1.l.N.h.*.o.@.@.I g , < = & % & & * * o X X = f ",
"i i h l k i % % o X + * - < , , N D.T.K.k.4.#.<.<.>.>.>.>.} } } } | } | } } >.3.z.N.h.*.o.o.o.H p < p p O o = = & = - = # o + - ",
"i i k k a i a # o * # i ; = = i * h f.T.U.C.h.<.>.>.>.| | } } } } | } |  .1.h.x.z.y.*.o.o.o.F < p h h i = * i i i i - * % - - * ",
"i i p d i i ; * o * ; a i i d a a o < Q K.L.H.v.h.2.>.>.| | | }  . .>.u.l.z.x.l.4.@.o.o...b > * i p d h i i a i i s a - % i - * ",
"i i i * . . # # * # % * i i i i i : ; * l a.H.J.B.M.h.u.5.5.3.5.u.l.z.x.x.z.g.w.@.o.T G m i o * i h k z p - * i i d s h s ; * i ",
"i * i #   . .   . o % a d i = i - * * * = > v &.c.M.M.x.x.N.x.x.x.x.z.l.4.@.o...I V p a i = % i d l h s d d i i a d - s s * # - ",
"o * o # X = * = @ # # a p i i i - * = : a a # > d A W T X.%.w.T U H S S S n 3 1 i i * a d * * # i d i = a d * a k d i a i . # # ",
"* i i * o * i = ; ; # * * * a i : % o # > > # # @ # i ; % = = = * * % * - * % = i i p d d i a a d d i i d k i = d d i k i . # a ",
"= * o * # i # i a a # # @ # i # @ .     * * @ @ @ @ % ; : x 2 s a 2 - - i = = < i i i a a a k i = a i h d i o * i a x x a # ; a ",
"= * * * # ; a a k x a i ; # # . . X # X X # @   @ % ; a x s 2 h s 2 p p h p = - i a i i i i d d d a a a a X X - a i a a a ; # ; "
};
