/* XPM */
static char *result[] = {
/* columns rows colors chars-per-pixel */
"64 64 39 1 ",
"  c #445E1D",
". c #485E1C",
"X c #46611E",
"o c #4B641E",
"O c #4F681F",
"+ c #51661E",
"@ c #52691F",
"# c #466321",
"$ c #4B6620",
"% c #4E6A22",
"& c #506720",
"* c #526D22",
"= c #596E21",
"- c #567224",
"; c #5A7524",
": c #5E7926",
"> c #557529",
", c #5A7628",
"< c #5D7B29",
"1 c #617523",
"2 c #627D26",
"3 c #697D25",
"4 c #617E29",
"5 c #668127",
"6 c #698327",
"7 c #658229",
"8 c #6A8529",
"9 c #6D892A",
"0 c #718627",
"q c #708728",
"w c #718C2A",
"e c #75912C",
"r c #79952D",
"t c #7B982E",
"y c #668A31",
"u c #6D8D31",
"i c #749531",
"p c #769934",
"a c #799931",
/* pixels */
"<<775qew985--:@-X%7%X55X5%%yr9556:66065=-5565575-%5$OXO*88yy7%*7",
"2777;5865:55:5;;555555%$%57790666:560w0@O-598775%%%%* OO*-77y>>7",
"2:-:-265:58w55:557%555%$%5%5555;5556556:%*5y8e7-5555--;oO5557>%7",
"8;**=5ww5:6w5::655555785%%X55w65:005565;X5%758559e8e-55@555->7%>",
"22;@@;5q866995:555575575%5-7-555556-@w5O%-5%57779e7555555;57ye75",
"*:;-;:6w9w855:O;5577775%#X%55765658-;65OX555%%57i75555;555:5yy5%",
";23225qq665*O-*5557555775X%555w55-55*5*555755%%58755565@55759y7*",
"52;:32:8w9;--5y7%X%5%% 7#X %%585**----O59757y5%%797558*O;585777*",
"55=292@5w6-:5=-87#%75   %%*OO56-55587%%57758t7557588O:;=67w95--:",
"2:55566555-O555677y75%X %55OO5-*55w57%#-y99ee75X--566500w9667::5",
"21555005*--59985%75555X%X%OOO*555595%#X5wtee55*5;*58rwr066655-57",
"2223;102*O-65;755755575XX%-OO5695575%%X58w95*5557;6r96re995;::57",
"56;236535*%;55655%77775#5##%X59555w5O*-7559855w55:7w5;8wrw-;:55-",
"06;565;;5-;:5::@#777855755%X%%5--5695O-575755585;;5ww5www6555666",
"95-565:1-oOXoOOO5%57757%777%55555ww5-O%yeww555y5;-56668566w96555",
":;*6w5552oXXX*-%%#X5555%5777X58589w6**-9y5w5X%-*55w6::;-556w6;-2",
"5;*89wwq6@@;::6:*o*779775777#7e585;-%-;yy89*o%o-6;::-55777w8:555",
"5:*;;9i9952695655%%>7y7>5777#7991:;;-;<8e87---%-;;1;-:*%5ar5:96:",
"66;**4889ww86:5e5%%%7y>5775%%%77;278:--787<:*$*-@5:;--OO587::w5:",
":-;-,447eww9e:;e5X%X%%%*75757795-39992;O,>;:%%;:*@;:5>*%*-:58w85",
"27;1y744ew:5w5;775*#X#*5%*5985w5@5ww96:>->77-><>-OO5;;55;,;47ye6",
";7:471>,yw558;557e7$X%7*5%558%5O=;6q9687757u777;5;*5;65-****:75;",
"-;*;;,;;8te95-57yey*$%5555%55*%%;:59ee9878779ww<55*-59;;;*;::::>",
":***478159t7-58878y7%%*555555557588999:>><:7weq455-;56561->777::",
"--**2w6wq6::--587777>--558567-%-6w8967O%%*>692288::;2e8:<>:<y77:",
"7;>;qwq999:**555597-**79775555%-557867%o$%>27:-2;222686;>,;,<>77",
"922:6w98e9:>-665%575>*7755OO%5%5,>-:7->$$-,:97:78;-59;:;;:22::77",
"w8;;;5855:;;:5567555>5>775*O57%%*:-->,,,>>-<we942*O;;@;--77:58:5",
"77;*;27:O---::50557%%>55555X*5##*:-*-*>5<7779998-o%%-;%--55:we2:",
"795%>77:;;;666;5777;-*--5775%55--;-55:77<9e87y99@O%-O->%;969rq6:",
"8;-----::56qw6;-585-;5>-5y55555775:588777788779<*%%;-->-%>:5:59:",
"2225:;*:9699w62;5--%>%->-75975%%55855w5:74wiy796-O;>>-%-%O%%;693",
"55777-**7655ww6555;---5w95-5555-55658t965*5u87;;@-;>%%*%$-%%%>>5",
"55597755555666e6565;77767-55565;5-259ew9,%5>,--*-:>--:7$$$$#%>>>",
"579ei75785;6665;*57ew866955-555175:*:ya6-*>%O:;;;>%769977$$%>-%>",
"5ety7575-;-;695:-:9rw55568-59551-:;--77O%*%O-5::2:<<556ru77>>>>-",
"5777-*57;-*565665665695;5855w:;;-555885X#%$O-682-:9555698y777>-*",
"-5775%-7-**;55:56w6;6e6555%561;1:;55685%X%%---:2;;;5q9ee89777>*o",
"77>7855- *;575:55895we5555O-:55;2@:5555%o*O@OO*:;*%;7ee9877995::",
"77779775%%O;87877855665*-55O-;:**-5;:79-X**OOO-7:%X-797<577995ww",
"778877-*%*O:5589:777775-@5:@;;OXX-2555;@X;5*--;77>%*77>:77797595",
"55785775:--855-;::>->5;--56=;;oOo5w9;@@;@@-:7<><7>-*>:;:7855:885",
"-577*575:-5w75:797%%O;;;1;05=*o;6:1:;+@OoO-7<7<,y7>-,67<:8--*;-:",
"-79775775:::779w685*;w:-65566;O56:;21-:@***;7y<7yip77977>---*-:9",
"-77-5e755:555:>788;55w8555550:;56660612;-,-*<97<y7yy5595-=*:::55",
"77%*-777;*:6577775555:88w6;:w9653666;@1;XO>:77::ye9::52-*-*;85::",
"7%X%7775OO::5-757556558w66:50w6;@;;2112@O-:57:>>7pr::<7>-;:56628",
"->57%--*--:*-:7775;5865560666;;;@:;=11@@O;62<929u7997262:3587269",
"$%-5-;55599-**6888555*O-55-*:*;;-=@@@@@@@;1;:5228:59992;38q9626r",
"**--;5555e6O;5557595-ooO*5- .XoOO=:;+o@=@302;5515::239327q92;713",
"5--5556;-565-5-*5757-XO-*OOoOOoooO*-@o;1=30665;=;865;33-;3q7:;**",
"55w5;O5;;5w5-5555775-O-55-*OOO**@OO*@@-2136365;;-682;-;;268:***=",
"88we65w5565O8ee87>5>-:555555O-5594%*;;;;;2256:-;@;;;=*;326;O*%%-",
"ww6w558w68w575777*%%%-57666556ert9>-;16312509:;;262@;;2;;2;O%%-1",
"966e55-55o55-55->%X%:9w855565;w62285=@50066088::5323--*=@;-Ooo;w",
"55wrw5-*Oo*-;5-5%%>X5ww5--5w95;O-302+@600066757522q5++;;*;:;%o*2",
"55wty55%O*%755*5,O%%*>98;;39e9;*-;*oX@2;;65;:67-6w96:@555::>%::-",
"55995%5-*-%5-577:%$%%-9w65w6569:186=OO;@@555w75;56ww6577687:;::-",
"555OXX%%*-%555555:>%O*:8rew95533w36:*-OX*;59e5%*5wea6;-5598w7--7",
"5*5%XXXXXO%75555:>-->>%8wew::@*=w;@;-;oX*;:76;*59rw8995569:89-*:",
"O-*O%--O##%57557;-;:77-<<yr>$$%&-*%*:,%*55;68-*%5w5;79;7e957:O#>",
"-55*%-5575%>5%55:-%%<:%%$-7-%*,,---><;*;5669w78799559e5;ww7w7$>>",
"--*5%5%577%%%%5%$X  -*$#$$*->y7873::5:1:557777e7>5:ew:O;77yw7%>>",
";-*OX>77yy7>5#% XXO$$%$ $*>7u84q846593:2;755579w85587oo;65777%%5"
};
