/* XPM */
static char *result[] = {
/* columns rows colors chars-per-pixel */
"64 64 198 2 ",
"   c #010100",
".  c #070902",
"X  c #0B0C04",
"o  c #070709",
"O  c #0D0D0D",
"+  c #0E1205",
"@  c #121306",
"#  c #151B07",
"$  c #181807",
"%  c #14150B",
"&  c #161D09",
"*  c #1A1C0A",
"=  c #141414",
"-  c #181818",
";  c #1B1B1B",
":  c #1C240B",
">  c #1F290C",
",  c #1F2511",
"<  c #23240B",
"1  c #232C0D",
"2  c #2A2B0E",
"3  c #26320F",
"4  c #29330F",
"5  c #32310F",
"6  c #2D2E11",
"7  c #25281B",
"8  c #273411",
"9  c #2E3815",
"0  c #333315",
"q  c #333C13",
"w  c #3A3B14",
"e  c #201F20",
"r  c #242424",
"t  c #272728",
"y  c #2D2D2D",
"u  c #2E3124",
"i  c #2F302E",
"p  c #323232",
"a  c #3C3E32",
"s  c #3C3C3C",
"d  c #2F4014",
"f  c #344314",
"g  c #3C4416",
"h  c #354817",
"j  c #3A4A16",
"k  c #3B4D18",
"l  c #3E521A",
"z  c #434316",
"x  c #434518",
"c  c #454A18",
"v  c #4B4C1A",
"b  c #455317",
"n  c #435619",
"m  c #4F511D",
"M  c #455B1C",
"N  c #495D1B",
"B  c #53531C",
"V  c #56581E",
"C  c #595B1E",
"Z  c #46611E",
"A  c #4B641E",
"S  c #4F691F",
"D  c #51661E",
"F  c #536A1F",
"G  c #64641F",
"H  c #494928",
"J  c #4F5123",
"K  c #5D5F22",
"L  c #585A26",
"P  c #605F20",
"I  c #4B6621",
"U  c #4E6A21",
"Y  c #506720",
"T  c #5E6123",
"R  c #536D22",
"E  c #596E21",
"W  c #567224",
"Q  c #5A7524",
"!  c #5D7926",
"~  c #557529",
"^  c #597628",
"/  c #5D7B29",
"(  c #656421",
")  c #676926",
"_  c #6B6B23",
"`  c #686A2B",
"'  c #716F26",
"]  c #657B26",
"[  c #627D26",
"{  c #6E7128",
"}  c #617E29",
"|  c #747226",
" . c #797925",
".. c #73762A",
"X. c #777B2C",
"o. c #7C7C2A",
"O. c #3F3F41",
"+. c #434444",
"@. c #484841",
"#. c #4C4C4D",
"$. c #59594C",
"%. c #545454",
"&. c #565658",
"*. c gray36",
"=. c #696A54",
"-. c #5F5F60",
";. c #636363",
":. c #6B6B6B",
">. c #737373",
",. c #7A7A7A",
"<. c #807F2A",
"1. c #668127",
"2. c #698327",
"3. c #658229",
"4. c #6A8529",
"5. c #6D892A",
"6. c #7E812E",
"7. c #718C2A",
"8. c #75912C",
"9. c #79952D",
"0. c #7A982F",
"q. c #698B31",
"w. c #749430",
"e. c #789431",
"r. c #85842D",
"t. c #8A8A2E",
"y. c #90902F",
"u. c #838730",
"i. c #868931",
"p. c #8A8C32",
"a. c #8D9134",
"s. c #939332",
"d. c #989732",
"f. c #959836",
"g. c #9D9C34",
"h. c #9B9E38",
"j. c #A09F35",
"k. c #9DA23A",
"l. c #A3A236",
"z. c #A4A53A",
"x. c #A5AA3D",
"c. c #AAAB3B",
"v. c #AFB13E",
"b. c #B2B43E",
"n. c #B6B83F",
"m. c #ADB240",
"M. c #B1B641",
"N. c #B5B941",
"B. c #BABC42",
"V. c #BBBF62",
"C. c #BDC245",
"Z. c #C1C546",
"A. c #C4C848",
"S. c #C5CA48",
"D. c #C9CE4A",
"F. c #CDD34C",
"G. c #D1D64D",
"H. c #D5DB4F",
"J. c #D8DE4F",
"K. c #D7DD50",
"L. c #D8DE50",
"P. c #D9DF58",
"I. c #DAE051",
"U. c #CFD362",
"Y. c #DEE36C",
"T. c #E0E56C",
"R. c #E1E67B",
"E. c #E5EA7F",
"W. c #7E7E80",
"Q. c #838384",
"!. c #888885",
"~. c #8B8B8A",
"^. c #9C9D8A",
"/. c #908F90",
"(. c #939393",
"). c #9C9C9C",
"_. c #A6A6A6",
"`. c #ACACAC",
"'. c #AFAFB0",
"]. c #B3B3B4",
"[. c #BCBCBC",
"{. c #E6EA90",
"}. c #C2C3A1",
"|. c #EDEFAC",
" X c #F0F2BC",
".X c #C4C4C4",
"XX c #CBCBCC",
"oX c #D4D4D4",
"OX c #DADADB",
"+X c #F4F5CC",
"@X c #F6F7D8",
"#X c #E4E4E4",
"$X c #E7E7E8",
"%X c #ECECEC",
"&X c #FDFEEE",
"*X c #F3F3F3",
"=X c #FEFFF3",
"-X c #FFFFFF",
/* pixels */
"/ / 1.3.1.5.8.5.5.5.1.Q R ! F W R ~ 2.Q S ! W S W Q Q q.e.5.} [ 4.] 5.2.7.2.] Q W ] 2.4.! [ 4.3.Q U W R S Z S W 4.4.q.4.3.U ~ ~ ",
"[ 1.3.1.Q 1.5.1.! ! 1.[ ! 1.Q Q ! Q ! ! 1.1.R W ~ Q 3.4.7.7.7.4.2.] ] 4.7.7.7.F Y W ] w.4.5.7.! U R R R S Z Z S R Q 1.q.q.~ ~ 3.",
"[ ! ~ / Q [ 2.1.[ [ 5.7.1.[ ! 1.5.[ I M A M k l l M l k N N N N N n N N N N N b l n n R W [ 3.} 1.! Q 3.Q Q Q S S ! ! 3.3.~ ~ ~ ",
"4.! R U E ] 7.7.1.[ 2.7.1.[ ! W g : X .                 .           .     .             X @ : f [ 9.5.8.! 1.! E 1.! 2.! ~ 3.W ^ ",
"[ [ Q F M F ] 7.2.4.5.5.5.Q q +                                         .                       # n 5.5.] ] ] ] [ ! [ R 3.w.3.~ ",
"R ! ! M & A 2.7.7.5.2.1.D :           o O O O O O O O O O O O O O O O O O O O O O O O O .           4 R ] 1.! ! [ 4.[ > k q.1.W ",
"Q [ Q : X D 5.5.2.5.3.n X       O @.~.]..X.X.X.X.X.X.X.X.X.X.X.X.X.X.X.X.X.X.X.X.X.X.X.X'.W.a         & Q 2.Q E [ 2.! + X S 3.W ",
"1.[ q p = f ] 2.5.5.A +       s ].*X-X-X-X-X-X-X-X-X-X-X-X-X-X-X-X-X-X-X-X-X-X-X-X-X-X-X-X-X%X).t       1 ] Q F [ 2.R & = : Q W ",
"2.F 7 :.. : R [ 7.2.1       *.#X-X&X+X X X X X X X X X X X X X X X X X X X X X X X X X X X@X=X-XoXO.      q Q F 2.4.h p O.  k / ",
"[ f &.>.  . A 2.[ n       %.%X=X|.Y.P.K.K.K.K.K.K.K.K.K.K.K.K.K.L.K.K.K.K.K.K.K.K.K.K.K.P.I.R. X-XoXi     X Q 5.7.] % W.#.  1 ^ ",
"[ 1 (.*.    4 [ R :     7 oX@X{.K.K.K.K.K.K.K.K.K.K.K.K.K.K.K.K.K.K.K.K.K.K.K.L.K.K.K.K.K.H.H.P.{.&X'.O     g 5.2.j - }.+.  X E ",
"E 7 [.+.      h n .     W.+XY.J.K.K.K.K.K.K.K.K.K.K.K.K.K.K.K.K.K.K.K.K.K.K.K.L.K.K.K.K.K.K.K.K.H.R.@X%.    $ 5.E X :.#Xy   . N ",
"D 9 oXs       X :     = }.T.J.K.K.K.K.K.K.K.K.K.K.K.K.K.K.K.K.K.K.K.K.K.K.K.L.L.L.L.K.K.K.K.K.K.L.H.E.^.    X M : r OX.XO     d ",
"Q a OXs               u U.H.K.H.L.L.K.K.K.K.K.K.K.K.K.K.K.K.K.K.K.K.K.L.K.K.L.L.F.h.( u.K.K.K.K.J.K.I.V.%     . O _.-X,.      j ",
"] u oX+.              w G.L.N.v ) m.K.I.L.K.K.K.K.K.K.K.K.K.K.L.K.K.K.L.I.K.B.6.0 X   @ m.K.K.K.K.K.L.Z.<     X ~.-XOXt       b ",
"W 7 [.%.              v K.K.T     $ v h.F.L.L.K.K.K.K.K.K.K.K.K.K.L.I.F.x.K :           f.I.K.K.K.K.H.F.6     *.-X*X;.        M ",
"[ 8 /.>.              ) L.K.x         X w i.Z.P.P.H.L.K.K.K.K.L.L.Z.p.g X           2 | D.J.K.K.K.K.K.G.w     ;.*X,..       @ Q ",
"] k +.Q.              ..L.K.c.L $           < { m.K.J.K.K.I.F.m.` <           X x p.Z.L.L.K.K.K.K.K.K.H.m     r %..         4 [ ",
"5.] , -.=             a.I.K.L.K.N.{ 2           $ K S.L.L.N.v @           < ( m.G.I.L.K.K.K.K.K.K.K.K.L.T                   N } ",
"] Q f = O           . k.L.K.K.K.I.K.A.i.w X       X x.I.I.{         O w i.Z.L.L.L.L.K.K.K.K.K.K.K.K.K.I.X.                9 4.3.",
"[ [ W 1             X m.L.K.K.K.K.K.I.I.F.k.V @   6 S.L.L.h.X   * v ..p.h.N.F.K.L.K.K.K.K.K.K.K.K.K.K.I.a.              # W e.4.",
"Q 3.[ R :           $ B.L.K.K.K.I.A.i.C L X.x.v.o.x.L.K.L.F.i.X.) 4 X     @ x f.F.K.K.K.K.K.K.K.K.K.K.I.h..           X M 3.] Q ",
"R Q W Q R 1         6 D.L.K.K.L.h.6 r p t o + ( A.L.K.K.K.L.G.K % s >.W.*.e   X ( Z.K.K.K.K.K.K.K.K.K.L.m.@         $ I ! ! [ Q ",
"Q W U R } [ b X     w G.K.K.L.x.u Q.OX*X$X`.p   V C.K.K.K.K._ r _.*X-X-X-XoX*.  X ' Z.K.K.K.K.K.K.K.K.I.C.:     . 8 I 3.3.} / / ",
"~ W R R ] 7.2.<     v H.L.L.G.J ).-X-X-X-X-XXXr X t.D.L.L.M.7 ].-X-X-X-X-X-X%X&.  2 g.D.L.K.K.K.K.K.K.K.S.2     3 W ! ! 5.3.3.~ ",
"3.Q ~ Q 4.7.2.*     ) K.L.L.v.$.*X#X[.#X-X-X-X!.  C N.K.P.' ;.-X-X#X*X-X-X-X-X.XO . | N.K.K.K.K.K.K.K.K.F.w     1 Q ~ ! / ~ 1.3.",
"5.[ [ ! 5.7.1.#     B Z.L.L.f.!.#Xs O ~.-X-X-X[.o z c.G.K.L `.*XW.t s XX-X-X-X*Xs . P c.G.K.K.K.K.F.K.K.K.m     > Q } } ! ! 3.4.",
"7.2.Q Q Q 1.F .     x f.K.L.k./.].  r ].-X-X-X[.X v z.G.H.L XX[.o   ;.$X-X-X-X-X%.. C l.D.K.K.K.x.u.C.K.K.(     # / 1.! 3.4./ 1.",
"3.3.Q R Q 1.S .     B p.G.L.B.=.XXy   +.%X-X-X!.  ' c.F.J.( ]._.  o ;.].-X-X-X*X+.  _ l.S.L.P.F.r.' h.K.I...    + Q 1.! 7.7.[ ! ",
"3.5.1.U W 3.M     X K z.D.S.H.{ ).oX'.OX-X-XoXr < y.v.H.L.p.>.#Xs   . Q.-X-X-XXX- X r.l.D.L.K.F.r.' h.K.I.a.    X Q 2.5.9.7.2.! ",
"2.Q Q R W ~ d     $ z.C.r.o.m.N.J /.#X*X$X'.p $ <.j.Z.J.L.C.H .X#X_.[.*X-X-X*X;.. z g.c.G.K.G.K.c.r.B.L.I.k.X     N ! 1.! 1.5.[ ",
"1.! 1.1./ W 8     < D.z.' | r.D.x.B a H p * w r.j.b.H.K.L.K.<.a [.-X-X-X-X#X>.. < t.j.B.F.d.t.N.K.G.L.L.I.v.X     h R R W 2.5.[ ",
"/ ! 3.4./ ! 3     w G.h.' ' <.F.J.n.s. .| r.g.z.N.G.K.K.L.L.S.| 0 &.!.(.>.y . 5 r.j.c.G.c.| ' t.G.K.K.K.I.C.:     f R U U W ~ ! ",
"5.1.1.5.5.1.:     v K.N...' h.K.J.J.S.B.b.b.B.D.H.K.K.K.L.L.L.Z.y.V 5 < < w _ s.j.c.S.J.l.| | <.D.K.K.K.L.D.6     8 U U U ~ ~ / ",
"3.4.5.8.8.! #     ( L.K.N.c.D.L.L.L.J.K.J.H.K.K.J.L.K.K.K.K.K.K.S.c.g.d.d.j.j.j.c.F.K.L.b.| ' p.G.K.K.K.K.F.w     : U U ~ ~ U / ",
"3.5.0.8.3.W +     X.L.K.K.K.L.K.K.K.L.I.I.J.K.K.J.L.K.L.L.L.K.K.L.K.S.B.n.b.B.S.H.L.K.K.F.l.p.Z.P.K.K.K.K.K.v     : ^ ~ / ~ ~ U ",
"^ 3.3.3.! Z X     p.I.P.K.K.K.K.K.K.M...C C C C K K K K K K K K C C L ( a.D.L.L.K.K.K.K.K.K.H.L.K.K.K.K.K.L.)     : ^ / / W W R ",
"! / / 3.[ l     . h.L.K.K.K.K.K.K.i.$   +.&.&.%.;             O.&.%.%.- . z Z.L.K.K.K.K.K.K.K.K.K.K.K.K.L.L...    + Q 4.3.Q U I ",
"2./ / q.5.n     X z.I.K.K.K.L.I.k.@   O [.-X-X-X&.          O [.-X-X-X#.    m G.L.K.K.K.K.K.K.K.K.K.K.K.K.L.<..   X W 5.4.3.! ! ",
"1.3.3.3.7.n     @ d.S.L.K.L.L.G.c       ;.oXoX].r             :.oXoX`.;   . o h.L.K.K.K.K.K.K.K.K.K.K.K.K.A.o.      S 5.5.[ 7.8.",
"1.4.4.4.3.d     $ s.c.A.H.J.L.B.$         = - O                 = - O         ) L.K.K.K.K.K.K.K.K.K.L.K.C.l.<.X     N 5.3.3.5.[ ",
"! 1.3.4.3.d     $ y.j.l.n.F.J.x.X                                             m K.L.L.L.J.J.L.J.K.K.D.b.j.j.<..     M 3.! 4.5.3.",
"1.! 5.3.! f     X r.l.j.j.c.b.f.X                                             m F.F.F.F.F.F.F.S.C.v.l.j.j.j._ .   . M W R W R ! ",
"Q 1.5.2.1.S .     G l.j.j.j.j.y.$         o       o       .         .         V l.l.l.l.l.l.l.l.j.j.j.j.j.j.z     + U Q R R ! 7.",
"! [ [ ~ ! 4.#     2 g.j.j.j.j.j.z     = /.[.,.= ,.].).; &.].`.i s `.].#.    X <.l.l.j.j.j.j.j.j.j.j.j.j.j.t.$     < Y ! [ ! 3.[ ",
"/ ~ W R ! 5.j       ( l.j.j.j.j.r.*   s #X*XoXs .X*X$X@.).*X%X>.>.*X*X).    B g.l.g.j.j.j.j.j.j.j.j.j.j.j.c       k W ! 4.2.[ [ ",
"[ ! I W / 3.W +     $ o.l.j.j.j.l.o.2 = y y y O t i y % r i y - ; y i r $ B d.j.g.j.j.j.j.j.j.j.j.j.j.j._ .     : W ! [ 4.4.[ 4.",
"~ W ! ! W ~ Q f       * | j.l.j.j.j.d. .( G G _ G G ( _ G G G _ ( G ( _ r.j.l.j.l.g.j.j.j.j.j.j.j.j.j.G X     X N } [ 4.2.] [ 5.",
"S S Q Q E ! ! 1.4       X v t.g.l.l.l.l.l.l.l.l.l.l.l.z.l.l.l.l.z.z.l.l.l.l.l.l.l.l.l.l.l.l.l.l.j.<.w X       f [ 5.5.7.2.] 5.7.",
"W R Q W Q 2.2.1.Q 3         @ w V ( ( G _ ( ( ( _ ( G _ ( ( _ ( G ( ( ( _ ( ( ( ( ( ( ( ( ( P B 6 X   .     f Q ] 7.7.! Q [ [ 4.",
"} Q Q [ Q 5.2.Q Q Q f X                                         .                                       X g [ Q [ ] 7.1.! ! R R ",
"[ [ 7.1.Q E Q Q Q 1.7.b :                                                                             1 N R Q Q [ ] 2.[ R Y R F ",
"5.5.7.8.4.] 5.1.! 2.2.E [ F f : + X .               X X X + + + + X X X X X .               X + : 9 N E Q R ! [ ! 2.Q S R I I ! ",
"7.7.2.7.[ ] 5.5.5.5.7.1.2.3.2.[ U I d             f Q F S E ] 1.2.Q I N A F N             1 F S ! 2.] E Q W [ Q Q [ Q S S Y Q Q ",
"7.5.5.7.1.[ ! 1.! D ! ! ] [ [ W ~ U M X         X A [ 5.[ [ 8.5.2.[ 4.} E F ] :           M 1.! ] ] 1.] Q W F W R W Q S A A Q 7.",
"[ [ 7.8.8.1.Q W S S R Q Q [ Q Q U R U 8         1 R 1.9.7.] E F Q ] 5.] D S 2.b         : Q 2.! ] 1.5.] D D ! E W Q Q ! U U F Q ",
"! 1.7.9.5.1.3.U S Q R / ! [ Q 1.W U I Z : .   : S Q [ 5.9.4.Q R R ] F S N F [ F 1 .   + A 2.4.Q 2.7.7.1.W R 1.1.] [ ! W U ! ! W ",
"1.1.5.4.1.~ W W S W ~ 1.! 1.5.2.1.U I U Z h l 1.4.2.7.1.2.2.7.[ [ 2.2.F S U Q W S l k W 7.3./ ^ 1.2.5.7.1.1.1.1.1.5.2.! W / ! W ",
"2.1.1.W Z Z S U W R R ~ 1.1.[ 1.3.W W W Z U ! 3.9.7.7.5.[ 2.] ] 7.] 1.! R R U Z S 1.1.7.8.! R W 1.8.9.9.5.Q 1.1.! 5.2.8.3.W Q 1.",
"1.Q 1.U Z Z Z Z Z I U / 4.1.! 1.1.W W W ^ ~ W 4.8.7.7.[ Q F R W 7.Q F Q W W A A R Q Q 3.2.Q W / 5.9.7.4.5.5.Q 1.5.5.! 2.q.W R ! ",
"S W U S S W W Q U U U 3.5.1.1.1.Q W W ^ 3.1.W / } 4.w.^ I I Y Y W R I R / ^ Y Q 1.1.Q 2.4.W W U 1.7.1.! 4.5.Q 3.8.4.1.3.! Z I W ",
"W 1.~ W S W 1.Q ~ ~ U W W Q 3.1./ W U R / / U U I R 3.~ Y R ^ ^ R ! W W / W R Q 1.2.2.5.5.3.4.1.4.5.! 1.5.8.1.W 7.7.3.8.1.S ~ ~ ",
"Q E Q Q S 1.W ~ 3.3.W U I U Q R I Z l M W U I I I I R ~ ^ q.} 2.3.} [ ^ [ Q Q [ 1.1.3.3.3.4.8.3.^ 1.1.8.5.! S W 3.3.q.7.3.U ~ 3.",
"Q W W W S ~ 3.4.w.5.3.~ ~ U U Z I Z R I I U I M I R ~ 3.q.4.} 7.5.} 2.2.7.2.Q ! ! 3.3.1.! 1.q.7.4.1.3.3.1.S S Q 3.1.3.3.3.U U ~ "
};
