/* XPM */
static char *result[] = {
/* columns rows colors chars-per-pixel */
"64 64 196 2 ",
"   c #010100",
".  c #070902",
"X  c #0B0C04",
"o  c #070709",
"O  c #0D0D0D",
"+  c #0E1205",
"@  c #121306",
"#  c #151B07",
"$  c #181807",
"%  c #14150B",
"&  c #161D09",
"*  c #1A1C0A",
"=  c #141414",
"-  c #181818",
";  c #1B1B1B",
":  c #1C240B",
">  c #1F290C",
",  c #1F2511",
"<  c #23240B",
"1  c #232C0D",
"2  c #2A2B0E",
"3  c #26320F",
"4  c #29330F",
"5  c #32310F",
"6  c #2D2E11",
"7  c #25281B",
"8  c #273411",
"9  c #2E3815",
"0  c #333315",
"q  c #333C13",
"w  c #3A3B14",
"e  c #201F20",
"r  c #242424",
"t  c #272728",
"y  c #2D2D2D",
"u  c #2E3124",
"i  c #2F302E",
"p  c #34352C",
"a  c #323232",
"s  c #3C3E32",
"d  c #3C3C3C",
"f  c #2F4014",
"g  c #344314",
"h  c #3C4416",
"j  c #354817",
"k  c #3A4A16",
"l  c #3B4D18",
"z  c #3E521A",
"x  c #434316",
"c  c #434518",
"v  c #454A18",
"b  c #4B4C1A",
"n  c #455317",
"m  c #435619",
"M  c #4F511D",
"N  c #455B1C",
"B  c #495D1B",
"V  c #53531C",
"C  c #56581E",
"Z  c #595B1E",
"A  c #46611E",
"S  c #4B641E",
"D  c #4F691F",
"F  c #51661E",
"G  c #536A1F",
"H  c #64641F",
"J  c #494928",
"K  c #4F5123",
"L  c #5D5F22",
"P  c #585A26",
"I  c #605F20",
"U  c #4B6621",
"Y  c #4E6A21",
"T  c #506720",
"R  c #5E6123",
"E  c #536D22",
"W  c #596E21",
"Q  c #567224",
"!  c #5A7524",
"~  c #5D7926",
"^  c #557529",
"/  c #597628",
"(  c #5D7B29",
")  c #656421",
"_  c #676926",
"`  c #6B6B23",
"'  c #716F26",
"]  c #657B26",
"[  c #627D26",
"{  c #6E7128",
"}  c #617E29",
"|  c #747226",
" . c #797925",
".. c #73762A",
"X. c #777B2C",
"o. c #7C7C2A",
"O. c #3F3F41",
"+. c #434444",
"@. c #484841",
"#. c #4C4C4D",
"$. c #59594C",
"%. c #545454",
"&. c #565658",
"*. c gray36",
"=. c #696A54",
"-. c #636363",
";. c #6B6B6B",
":. c #737373",
">. c #7A7A7A",
",. c #807F2A",
"<. c #668127",
"1. c #698327",
"2. c #658229",
"3. c #6A8529",
"4. c #6D892A",
"5. c #7E812E",
"6. c #718C2A",
"7. c #75912C",
"8. c #79952D",
"9. c #7A982F",
"0. c #698B31",
"q. c #749430",
"w. c #789431",
"e. c #85842D",
"r. c #8A8A2E",
"t. c #90902F",
"y. c #838730",
"u. c #868931",
"i. c #8A8C32",
"p. c #8D9134",
"a. c #939332",
"s. c #989732",
"d. c #959836",
"f. c #9D9C34",
"g. c #9B9E38",
"h. c #A09F35",
"j. c #9DA23A",
"k. c #A3A236",
"l. c #A4A53A",
"z. c #A5AA3D",
"x. c #AAAB3B",
"c. c #AFB13E",
"v. c #B2B43E",
"b. c #B6B83F",
"n. c #ADB240",
"m. c #B1B641",
"M. c #B5B941",
"N. c #BABC42",
"B. c #BBBF62",
"V. c #BDC245",
"C. c #C1C546",
"Z. c #C4C848",
"A. c #C5CA48",
"S. c #C9CE4A",
"D. c #CDD34C",
"F. c #D1D64D",
"G. c #D5DB4F",
"H. c #D8DE4F",
"J. c #D7DD50",
"K. c #D8DE50",
"L. c #D9DF58",
"P. c #DAE051",
"I. c #CFD362",
"U. c #DEE36C",
"Y. c #E0E56C",
"T. c #E1E67B",
"R. c #7E7E80",
"E. c #838384",
"W. c #888885",
"Q. c #8B8B8A",
"!. c #9C9D8A",
"~. c #908F90",
"^. c #939393",
"/. c #9C9C9C",
"(. c #A6A6A6",
"). c #ACACAC",
"_. c #AFAFB0",
"`. c #B3B3B4",
"'. c #BCBCBC",
"]. c #E6EA90",
"[. c #C2C3A1",
"{. c #EDEFAC",
"}. c #F0F2BC",
"|. c #C4C4C4",
" X c #CBCBCC",
".X c #D4D4D4",
"XX c #DADADB",
"oX c #F4F5CC",
"OX c #F6F7D8",
"+X c #E4E4E4",
"@X c #E7E7E8",
"#X c #ECECEC",
"$X c #FDFEEE",
"%X c #F3F3F3",
"&X c #FEFFF3",
"*X c #FFFFFF",
/* pixels */
"( Q E ( 3.4.3.1.Q U U U Y / D Q [ 3.<.! 2.3.] Q Q [ 1.6.3.1.] 1.] [ 6.w.4.^ ^ E Y Q ~ Y ! <.! E Q G ~ Q Q <.4.4.4.8.3.1.<.2.( ~ ",
"( ( ^ 0.0.2.^ Q D S N Y Y Q Y D ~ 6.4.4.q.[ ! Y G 6.6.6.6.] [ 1.1.6.6.6.3.2.( ! E E <.<.~ [ Q ~ ! ! [ ~ [ 1.~ [ <.1.1.~ <.2.2.~ ",
"^ ^ ^ 2.( } ~ F S ! ! ~ <.~ ~ 2.[ 2.[ Q E m m l n B B B B N m N n N N N l z m z l l N B N S [ 4.<.~ ~ <.6.3.[ [ <.1.[ Q ~ ^ ~ <.",
"/ ^ ( ^ ~ 1.[ [ ! ~ <.~ 7.4.8.2.k : @ .           .   .   .   . . . .     .       .   . . X : k W ~ <.<.6.1.[ <.7.4.[ Q G E ~ 2.",
"/ 2.q.2.E [ ~ [ ] ~ 1.1.4.1.N #                                                                 + q ~ 4.4.4.1.1.6.] E n F ! [ [ ",
"Q ~ 4.z 1 [ 1.[ ! ] [ [ E 3           o O O O O O O O O O O O O O O O O O O O O O O O O o           : F <.1.6.6.6.3.F # N ~ ~ Q ",
"Q 3.E . @ ~ 1.[ W ~ 3.! &       o d >._.|.|.|.|.|.|.|.|.|.|.|.|.|.|.|.|.|.|.|.|.|.|.|.|.`.Q.@.O       X m <.4.1.3.6.S . : ! ~ ! ",
"Q ! : = = E <.[ F ! [ 1       t /.#X*X*X*X*X*X*X*X*X*X*X*X*X*X*X*X*X*X*X*X*X*X*X*X*X*X*X*X*X%X`.d       + S 3.4.1.[ g = s q [ <.",
"~ l   d p k 3.1.G W g       d .X*X&XoX}.}.}.}.}.}.}.}.}.}.}.}.}.}.}.}.}.}.}.}.}.}.}.}.}.}.oX$X*X+X*.      > <.7.[ G :   ;.7 E 1.",
"/ 1   #.:.* 1.6.6.W X     i .X*X}.T.P.L.J.J.J.J.J.J.J.J.J.J.J.J.K.J.J.J.J.J.J.J.G.K.J.J.G.L.U.{.&X#X%.    . m [ 1.F .   :.&.k [ ",
"W +   +.|.- k 1.6.k     O _.$X].L.G.J.J.J.J.J.J.J.J.J.J.J.J.J.J.J.J.J.J.J.J.J.J.J.J.J.J.J.J.G.J.T.$X.X7     : E [ 4     *.^.< [ ",
"N .   t +X;.X G 1.*     %.OXT.H.J.J.J.J.J.J.J.J.J.J.J.J.J.J.J.J.J.J.J.J.J.J.J.J.J.J.J.J.J.J.K.J.G.U.OXR.    . m k       +.'.< Q ",
"q     O |.XXt : N o     !.].G.H.J.J.J.J.K.J.P.K.J.K.K.J.J.J.J.J.J.J.J.J.J.J.J.J.J.J.J.J.J.J.J.J.H.H.Y.[.=     : X       O..Xu E ",
"k       >.*X(.O .     % B.J.G.H.J.J.J.J.y.R j.D.K.K.J.J.J.J.J.J.J.J.J.J.J.J.J.J.J.J.J.J.J.J.K.J.F.H.H.I.u               d XXs ! ",
"n       t XX*XW.o     < C.H.H.G.J.J.P.n.@   X 0 5.V.J.K.K.J.J.J.J.J.J.J.J.J.J.K.J.J.J.K.K.J.n._ b M.H.F.w               +..Xu ] ",
"N .       -.%X*X*.    2 D.H.G.H.J.J.P.d.          * L z.F.K.K.J.J.J.J.J.J.J.J.J.J.K.P.D.g.V @     F H.H.b               #.'.7 W ",
"! @       o >.%X-.    w D.K.J.J.J.J.K.D.{ 1           X h u.C.K.P.K.J.J.K.H.K.K.P.V.e.w X         c F.K._               ;.~.8 } ",
"[ 4         . %.r     M G.J.J.J.J.J.J.K.J.Z.i.c X         o < _ n.F.K.J.J.K.G.m.{ < .         * C m.K.K...              W.+.l 1.",
"[ B X                 L K.J.J.J.J.J.J.J.J.K.P.F.z.) <           + b M.P.K.A.L %           6 { M.G.K.J.K.i.            = *., ] 3.",
"} 1.9                 X.P.J.J.J.J.J.J.J.J.K.K.K.P.L.V.u.w +         { P.K.z.X       X w u.C.K.P.K.K.K.P.j..           O = k Q ] ",
"1.q./ @               p.K.J.J.J.J.J.J.J.J.J.J.K.K.F.M.g.i. .b :   X d.P.K.A.6   % K j.D.K.P.K.J.J.J.J.K.m.+             1 E [ [ ",
"! 1.2.N X           . g.K.J.J.J.J.J.J.J.J.J.K.D.a.c @     X 2 _ X.u.D.K.J.K.z.X.n.n.o.K L u.C.K.J.J.J.K.N.$           1 ! ~ 1./ ",
"! ( ( ~ B #         @ m.K.K.J.J.J.J.J.J.J.J.C.) X   e *.>.:.O.O L D.P.J.J.J.K.Z.) + o t a r 6 g.K.J.J.K.S.6         1 E ! E ! E ",
"~ / 2.2.2.U 8 .     * C.K.K.J.J.J.J.J.J.J.C.| .   *..X*X*X*X%X(.r { J.J.H.H.V.C   a ).@X%XXXW.7 z.K.J.J.F.w     X n } } E E E ~ ",
"/ } 2.0.( ~ ^ 3     2 A.K.J.J.J.J.J.J.J.S.f.2   %.%X*X*X*X*X*X*X`.7 n.J.J.S.r.X t  X*X*X*X*X*X/.K D.K.K.J.v     : 1.6.[ W E Q Q ",
"3.2.^ ( ~ ! ^ 1     w F.J.J.K.J.J.J.J.J.b. .  = |.*X*X*X*X%X+X*X*X-...K.J.M.Z   W.*X*X*X+X'.+X%X$.v.K.K.K.)     & 1.6.3.! ! ~ <.",
"3.<./ [ ~ <.! :     M J.J.J.F.F.K.G.J.F.x.I   O.%X*X*X*X Xd t R.*X).P J.F.x.x o '.*X*X*XW.O d +XW.d.P.K.C.K     # <.6.3.~ [ [ 4.",
"[ [ 1.1.~ <.[ #     R J.L.N.e.z.J.K.G.S.k.Z   %.*X*X*X*X@X-.  X `. XP J.F.l.M o '.*X*X%X`.t   `.Q.j.K.G.a.b     . W 1.! ! ! 3.4.",
"~ [ 7.6.[ [ ! @     ..P.J.g.' e.D.K.K.A.k.`   +.%X*X*X*X`.-.o   (.`.) H.F.x.H . W.*X*X@X+.  a  X=.V.P.G.i.M     . D <.! E ! 2.2.",
"~ 2.6.7.6.1.Q X     p.P.K.g.' e.D.K.K.S.k.e.@ -  X*X*X*XE.o   d +X:.i.P.G.c.t.< r .X*X*XXX_..X/.{ G.C.S.l.I X   . z 2.Q Y <.4.2.",
"~ 4.<.~ [ ~ N .   . l.K.K.V.e.x.J.F.J.F.x.h.x   -.%X*X*X%X'.(.+X|.J V.H.H.C.h.,.$ a _.@X%X+XQ.K M.n.o.e.V.l.%     q ^ Q Q ! ~ 1.",
"<.4.1.Q G Q j     X n.K.K.K.F.J.N.e.d.D.N.h.r.< o :.+X*X*X*X*X'.s ,.G.H.H.G.v.h.e.w * a @.s C x.D.e.' ' l.S.1     8 Q ~ <.<.~ [ ",
"( ! ^ Y U E g     * C.K.J.J.K.F.r.' | x.F.x.k.e.5   y :.^.W.&.0 | S.K.J.J.J.F.M.k.f.r.|  .t.N.G.D.e.' | g.F.w     1 / } 3.<.~ <.",
"^ Q ^ Y Y U 8     2 S.J.J.J.H.S.o.| ' l.H.S.k.h.s.` w < < 5 Z t.C.J.J.J.J.J.K.G.S.N.v.v.N.D.G.K.G.s.{  .M.J.b     > 2.4.4.[ <.4.",
"~ Y ^ ^ Y Y >     w F.J.J.J.J.F.i.| | v.H.J.S.v.h.h.h.s.d.h.x.A.J.J.J.J.J.J.J.J.K.J.G.G.G.H.H.J.K.S.z.m.G.K.R     # ~ 7.7.4.2.2.",
"E ^ / / ^ / :     b J.J.J.J.J.H.V.p.g.F.H.J.K.F.A.N.v.b.N.A.G.P.K.K.K.K.K.H.K.K.J.J.J.J.P.P.G.K.J.J.J.J.K.K.X.    + Q 2.7.9.7.~ ",
"Q Q Q ( ( ~ &     _ K.J.J.J.J.J.J.J.J.J.J.J.J.J.H.K.S.a.) P C C L L L L I L L L C Z Z L ..m.J.J.J.J.J.K.J.K.i.o   . A ~ 2.2.2./ ",
"U Y ~ 2.3./ +     ..K.J.J.J.J.J.J.J.J.J.J.J.K.J.H.C.c   - %.&.&.O.            ; %.%.%.+.  % u.J.J.J.J.J.K.K.h..   . z ~ 2.( ( ( ",
"~ [ 2.2.4.W X     o.K.K.J.J.J.J.J.J.J.J.J.J.K.H.F.b     #.*X*X*X'.O           *.*X*X*X|.O   @ l.K.J.J.J.K.K.z.X     N 4.3.2./ 2.",
"7.4.2.4.4.S o   . o.Z.J.J.J.J.J.J.J.J.J.J.J.H.L.j.X     ; _..X.X;.            e `..X.X-.      c F.K.J.J.K.S.a.@     z 7.2.2.2.2.",
"<.4.<.2.4.B .   X ,.k.C.G.H.J.J.J.J.K.K.J.J.J.K._         o - =                 O = =         * N.K.H.H.Z.x.t.*     g 2.2.3.3.2.",
"<.3.3.~ <.N     . ,.h.h.v.S.G.H.J.J.K.K.K.K.K.J.V                                             X x.K.D.b.h.h.t.#     g } 3.2.[ [ ",
"~ Q ! E E N .     ' h.h.h.h.v.V.S.D.D.D.D.D.D.D.M                                             X d.M.x.h.h.h.e.X     j ~ 2.4.[ [ ",
"4.~ E E / U +     x h.h.h.h.h.h.h.h.h.l.k.k.k.k.C         o         o       o       o         $ t.h.h.h.h.k.)     . S [ 2.4.[ ] ",
"[ [ } ~ ~ E >     $ r.h.h.h.h.h.h.h.h.h.h.h.h.h.,.X     #.`.).a a (.`.&.; /.`.:.= R.`.^.=     x h.h.h.h.h.s.2     & 3.~ Q [ [ ~ ",
"[ [ <.3.! Q z       b h.h.h.h.h.h.h.h.h.h.h.h.h.h.V     /.%X%X>.:.%X%X/.#.+X%X Xd .X%X+X+.  * r.h.h.h.h.k.) .     k 4.~ E Q ~ ( ",
"3.[ 1.3.] / ! &     X ) h.h.h.h.h.h.h.h.h.h.h.h.h.s.V @ r p i ; - i i 7 O y y t O y y y % 2 o.h.h.h.h.h.o.@     + Q 2./ Q Y ~ ( ",
"3.1.] 3.3.1.[ N .     @ ) h.h.h.h.h.h.h.h.h.h.h.h.h.h.e.` H H ` ) H H H ` H H H ` ) H H  .a.h.h.h.h.h.| *     . g ! Q Q ~ ~ ^ ! ",
"8.1.] ] 4.6.1.[ g       . w ,.f.f.k.k.k.k.k.k.k.k.k.k.k.k.l.l.k.k.k.k.k.l.l.k.k.k.k.k.k.k.k.k.k.h.r.b X       4 <.~ ! Q ! ! D S ",
"2.} 1./ [ 1.6.1.! g .       X 5 V ) ) ) H ) ) ) ) ) ) H ) ) H H ` ) ) ` H ) ) ) ) ` ) ) ) ) H C w @         1 ! <.3.3.! ! W G Q ",
"E E / ] 1.6.[ ~ ! ] k X                                                                                 . g ! ! ! 1.1.[ [ ! ! 2.",
"G F E E ~ 1.1.[ ] Q G m 1 .                                                                         . : n 6.<.! ! ! Q ! 2.6.[ [ ",
"! F U E D ! 1.[ [ ~ G Q Q m q & @ X               . X X . X X + X X X X X + .             . . + : q G [ Q 1.1.[ <.6.[ 3.7.6.4.4.",
"~ Q Y D D ! ~ ! / ~ ! ] W [ 1.[ S F 1           . N F S S S / 1.1.[ ! T G ! g           . f A E [ 1.1.<.1.6.4.1.6.3.[ [ 6.<.6.6.",
"6.! S A Y W ! E E Q G ! [ ] [ [ [ [ N           < ] G Q <.3.[ 1.3.8.] [ 3.[ S .         + A Y ^ ! [ [ ~ [ ~ G ~ <.[ [ <.7.3.3.6.",
"[ F U Q ~ ! ! E ! ! G F ] 6.] [ [ 1./ &         n 1.F F ] 3.[ W G Q [ 6.8.<.E 1         8 E Y Y ! ! [ ! ! G D D G Q [ 8.8.6.<.[ ",
"E ~ ~ Y Q ~ ~ <.] ] Q ! ] 6.6.1.~ <.3.S +   . > G [ E N S G ] E G ! 4.8.4.<.! S # . . : A Y Y Q <.! ~ <.2.Y Q Y Q ~ ~ 4.9.6.<.~ ",
"E ~ 2.Q ~ 2.3.<.3.3.[ 1.6.6.1.] ~ ~ 3.4.E z m G Q Q Y Y E 1.1.[ ] 6.1.<.<.6.1.1.<.z f A Y A D ~ 3.<.<.~ ~ ! ^ Y Q ! / 2.4.4.<.[ ",
"<.Q ! 2.6.3.4.<.[ ~ / 3.8.8.8.1.^ Y ~ 6.6.2.~ G A F Q E [ 1.] 6.[ <.<.<.4.6.6.8.2.2.Y A E / ~ 2.<.<.2.2.Q E Y ^ Y U U A W 1.<.1.",
"2.E / 3.3.~ 4.3.[ [ 4.4.1.6.8.3.~ ^ ! 4.<.~ ! G S S Q Q ! F ! 6.W G G ~ ~ 6.7.7.4.Y ^ ^ ^ Y Q 2.<.~ 2.2.2.Y Y A A U A A D ! ! <.",
"Y U U 2.<.~ 4.7.2./ 4.4.~ [ 6.2.Y Q ! 2.1.~ <.[ Q D ! ( E U E / E E U U ^ 9.0.~ <.Y 2.2.^ Q Q ^ <.<.<.3.2.Y Y D ! ! ! D D E ! E ",
"^ ^ A 2.7.4.6.4.! 2.7.4.[ [ 4.4.2.2.2.4.4.1.3.<.! E ! ( / W ! E ! / E U ! <.Y U Y Y <.2.E Y E <.<.<.Q Q Q Y ^ ^ ~ ~ ! G W ! 2.Q ",
"2.^ Y 2.7.4.<.<.E D / 4.7.~ <.~ <.7.4.2.1.1.[ <.~ ] / ] } } } } 2.} 0.^ Q E U U A Y Q E A N A Y E ^ Y D Y ^ 2.2.Q Q ~ G ! ! Y / ",
"^ Y U 2.<.3.2.1.! D Y 2.3.2.<.3.7.4.~ ~ [ 1.1.! ~ ! 1.6.] 1.[ 4.6.} 3.0.2.^ Y U A A Y D A Y A A A D Y ^ ~ 2.4.q.2.~ ~ S Q Q W ~ "
};
