/* XPM */
static char *result[] = {
/* columns rows colors chars-per-pixel */
"64 64 193 2 ",
"   c #010101",
".  c #070802",
"X  c #0A0B03",
"o  c #070708",
"O  c #0D0D0C",
"+  c #0D1205",
"@  c #121506",
"#  c #141907",
"$  c #16170A",
"%  c #161B08",
"&  c #1B1C09",
"*  c #131313",
"=  c #1C1C13",
"-  c #1B1B1B",
";  c #1A2107",
":  c #1B230B",
">  c #1F280C",
",  c #1C2014",
"<  c #22230B",
"1  c #242B0D",
"2  c #2B2B0E",
"3  c #26310F",
"4  c #29340F",
"5  c #31300E",
"6  c #2D2E10",
"7  c #262A18",
"8  c #2B3410",
"9  c #293117",
"0  c #2D3B12",
"q  c #333412",
"w  c #323C12",
"e  c #3A3B14",
"r  c #222223",
"t  c #282729",
"y  c #2B2B2C",
"u  c #333528",
"i  c #343334",
"p  c #393B33",
"a  c #3A3A3B",
"s  c #354514",
"d  c #3F4117",
"f  c #374A17",
"g  c #3B4B16",
"h  c #3A4D18",
"j  c #3D521A",
"k  c #464614",
"l  c #494916",
"z  c #434518",
"x  c #474818",
"c  c #4C4C1A",
"v  c #425117",
"b  c #41551A",
"n  c #455B1C",
"m  c #4A5D1B",
"M  c #53541D",
"N  c #56591E",
"B  c #5C5B1E",
"V  c #46611E",
"C  c #4C641E",
"Z  c #4F691F",
"A  c #52661E",
"S  c #536A1F",
"D  c #60601F",
"F  c #44442F",
"G  c #4F5023",
"H  c #575920",
"J  c #5A5D22",
"K  c #484833",
"L  c #615F20",
"P  c #4B6621",
"I  c #4E6A22",
"U  c #516721",
"Y  c #5E6122",
"T  c #526D22",
"R  c #596E22",
"E  c #567224",
"W  c #5A7524",
"Q  c #5E7926",
"!  c #557529",
"~  c #597629",
"^  c #5D7B29",
"/  c #646522",
"(  c #666926",
")  c #6A6B24",
"_  c #64652E",
"`  c #706F25",
"'  c #627D26",
"]  c #687825",
"[  c #6E7129",
"{  c #617E29",
"}  c #737126",
"|  c #737529",
" . c #787728",
".. c #777829",
"X. c #7B7C2B",
"o. c #444444",
"O. c #484842",
"+. c #474749",
"@. c #4C4C4C",
"#. c #56564F",
"$. c #525253",
"%. c #575759",
"&. c #5B5B5C",
"*. c #656565",
"=. c #6B6B6C",
"-. c #727262",
";. c #737374",
":. c #7B7B7B",
">. c #807F2B",
",. c #668127",
"<. c #698327",
"1. c #658229",
"2. c #6A8529",
"3. c #6D8A2A",
"4. c #7E822E",
"5. c #728D2A",
"6. c #75912C",
"7. c #79952D",
"8. c #7A982F",
"9. c #698B31",
"0. c #769530",
"q. c #83832C",
"w. c #88872B",
"e. c #8A892E",
"r. c #908F2F",
"t. c #838731",
"y. c #8C8D31",
"u. c #8D9134",
"i. c #939433",
"p. c #959936",
"a. c #989935",
"s. c #9C9C35",
"d. c #9B9E38",
"f. c #A09F35",
"g. c #9DA23A",
"h. c #A2A136",
"j. c #A3A539",
"k. c #A6AB3D",
"l. c #AAAB3B",
"z. c #AEB13E",
"x. c #B2B43E",
"c. c #AFB341",
"v. c #B5B942",
"b. c #BABE43",
"n. c #B1B562",
"m. c #BDC246",
"M. c #C1C546",
"N. c #C6C947",
"B. c #C2C748",
"V. c #C6CB49",
"C. c #C9CE4A",
"Z. c #CDD24C",
"A. c #D1D64D",
"S. c #D5DA4F",
"D. c #D9DF4F",
"F. c #D7DD50",
"G. c #D8DE50",
"H. c #D9DF59",
"J. c #DAE051",
"K. c #DBE05E",
"L. c #D3D768",
"P. c #DFE36F",
"I. c #E1E572",
"U. c #858585",
"Y. c #888886",
"T. c #8C8C8C",
"R. c #91918A",
"E. c #939394",
"W. c #9A9A9B",
"Q. c #A3A3A4",
"!. c #ACACAC",
"~. c #AFAFB0",
"^. c #B6B6B6",
"/. c #BDBDBD",
"(. c #E5E989",
"). c #C4C6A7",
"_. c #EDEFAB",
"`. c #F1F3BE",
"'. c #C5C5C5",
"]. c #C7C7C8",
"[. c #CBCBCC",
"{. c #D3D3D3",
"}. c gray86",
"|. c #F3F5CA",
" X c #F7F9D9",
".X c #DFDFE0",
"XX c #E3E3E3",
"oX c #EDEEE0",
"OX c #ECECEC",
"+X c #FAFBE2",
"@X c #F4F4F4",
"#X c #FEFFF5",
"$X c #FFFFFE",
/* pixels */
"^ ^ 1.1.,.2.6.5.3.2.,.W T Q S E E E W C f n j j b j j I R U m m H n C A A A m v b m A A C W 2.1.W S E T C P P E <.1.3.9.^ ! I ^ ",
"' 1.1.1.Q <.2.2.Q Q ,.' Q ,.W Z s : # X   .   . . . . . . . . . . . . . . . . . . . . . + $ 4 j V T E I T n Z I T W 1.3.9.! ! 1.",
"' Q E Q C W 2.] ' ' 2.5.1.W s +                                                                 % h W 1.W W W C Z Q ^ T 1.! ! ! ",
"2.W E b ; W 5.5.<.' 2.5.S :             . o o o o . o o . o o X . o o o . o o . o o .               w 2.' ' ' S Q ,.1.1 f 1.E ! ",
"' ' S : X n <.3.2.<.5.S @       X a :.Q.^.^.^.^.^.^.^.^.^.^.^.^.^.^.^.^.^.^./.^.^.^.^.^.W.*.t         1 W <.' ' ' Q W @ + ! 9.! ",
"E Q w i * f 2.5.2.5.W %       i Q.OX$X$X$X$X$X$X$X$X$X$X$X$X$X$X$X$X$X$X$X$X$X$X$X$X$X$X$X$X.XU.-       3 ' ' ' <.2.C $ o 3 E E ",
"W A 7 *.. 3 2.2.<.<.3       $.XX$X#X X|.`.`.|.`.`.|.`.`.`.|.`.`.`.`.|.`.`.`.`.`.`.`.`.|.|.+X#X$X/.y       f Q S ' 1.f i i   V W ",
"1.s $.;.  X A 2.5.m       @.OX#X`.I.H.F.F.F.F.F.F.F.S.D.F.F.S.D.F.F.F.F.F.F.F.F.D.S.S.F.F.K.(.|.$X'.r     @ C A ' W & ;.o.  3 E ",
"' 1 E.$.    3 ' 5.1     r {.+X(.F.F.F.F.F.F.F.F.F.F.F.F.F.F.F.F.F.F.F.F.F.F.F.F.F.F.F.F.F.S.S.K._.#XW..     4 W 2.v - /.a   + T ",
"T 7 '.a     . b A .     :. XP.S.F.F.F.F.F.F.F.F.F.F.F.F.F.F.F.F.F.F.F.F.F.F.F.F.F.G.J.J.F.F.F.S.S.(.oXo.    ; ] D @ ;.}.r   . b ",
"A u [.i       + <     * ).P.D.D.J.J.F.F.F.F.F.F.F.F.F.F.F.F.F.F.F.F.F.F.F.F.F.G.A.c.X.g.F.F.F.F.D.S.(.R.    . C ; i XX~..     b ",
"m p }.i               u L.D.m.( t.B.F.F.F.F.F.F.F.F.F.F.F.F.F.F.F.F.F.F.J.F.C.a.c $   < m.F.F.F.F.F.J.n.O   . X , ).$X*.      h ",
"C u }.i               z S.F./     1 } v.F.J.F.F.F.F.F.F.F.F.F.F.F.F.J.F.v...9 .         d.J.F.F.F.F.J.m.&     - ^.$X/.*       f ",
"' 9 '.o.              H S.A.e         $ H j.Z.J.F.F.F.F.F.F.F.F.J.Z.d.N &           $ J C.F.F.F.F.F.S.V.1     =.$XXXa       . C ",
"2.3 W.*.              ( J.F.p.e X         X d y.V.J.F.F.F.F.F.m.4.e .           6 | v.F.F.F.F.F.F.F.F.Z.q     &.{.o.        @ W ",
"{ s $.U.              X.J.F.J.Z.d.M @           6 X.A.F.F.m./ &           @ c p.C.F.F.F.F.F.F.F.F.F.F.S.z     * t           4 ' ",
"{ U = *.O             u.J.F.F.F.J.S.c.) < .       X c.F.F.(           1 ) c.S.F.F.F.F.F.F.F.F.F.F.F.F.F.H                 . C <.",
"{ ' 0 - O           . g.J.F.F.F.F.F.F.F.m.4.q .   2 B.F.J.y.    + z u.B.J.J.F.F.F.F.F.F.F.F.F.F.F.F.F.J.[                 4 ' ' ",
"2.<.R :             @ v.J.F.F.F.F.F.J.J.J.J.Z.p.H a.G.F.F.Z.( / l.C.b.k.c.m.F.F.F.F.F.F.F.F.F.F.F.F.F.J.q.              @ ' <.' ",
"] W W m %           & m.J.F.F.F.J.C.p./ Y y.b.J.G.G.S.F.F.F.F.F.p.e @ . X & M j.S.F.F.F.D.F.F.F.F.F.F.J.p.            X C 5.2.{ ",
"' ' E { E 1         6 C.F.F.F.F.j.q - t - o & | C.D.D.F.G.G.Z./ O y *.*.+.*   @  .N.D.F.F.F.F.F.F.F.F.J.l.X         + m 1.2.0.<.",
"W 1.Q { 1.E 0 .     z S.F.F.F.k.9 ;.{.OX}.E.r . / N.G.F.F.G.| - W.OX$X$X@X'.+.  + >.N.F.F.F.F.F.F.D.F.F.b.$     . > n T Q { <.E ",
"E W T W W W W :     M D.F.F.A.G E.$X$X$X$X$X/.- $ i.Z.F.G.c.7 ~.$X$X$X$X$X$XXXo.  5 f.Z.F.F.F.F.F.F.F.J.B.:     3 I ~ { E ' { ~ ",
"Q T T T { 1.' @     ( J.F.J.x.#.@XOX[.OX$X$X$X;.  / b.F.F.} *.$X$X@X@X$X$X$X$X^.O X >.b.F.F.F.F.F.F.F.F.Z.q     8 ! ~ 1.1.{ Q Q ",
"E E T T ' 3.] +     B C.G.G.i.Y.XXo.* T.$X$X$X~.  c z.S.S.G ~.@XT.i $.}.$X$X$XOXi   ) l.S.D.S.F.S.F.F.F.F.z     > E W ^ 3.1.1.! ",
"1.W W W 2.6.W .     c d.G.G.p.E.!.  y /.@X$X$X/.o M j.A.Z.G [./.o   &.XX$X$X$X$X$.  B h.Z.D.G.S.l.y.B.F.F.N     & T E Q ^ ~ 1.1.",
"3.' { Q <.5.S       M r.S.G.v.-.'.-   @.OX$XOXn.  ` l.A.D.J /.W.  O =.].$X$X$X@Xa   } f.N.D.F.Z.q.} h.F.F.[     # T 1.Q Q W 2.2.",
"3.2.W W ] ' m     X L h.C.C.A._ ^.[.W.{.$X@X{.t < r.x.S.F.>.U.}.y   . U.$X$X$X[.* @ w.f.Z.D.F.Z.X.` d.F.J.t.    + E 1.' <.2.^ 1.",
"2.1.W S W 1.f     & j.b.t.q.v.c.K Q.OX$XOX/.a @  .f.m.F.F.v.F {.{.E.!.@X$X$X@X*.  z f.l.S.S.A.F.j.q.b.F.J.p.    . S 1.' 5.6.' Q ",
"1.3.1.I E <.0     6 C.h.} } y.Z.s.c F #.a - 5 >.f.x.S.G.D.S. .O.[.$X$X$X$XOX:.o < r.f.b.Z.d.u.B.A.C.F.F.J.k.X     m 2.3.6.5.1.Q ",
"1.W E E E E >     e F.a.} } >.Z.S.x.w.` D q.s.h.x.A.G.S.G.F.N./ u =.Q.!.U.a . 2 >.f.l.A.c.` } y.F.F.F.F.F.b.$     h Q ,.W 1.3.' ",
"' ' ' 1.^ E ;     H F.c.} } d.F.F.S.N.v.x.x.x.N.D.D.D.G.S.F.S.b.q.l 2 & $ 5 L i.f.f.N.F.s.` } q.Z.F.F.F.F.M.<     0 T S W 2.2.' ",
"Q ^ 2.3.1.T +     ) F.S.l.j.C.G.F.F.F.F.S.F.F.F.F.F.F.F.F.F.F.F.M.l.a.r.r.s.f.f.l.C.D.G.l.` ` y.A.G.G.S.F.C.q     3 T I I E E Q ",
"3.' Q 3.3.W +     X.G.F.G.F.D.F.F.F.F.F.F.F.F.F.F.F.F.F.F.F.F.F.S.A.M.x.z.z.x.N.A.G.G.G.C.a.e.b.G.G.G.G.G.F.c     : P P I ! ! ~ ",
"2.2.3.6.6.T X     p.G.F.G.F.F.F.F.F.J.F.F.J.F.J.F.J.J.J.F.F.F.F.D.D.D.F.D.G.D.D.F.F.F.F.F.S.A.F.S.G.S.G.F.F.N     % P I ~ ! E ! ",
"^ 3.0.6.2.n     X g.F.F.F.F.F.F.F.S.g.( N N N N J J J J J J J H N N N L >.M.D.D.F.F.F.F.G.G.G.G.G.G.S.G.F.F.}     + ! ! ! E ! T ",
"^ 1.1.1.Q f     O l.J.S.F.F.F.G.Z.J .   +.&.&.$.-             +.&.&.%.-   6 l.F.F.F.F.F.F.G.D.D.S.F.G.S.G.G. .    + I ^ 1.E ! E ",
"^ ^ ^ 1.' 0     $ s.Z.F.F.F.F.F.[     O '.$X$X$X$.          * ].$X$X@Xo.    9 B.G.G.F.F.F.S.D.D.F.F.G.G.G.N. .    . T 2.1.E I V ",
"1.! ^ 3.2.s     < i.l.C.F.F.F.M.<       =.}.XX^.-             ;.}.XX!.-       q.F.G.F.F.F.F.D.D.F.F.F.S.m.l. .      C 3.3.,.Q ' ",
"<.1.2.1.5.g     < a.h.h.b.A.J.j..         - r O                 - r O         H G.G.F.F.F.F.D.S.F.F.C.v.f.f. .o     n 3.3.,.3.6.",
"1.3.1.3.1.f     @ e.f.f.f.l.b.i..                                             N Z.A.A.A.A.Z.Z.Z.M.x.h.f.f.h.)     . T 3.1.1.3.1.",
",.Q ,.3.1.n       ) f.f.f.f.f.r.&     * ;.W.&.O &.W.;.* o.E.U.- y T.E.i       / j.j.h.l.h.l.l.f.f.f.h.f.f.s.z     @ W 1.W 2.2.1.",
"' ' 2.<.Q S @     e s.f.f.f.f.f.N     @.@X$X}.o.}.$X@XO.^.$X$X=.U.$X$XQ.    2 r.f.f.f.f.f.f.f.f.f.f.f.f.f.e.$     3 W E T W T Q ",
"W 1.3.<.Q 1.0     . ` f.f.f.f.f.a.c X - $.$.+.- +.$.@.- a $.$.r y $.$.i   2 q.h.f.f.f.f.f.f.f.f.f.f.f.f.f.c       h E W T T Q 5.",
"Q ,.,.E ' 5.T X     & w.h.f.f.f.h.s.X.M k k k l k k k l l k k l x k k l ) r.h.s.f.f.f.f.f.f.f.f.f.f.f.f./ X     & U T W Q Q 1.1.",
"^ ! T T Q 3.2.s       1 >.h.h.f.f.f.h.h.h.h.h.h.h.h.h.h.h.h.h.h.h.h.h.h.h.h.f.h.f.f.f.f.f.f.f.f.f.h.s.) @     . h W E W 2.<.Q ] ",
"^ Q I E ~ 1.1.T :       @ D r.f.h.h.h.h.h.h.h.h.h.h.h.h.h.h.h.h.h.h.h.h.h.h.h.h.h.h.h.h.h.h.h.h.f.w.k .       w E Q W <.<.<.Q 2.",
"Q E Q Q E ! W W C %         < l D ` ` ` ` ` ` ` ` ` ` ` ` ` ` ` ` ) } } } ` ` ` ` ` } ` ` ` ` D e @         0 W ' ' ' 2.1.' <.3.",
"P C W Q S Q Q 2.<.W 4                   .       .     .     .               .   .                       X g ] W <.2.3.3.2.' <.6.",
"E T E E W 3.3.' <.6.' s #                                                                           . : m <.<.W ] 5.5.Q W <.Q <.",
"' W Q ' W <.<.W W ,.3.' S h > @ . .                   . .     . .   . . .                   . X $ w C ' ' ' { W ' ' 5.] W W T T ",
"' ' 3.1.W R W W W ' 5.,.W 1.1.W T S 1             % b j j j b b b b j b b b 1             @ n C T <.2.' W R W W ' ' 2.' R T S R ",
"3.3.5.6.<.' 5.,.' <.<.S 2.6.6.3.1.^ 0             3 <.Q W W Q 2.3.{ E T R W f             % W W T W Q W S S W ' ' <.W Z T I C W ",
"5.5.<.3.' ' 2.5.<.2.6.<.1.1.1.1.^ E s             v 2.' W <.6.7.8.2.~ T W Q A .           4 W W ' <.' S ' W ' W E ' W Z I I E Q ",
"3.2.2.6.,.' Q 1.' Z Q Q W ' ' W ! I j X         . C ' 2.' ' 6.<.] ' 2.1.W S W &           C ,.Q ' ] ' <.W T T R T W E S C C W 5.",
",.,.5.7.7.,.W S Z Z T W ' ' W E I I E 3         3 E 1.7.5.' W S W ' 3.' A S 2.v         : Q <.Q ' ' 3.] A A W W S W Q ! I I S W ",
",.,.5.7.9.,.,.I Z E T ^ Q Q W ,.E Z I V : .   > S W ' 3.7.3.W S S ' S C C S Q R 3 .   # C 1.2.W ,.5.5.,.E T ,.,.,.,.Q E T Q Q E ",
",.,.2.3.,.W ! E Z E ! ,.Q ,.2.2.,.I V I V f n ,.<.<.5.<.' 2.2.' ' <.2.S Z Z E R Z j j R 6.1.W W ,.<.5.5.,.,.,.,.,.<.1.^ E Q Q E ",
",.,.,.Z V V Z T E T T ! ,.,.,.,.1.Q ! T P I Q 1.7.5.5.2.<.' <.' 3.' <.' T E Z V Z ,.,.5.6.Q E ! ,.6.6.8.2.Q ,.,.,.3.2.5.1.! E ,.",
",.E ,.T V V V V V Z I ^ 2.,.Q ,.,.E E E ! ! T 3.6.6.5.' Q S I R 3.] Z E E E C V T W Q ,.2.E E ^ 2.7.3.2.3.3.W ,.<.3.Q 2.3.E T Q ",
"Z E T Z Z E E E V I I ,.2.,.,.,.W E W ! 1.1.E ~ ^ 9.0.E P P U T E T I T Q ~ I E ,.,.W 2.3.E E I ,.3.,.Q 2.3.W ,.6.2.,.1.Q V I I ",
"E ,.W T Z E ,.E 1.! I E W W ,.,.^ I I I ^ ^ I I P T 1.~ U T ~ ~ E E E W ^ W T W ,.2.<.2.3.1.1.,.2.5.,.,.3.0.,.W 3.6.1.6.,.Z I 1.",
"W E E W T ,.! ! 1.1.! T I I ! T P V j V E E P P P P T E ~ 9.{ 2.1.{ ' W 1.W W ' ,.,.1.1.1.1.6.1.W ,.Q 6.3.! Z E ,.2.9.9.1.I ! 1.",
"W E E E Z E ,.1.5.9.,.! E I I V V Z T V Z P P n P T ! 1.9.2.{ 5.2.' <.<.3.<.W Q W 2.,.,.Q 1.3.5.1.1.1.2.1.Z Z W ,.,.1.1.1.I I ! "
};
