/* XPM */
static char *result[] = {
/* columns rows colors chars-per-pixel */
"64 64 191 2 ",
"   c #010101",
".  c #070802",
"X  c #0A0B03",
"o  c #070708",
"O  c #0D0D0C",
"+  c #0D1205",
"@  c #121506",
"#  c #141907",
"$  c #16170A",
"%  c #161B08",
"&  c #1B1C09",
"*  c #131313",
"=  c #1C1C13",
"-  c #1B1B1B",
";  c #1A2107",
":  c #1B230B",
">  c #1F280C",
",  c #1C2014",
"<  c #22230B",
"1  c #242B0D",
"2  c #2B2B0E",
"3  c #26310F",
"4  c #29340F",
"5  c #31300E",
"6  c #2D2E10",
"7  c #262A18",
"8  c #2B3410",
"9  c #293117",
"0  c #2D3B12",
"q  c #333412",
"w  c #323C12",
"e  c #3A3B14",
"r  c #222223",
"t  c #2B2B2C",
"y  c #333528",
"u  c #343334",
"i  c #393B33",
"p  c #3A3A3B",
"a  c #354514",
"s  c #3F4117",
"d  c #374A17",
"f  c #3B4B16",
"g  c #3A4D18",
"h  c #3D521A",
"j  c #464614",
"k  c #494916",
"l  c #434518",
"z  c #474818",
"x  c #4C4C1A",
"c  c #425117",
"v  c #41551A",
"b  c #455B1C",
"n  c #4A5D1B",
"m  c #53541D",
"M  c #56591E",
"N  c #5C5B1E",
"B  c #46611E",
"V  c #4C641E",
"C  c #4F691F",
"Z  c #52661E",
"A  c #536A1F",
"S  c #60601F",
"D  c #44442F",
"F  c #4F5023",
"G  c #575920",
"H  c #5A5D22",
"J  c #484833",
"K  c #615F20",
"L  c #4B6621",
"P  c #4E6A22",
"I  c #516721",
"U  c #5E6122",
"Y  c #526D22",
"T  c #596E22",
"R  c #567224",
"E  c #5A7524",
"W  c #5E7926",
"Q  c #557529",
"!  c #597629",
"~  c #5D7B29",
"^  c #646522",
"/  c #666926",
"(  c #6A6B24",
")  c #64652E",
"_  c #706F25",
"`  c #627D26",
"'  c #687825",
"]  c #6E7129",
"[  c #617E29",
"{  c #737126",
"}  c #737529",
"|  c #787728",
" . c #777829",
".. c #7B7C2B",
"X. c #444444",
"o. c #484842",
"O. c #474749",
"+. c #4C4C4C",
"@. c #56564F",
"#. c #525253",
"$. c #575759",
"%. c #5B5B5C",
"&. c #656565",
"*. c #6B6B6C",
"=. c #727262",
"-. c #737374",
";. c #7B7B7B",
":. c #807F2B",
">. c #668127",
",. c #698327",
"<. c #658229",
"1. c #6A8529",
"2. c #6D8A2A",
"3. c #7E822E",
"4. c #728D2A",
"5. c #75912C",
"6. c #79952D",
"7. c #7A982F",
"8. c #698B31",
"9. c #769530",
"0. c #83832C",
"q. c #88872B",
"w. c #8A892E",
"e. c #908F2F",
"r. c #838731",
"t. c #8C8D31",
"y. c #8D9134",
"u. c #939433",
"i. c #959936",
"p. c #989935",
"a. c #9C9C35",
"s. c #9B9E38",
"d. c #A09F35",
"f. c #9DA23A",
"g. c #A2A136",
"h. c #A3A539",
"j. c #A6AB3D",
"k. c #AAAB3B",
"l. c #AEB13E",
"z. c #B2B43E",
"x. c #AFB341",
"c. c #B5B942",
"v. c #BABE43",
"b. c #B1B562",
"n. c #BDC246",
"m. c #C1C546",
"M. c #C6C947",
"N. c #C2C748",
"B. c #C6CB49",
"V. c #C9CE4A",
"C. c #CDD24C",
"Z. c #D1D64D",
"A. c #D5DA4F",
"S. c #D9DF4F",
"D. c #D7DD50",
"F. c #D8DE50",
"G. c #D9DF59",
"H. c #DAE051",
"J. c #D3D768",
"K. c #DFE36F",
"L. c #E1E572",
"P. c #7E7E80",
"I. c #858585",
"U. c #8C8C8C",
"Y. c #91918A",
"T. c #939394",
"R. c #9A9A9B",
"E. c #A3A3A4",
"W. c #ACACAC",
"Q. c #AFAFB0",
"!. c #B6B6B6",
"~. c #BDBDBD",
"^. c #E5E989",
"/. c #C4C6A7",
"(. c #EDEFAB",
"). c #F1F3BE",
"_. c #C5C5C5",
"`. c #C7C7C8",
"'. c #CBCBCC",
"]. c #D3D3D3",
"[. c gray86",
"{. c #F3F5CA",
"}. c #F7F9D9",
"|. c #DFDFE0",
" X c #E3E3E3",
".X c #EDEEE0",
"XX c #ECECEC",
"oX c #FAFBE2",
"OX c #F4F4F4",
"+X c #FEFFF5",
"@X c #FFFFFE",
/* pixels */
"~ R Y ~ 8.2.1.,.R P L L Y ! C R >.,.W C C Z n v v n V Z Z V n n n n I T L h v v h h b g V W R R R Y W Y E >.2.2.2.5.2.` ,.<.~ W ",
"~ ~ Q 8.8.<.R Y C V b P P Y R B h 8 % X . . . . . . . . . . . . . . . . o . . .   . .   X @ : a C E >.W ` ,.W W ,.2.>.W <.<.<.W ",
"Q P Q <.Y ~ W C V E E W ,.R g %                                                                 + a R >.2.1.` ` >.,.E V W R W ` ",
"Q Q <.g 2 ` ` ` R W >.W 1.0 .             o . o o o o o o o o o . o . o o o o . o o . .             : Y 4.,.' ,.4.4.E ; h R W 1.",
"Q 8.W + @ E ` ` ` ` ,.E 3         r &.R.Q.!.!.!.!.!.!.!.!.!.!.!.!.!.!.!.!.!.!.!.!.!.!.!.E.;.p .       @ A 2.,.1.2.>.n o : Y ` ` ",
"R ! 3 O @ Z ,.` E W ` 3       - I. X@X@X@X@X@X@X@X@X@X@X@X@X@X@X@X@X@X@X@X@X@X@X@X@X@X@X@X@XXXE.u       % E 4.2.4.1.f O u 0 W R ",
"R b   u u d <.` A ` f       t ~.@X@XoX{.).).{.).).).).{.).).).).).).).).).{.).).{.).).).{.}.+X@X|.#.      4 ,.,.,.1.4 o &.7 Z E ",
"R 3   X.-.& W ` Z V @     r _.@X{.^.G.F.D.F.D.D.F.D.D.D.F.D.D.D.F.F.F.A.A.D.D.F.D.D.D.D.D.G.L.).+XXX+.      n 4.1.A X   -.@.a >.",
"A +   p ~.= c ,.A w     o R.+X(.G.A.D.D.D.D.D.D.D.D.D.D.D.D.D.D.D.D.D.D.D.D.D.D.D.D.D.D.D.D.A.F.^.oX].7     1 4.` 4     $.T.2 ` ",
"b .   r [.-.@ E ,.&     X..X^.A.D.D.D.D.H.H.D.D.D.D.D.D.D.D.D.D.D.D.D.D.D.D.D.D.D.D.D.D.F.D.F.D.A.K.}.P.    . V v .     p ~.7 A ",
"c     o Q. Xu ; n X     Y.^.S.S.D.D.D.D.f...x.A.F.F.F.D.D.D.D.D.D.D.D.D.D.D.D.D.D.D.D.D.D.D.F.F.A.S.L./.*     > +       u '.y V ",
"g       %.@X~.- X     O b.F.S.A.D.D.D.v.:   $ x i.V.F.F.D.D.D.D.D.D.D.D.D.D.D.D.D.D.D.D.F.F.N.w./ v.S.J.y               u [.i B ",
"d       * ~.@X!.-     & n.F.F.D.D.D.H.s.        . 8  .c.D.F.F.D.D.D.D.D.D.D.D.D.D.F.F.D.x.] 1     ^ D.D.l               u ].y A ",
"C .       p  X@X*.    1 B.S.D.D.D.D.F.B.H $           & M s.C.F.F.D.D.D.D.D.D.F.H.C.h.M &         e C.D.m               X.`.9 >.",
"E @         O.].%.    q C.F.A.F.D.D.D.D.D.c.} 6 .         X e 3.n.D.F.D.D.F.F.N.y.l o         o e i.D.F./               &.E.6 1.",
"` 4           r -     l A.D.D.F.D.D.D.D.D.F.F.N.i.x @           & ^ n.F.F.C...6           @ m s.C.F.D.H...              P.#.a [ ",
",.n .                 G D.D.D.D.A.F.D.D.D.D.D.S.H.D.x./ 1           / F.F.x.X         < / x.D.F.D.D.D.H.y.            O &., P >.",
"` ` 4                 ] F.D.D.D.D.F.F.F.D.D.D.D.D.D.D.H.B.y.l +     t.F.D.M.2   . e r.N.F.F.D.D.D.D.D.H.f.o           O - 0 ` ` ",
"` ,.` $               3.H.D.D.D.D.D.D.A.D.D.D.D.H.D.N.k.x.v.B.j.^ / V.D.D.F.i.G i.C.H.H.F.F.F.D.D.D.D.H.c.@             & T ,.1.",
"<.1.4.n X             i.H.D.D.D.D.D.D.D.D.D.F.Z.h.m & X   @ e i.D.D.F.D.D.D.F.S.F.v.r.^ / i.V.F.D.D.D.H.n.&           % L R T ` ",
",.5.1.<.n +         X k.F.D.D.D.D.F.D.D.D.F.B.| $   * O.&.%.u O U C.H.D.S.D.D.B.} &   - r - q h.D.D.D.D.V.8         1 R [ R ` ` ",
"! ,.[ ~ R b > .     $ c.D.D.D.D.D.F.A.D.D.M...@   O._.OX@X@XXXR.- } D.D.F.A.M./ . r T.[.XX].;.9 x.H.D.D.D.l     . 0 Y <.` W <.E ",
"! ` ~ W ~ E P 3     < N.D.D.D.D.D.D.S.F.C.g.5   p  X@X@X@X@X@X@XQ.7 x.F.S.C.e.$ - ~.@X@X@X@X@XT.F C.D.D.D.F     : R E ~ R R E R ",
"W ! [ <.<.E Q 4     q C.F.D.D.D.D.D.A.S.v.:.X O !.@X@X@X@X@XXX@X@X&.] H.S.v.^   -.@X@X@XXX'.XXOX@.l.H.D.D./     $ ` 1.` Y P Y W ",
"E <.<.8.~ W Q >     z D.D.D.Z.A.D.D.D.Z.k.(   u XX@X@X@X[.#.u U.@XW.F D.Z.k.m   !.@X@X@XU.* X.|.U.y.F.F.V.N     @ E 4.` Y Y R R ",
"<.<.Q ~ ! E Y &     m D.D.m.t.x.A.F.F.V.h.K   #.OX@X@X@X X$.  o !.'.F Z.Z.h.m o !.@X@X@X~.t   W.Y.p.H.D.a.x     X T 4.,.E E W >.",
"1.<.W E ` ` R @     ] H.F.h._ 0.V.D.F.V.d._   p OX@X@X@X`.-.O   R.~.G D.Z.k.(   I.@X@XXXO.. - _.=.c.F.D.u.m .   . Z 5.,.W ` ` 2.",
"` [ 1.,.W >.E X     3.H.D.s._ :.V.S.S.C.h.w.@ * '.@X@X@XI.    t [.I.3.F.Z.z.u.< t ].@X@X].R.'.!.) Z.V.C.g.H o     v ,.' E W <.2.",
"W ` 4.4.` ` A .     i.D.D.n.0.f.F.A.A.A.k.a.j   &.@X@X@XOXW.T.].].D c.F.S.m.d.| @ i ~.XX@XXXE.J k.c.:.t.v.h.&     d >.E Y R ,.<.",
"W >.4.5.4.1.V     X j.H.D.D.V.A.m.e.d.V.v.d.w.<   ;.XX@X@X@X@X'.o.| A.D.D.A.z.d.:.5 = p #.J F a.C.t._ _ h.C.6     0 <.R Y >.2.,.",
"W 2.>.W ` ` f     $ v.F.D.D.D.A.e._ { x.C.k.d.:.2 . p I.W.E.*.y S M.F.D.D.D.Z.z.g.a.:._ _ q.l.Z.Z.:._ _ i.Z.s     > Q R R R R ,.",
">.2.,.R Y Y 0     < N.D.D.D.D.C.:.{ { s.F.M.h.d.u.S 2 & & 2 z 0.v.A.D.D.D.F.S.A.M.z.l.z.z.M.A.D.D.a._ | x.H.m     ; Y W >.>.W >.",
"W Q R P P Y 3     q V.F.D.D.D.Z.t._ { j.F.D.V.k.g.g.a.e.e.u.k.m.A.S.D.D.D.D.D.D.F.D.A.A.D.F.D.D.F.C.f.k.Z.F./     @ Y <.1.<.W ` ",
"! Q R P L L :     x D.A.D.D.D.F.v.t.p.C.S.D.F.A.M.z.l.l.z.m.C.D.D.F.D.D.D.D.D.D.F.F.D.D.D.D.D.D.A.F.F.A.F.F...    + E 2.2.` ` 2.",
"W Y Q ! P P %     M F.F.D.D.F.F.D.Z.A.D.D.D.D.D.S.A.H.D.S.S.F.F.F.D.F.F.F.F.F.F.F.F.F.F.F.H.F.F.D.D.F.A.D.F.u..   X Y 9.5.2.1.<.",
"P Q Q Q Q Q +     ] F.D.D.D.A.D.D.D.D.D.D.D.D.D.S.H.n.0.H N M M N H H H H H H H M M M M / s.Z.F.A.D.F.F.D.F.h..     b <.5.7.4.~ ",
"R R Q ~ ~ Y +     ..F.D.D.D.D.D.D.D.D.D.D.D.D.D.F.j.6   * $.%.%.O.            - #.$.%.O.  X H V.F.F.D.D.D.H.k.X     d W <.<.<.Q ",
"L P Q <.1.Y .     { M.D.D.F.D.D.D.D.D.D.D.D.D.D.m.8     X.@X@X@X'.O           +.@X@X@X_.O     ] D.D.D.D.F.C.a.#     a W <.<.~ Q ",
"W ` >.2.2.n     . | h.m.F.F.A.F.D.D.D.D.D.D.D.H.0.      - W. X[.-.            - !. X[.-.      < m.D.D.D.V.k.u.<     a 1.2.~ ~ <.",
"5.2.` 2.2.n     . | g.g.z.V.F.S.D.S.F.F.D.D.D.D.G         O r - .               O r -         . h.H.C.n.h.d.p.<     f 5.<.<.<.<.",
">.2.>.<.2.Y X     / g.d.d.g.z.m.V.Z.Z.Z.Z.Z.Z.Z.M                                             . p.z.k.d.d.d.w.@     g <.1.2.1.<.",
"<.,.,.W >.W @     j d.d.d.g.d.d.g.g.h.h.h.h.g.k.^       u T.U.t - I.T.O.O -.R.%.o %.R.;.*     & e.d.d.d.d.g.(       n ~ 1.<.` ` ",
"W R E Y Y E 3     $ w.d.d.d.d.d.d.d.d.d.d.d.d.d.e.2     E.@X@XI.*.@X@X!.O.OX@X[.X.[.@XOX+.    M d.d.d.d.d.d.q     @ Y W 1.2.` ` ",
"2.W Y Y E R f       k a.d.d.d.d.d.d.d.d.d.d.d.d.d.0.2   u #.#.t r #.#.p - +.#.O.- O.#.#.- X x a.g.d.d.d.d._ X     0 >.W <.2.` E ",
"` [ ` ~ ! Y C $     X ( d.d.d.d.d.d.d.d.d.d.d.d.d.g.e.( k j j z z j j z k j j j j j j j m ..d.d.d.d.d.g.q.&     X Y 2.W R ` ` W ",
"` ` ` 1.W R E g .     @ S d.d.d.d.d.d.g.d.d.d.d.d.d.g.g.g.g.g.g.g.d.g.g.g.g.g.g.g.g.g.g.g.g.g.g.d.g.g.:.<       a 2.2.W Y R W ~ ",
"2.` ,.,.` W W R 8       X k q.a.g.g.g.g.g.g.g.g.g.g.g.g.g.g.h.g.g.g.g.g.g.g.g.g.g.g.g.g.g.g.g.g.d.e.N $       ; P <.<.W R P ! ~ ",
"4.` ` 1.1.` ` ` ' w         @ e K _ _ _ _ _ _ { _ _ { _ _ _ _ _ _ _ _ _ _ _ { _ _ _ _ _ _ _ _ S z <         % P E E R R W W Q W ",
"5.,.' <.1.4.,.>.E ` f X                 .       .     .     .   .       .       .           .             4 ` >.,.W E E E E C C ",
",.` ` ! ` 1.4.,.` ,.,.n : .                                                                           @ a ,.5.>.>.,.2.E E T A Y ",
"T Y ` W >.4.>.E T ` ` ` ` Z w # X .                   . .   .     .   .   .                 . X + > g Y ` ,.>.E E ,.,.E W W E >.",
"Y I Y Y ` ,.,.` E E T E ` 1.1.P Z v +             1 v v v h c v v v h h v h #             1 C Y W >.>.W >.4.` E E E R E ,.2.>.W ",
"E Z P P V W ,.W ` W Y A R E E A E T &             f E E Y Y [ 4.1.~ W R W >.3             0 >.<.2.5.5.,.T >.1.` >.2.` ,.5.4.1.2.",
"W Y P P C W ` R E ` E E T ' ,.` E R 4           . Z ` Y Y R 2.7.5.5.` W >.1.h           . d P ! >.<.>.>.,.4.1.1.4.1.>.W 2.,.4.5.",
"4.E V V C R R Y Y Y E E ` ` ` ` ` ` n .         & E A E ,.,.` ` 1.5.` ` 1.>.V X         + h P R E ` W ` W W C W >.` ` >.5.,.,.4.",
"' C L P E W E T T W Z Z ,.2.' ` ` [ W ;         c 1.A Z ` 2.` T A E ` 4.5.>.R 2         3 R P P Q W ` E E Y C C A R >.6.6.2.>.>.",
"R >.E Y R W W >.,.` T E ` 4.4.,.W <.<.P @   . 1 A ` P n C Y ' T A E 2.6.2.` E Z ; . . : B C P Q >.E >.E E R Q P Y W >.2.9.4.>.W ",
"R ! >.R W <.1.>.1.1.[ ,.4.4.,.` W W 2.2.Y v v A E R P P A ,.>.` ` 2.,.>.,.4.,.,.>.h d B P L B >.>.<.>.>.>.Q Q Y R E ! <.2.1.>.>.",
">.P R 1.4.1.2.>.` W W 1.6.5.5.' Q P W 4.4.<.E A b Y R Y ` ,.` 4.' ,.>.>.2.2.4.6.8.>.P B Y Q Q >.>.>.<.<.Q P Y Y Y L B C A ,.>.1.",
">.Y Q 1.1.W 2.1.` W 1.2.2.4.7.2.~ R E 2.<.W W A B V R Y E C E 2.E C A E W 5.5.5.<.B >.Q Q Y Q >.>.E <.<.>.P L B B B B B A E R >.",
"P L L <.<.W 1.5.>.W 2.1.W ` 4.<.R R R <.1.E ,.` R A ! ~ Y L Y ! P P L L Q 5.2.~ >.P <.<.Q >.R R >.>.>.1.>.P P C E E R C C R E R ",
"Q Q B <.5.2.5.2.Q <.5.2.` ` 2.2.` <.>.2.2.1.,.,.E A R ` ! R R T E ! Y P R ,.Y L P P <.<.P P P <.>.<.R R R P Q Q E W E Y T E >.R ",
"<.Q P <.4.2.,.>.T C Q 2.5.>.>.W <.5.<.,.,.1.` ` ` E ` [ ` ` [ <.1.[ 8.Q R R L L L L R R B h B B P >.P P Y Q <.<.R R W A W R P Q ",
"Q P L <.,.<.>.,.W V P <.1.~ >.1.5.2.` W ` ,.,.E W W ` 4.` 1.[ 1.4.[ <.8.<.Q P L B B L L L P B B B P P R E >.2.9.<.>.W C Y R T E "
};
