/* XPM */
static char *result[] = {
/* columns rows colors chars-per-pixel */
"64 64 211 2 ",
"   c #010100",
".  c #080607",
"X  c #060902",
"o  c #090C03",
"O  c #0C0709",
"+  c #0B0A0A",
"@  c #170A06",
"#  c #120B0E",
"$  c #0D1205",
"%  c #111606",
"&  c #131907",
"*  c #151C08",
"=  c #150E10",
"-  c #1C0C12",
";  c #151414",
":  c #1A1516",
">  c #1D1718",
",  c #171818",
"<  c #1B1A1B",
"1  c #30150C",
"2  c #220F16",
"3  c #261219",
"4  c #29141B",
"5  c #221B1C",
"6  c #1B230A",
"7  c #1E290D",
"8  c #20270B",
"9  c #232D0D",
"0  c #26310E",
"q  c #2A340F",
"w  c #263410",
"e  c #293610",
"r  c #2E3B12",
"t  c #323E12",
"y  c #261F20",
"u  c #321A22",
"i  c #3C1D27",
"p  c #1F2020",
"a  c #252324",
"s  c #2B2324",
"d  c #2B2A2A",
"f  c #342A2C",
"g  c #342B2D",
"h  c #3A2F31",
"j  c #373637",
"k  c #3E3234",
"l  c #441E11",
"z  c #552616",
"x  c #77351E",
"c  c #43222D",
"v  c #4C2834",
"b  c #542938",
"n  c #413436",
"m  c #47393B",
"M  c #453A3C",
"N  c #54343D",
"B  c #602F3F",
"V  c #344314",
"C  c #3B4A16",
"Z  c #3B4F18",
"A  c #3D5219",
"S  c #415017",
"D  c #425419",
"F  c #445C1C",
"G  c #495D1C",
"H  c #46611E",
"J  c #4C631E",
"K  c #4F691F",
"L  c #52661E",
"P  c #52691F",
"I  c #586C1F",
"U  c #4B6620",
"Y  c #4E6A21",
"T  c #506720",
"R  c #526D22",
"E  c #596E21",
"W  c #567224",
"Q  c #5A7524",
"!  c #5E7926",
"~  c #557529",
"^  c #597628",
"/  c #5D7B29",
"(  c #667B25",
")  c #627D26",
"_  c #617E29",
"`  c #4E3F41",
"'  c #5A3C44",
"]  c #653243",
"[  c #773A4E",
"{  c #7E3F54",
"}  c #4D4243",
"|  c #484848",
" . c #534345",
".. c #564649",
"X. c #5E4C4F",
"o. c #5A4F50",
"O. c #595959",
"+. c #634E51",
"@. c #7C4E5B",
"#. c #685659",
"$. c #6C575A",
"%. c #715A5E",
"&. c #755E62",
"*. c #626262",
"=. c #6B6768",
"-. c #7A6669",
";. c #737374",
":. c #7B7B7C",
">. c #883D23",
",. c #9C4628",
"<. c #AB4D2C",
"1. c #C45832",
"2. c #E0653A",
"3. c #803F55",
"4. c #8B455C",
"5. c #925065",
"6. c #A7526E",
"7. c #AE5573",
"8. c #B35977",
"9. c #BD5D7C",
"0. c #83696D",
"q. c #876C70",
"w. c #896F73",
"e. c #8C7578",
"r. c #93767B",
"t. c #95787D",
"y. c #987B7F",
"u. c #C15E7F",
"i. c #668127",
"p. c #698327",
"a. c #658229",
"s. c #6A8529",
"d. c #6D892A",
"f. c #708628",
"g. c #718C2A",
"h. c #74912D",
"j. c #79952D",
"k. c #7A982F",
"l. c #6B8C31",
"z. c #749531",
"x. c #789732",
"c. c #9B7D82",
"v. c #C35F80",
"b. c #CB6486",
"n. c #CA6787",
"m. c #CE6688",
"M. c #D06D8D",
"N. c #D27894",
"B. c #8D8D8D",
"V. c #9A8285",
"C. c #939494",
"Z. c #9E9E9E",
"A. c #A18286",
"S. c #A5858A",
"D. c #A9898E",
"F. c #AC8D92",
"G. c #B58B93",
"H. c #AD989B",
"J. c #B59297",
"K. c #BA969B",
"L. c #BE989E",
"P. c #BF9AA0",
"I. c #A1A1A2",
"U. c #ABACAC",
"Y. c #B4A9AB",
"T. c #B4B6B6",
"R. c #BBBBBC",
"E. c #CA889A",
"W. c #D5849C",
"Q. c #D08A9E",
"!. c #C2929C",
"~. c #D98DA2",
"^. c #C29CA2",
"/. c #D894A7",
"(. c #D59BA9",
"). c #C8A1A7",
"_. c #CDA5AB",
"`. c #D0A6AD",
"'. c #D2A9AF",
"]. c #DFA2B1",
"[. c #D4ABB2",
"{. c #DAAFB6",
"}. c #C9B0B3",
"|. c #DBB0B7",
" X c #DDB2B9",
".X c #D3B9BC",
"XX c #E2A9B5",
"oX c #E2A9B6",
"OX c #E3B6BD",
"+X c #E5B8BF",
"@X c #E6B9C0",
"#X c #E9BBC2",
"$X c #C3C3C3",
"%X c #CACBCB",
"&X c #DDC2C5",
"*X c #D4D4D5",
"=X c #D9DBDC",
"-X c #EBC5CA",
";X c #EEC9CE",
":X c #EFCCD1",
">X c #F1CFD4",
",X c #EFD2D6",
"<X c #F3D3D7",
"1X c #F5D6DA",
"2X c #F6D8DC",
"3X c #F8DADE",
"4X c #FCDDE1",
"5X c #E3E4E4",
"6X c #EBECEC",
"7X c #F3F3F3",
"8X c #FFFFFF",
/* pixels */
"/ W Y a.d.d.s.s.W U H K Y W R W _ p.i.! s.p.Q G F G G I I Q Q p.p.( d.x.d.~ ~ E K W ! K W p.Q R W R ! R W i.s.d.d.h.s.i.p.i.a.i.",
"/ / ~ l.l._ ~ R Y J H Y Y W R K ! g.) G V 6 % o X X X X o % * r S I s.d.d./ ^ ~ R P i.i.Q ! W ! Q Q i.! i.p.i.Q i.d.p.Q i.i.a.~ ",
"~ Y ~ / / ) ! K J Q Q ! i.! / _ J t %     O O                     X 6 V F R Q ~ R W ) i.Q W a.d.i.! i.i.g.s.i.i.i.p.i.W i.W Q i.",
"^ ~ a.~ ! p.) ) Q ! _ ! h.f.! r X   , } e.Y.H.h               g %.g X   X 6 A K Q g.s._ i.! i.p.a.Q i.i.g.p.Q p.g.g.i.W K Y ! a.",
"^ a.z.s.s.a.! _ ) ) ( p.i.S $   5 -.}.,X3X3X4X.X}             s &X:X#.      X 6 J p.p.p.p.p.p.p.i.! a.d.d.d.p.p.d.p.Q I K Q i.i.",
"~ / l.d./ / p.( ! ) i.I 0   # =..X2X4X3X2X2X2X3X&X..          . H.4X.Xs         o V i.s.d.d.p.) W K ~ i.i.d.g.d.g.s.Q Q W Q Q R ",
"W s.h.s._ i.i.) I Q Q 6   d H.1X2X1X1X<X>X;X;X-X;X[.k           ;.2X3Xe.            6 K a.s.^ W ! R W K R i.p.p.p.d.i.Q i.i.Q Q ",
"W / a.a.i.s.i._ L K 6   M .X3X1X>X-X-X-X#X@X@X@X@X@XP.5         } @X;X.Xy       o.M   $ A W Y Y d.d.a.W W Q s.g.p.i.i.i.Q Q i.i.",
"! ~ W _ g.g.s.f.L 6   } &X1X;X-X#X@X|.^.^.[.+X#X@X@X@Xr..       k  X@X@XX.      V.}.,   X V Y ^ i.! W i.Q Q s.g.i.W Q ( _ E i.i.",
"! ! ! a.d.s.p.T 0   = H.;X#X@X+XL.&.g , # s  .c.oX@X@XOXm       k  X@X#Xt.    . F.,Xj     X A s.p.i.i.i.P Q i._ i.W 0 8 ) ( ) ) ",
"p._ ^ ! _ G 6         , $.`.OXq.,   + 5 a ,   . N !.#X#XF.#     f {.@X#XK.#   ; ^.#X .      X F i.s.f.f.! Q ~ R J 6     D i.! ) ",
"i.p.) ) D o   j e.C.*.;   v +.  + =.R.5X5X*XB.d   s G.@XOX`     h OX@X@X).>   k  XOX}     a . % Y p.! i.p.R K V o       8 ! ( ) ",
"W p._ J $ . ;.6X8X8X8XR.g     , I.8X8X8X8X8X8X*X|   c (.#Xc..   k OX@X@X[.s   0.#XOXn   # F.%.  7 i.p.i.Q G 7           V Q p.i.",
"s.p.p.9   =.7X8X8X8X8X8X$X< . I.8X8X8X8X8X8X8X8X*Xd   @.OX`.y    .OX@X@X'.5 5 ).#X[.s    .OX[.g   C ! i.F *             8 A i.g.",
"( ) J X d =X8X8X8X8X8X8X8XB.=.8X8X8X8X8X8X8X8X8X8XC.. 3 ^.@X..  %.@X@X@X_.> &.#X#XF.+ 5 ^.#X#XA.+ $ A V X                 X G d.",
") ^ 0   :.8X8X8X8X8X8X8X8X7X6X8X8X8X8X8X8X8X8X8X8X=Xj   5.#Xq.  c.#X@X#XK.m `.+X@X$., D.@X@X+XOX .  %                       9 ) ",
"p.! * + $X8X8X8X8X8X8X8X8X8X8X8X5X7X8X8X8X8X8X8X8X6X:.  ' oXF.5 ^.#X@X@XG.D.#X@X^.m S.#X@X@X+X#XD.+                 . $ 7 r J _ ",
"( E $ d 5X5XO.R.8X8X8X8X8X8X8X$Xd O.7X8X8X8X8X8X8X7XI.. u (.^...|.@X@X@X XOX@X@XJ.!.#X@X@X+X@X#X|.k           % 8 C J R ~ E ! ) ",
"_ P X j 7X$X+ *.8X8X8X8X8X8X8XU.+ . R.8X8X8X8X8X8X7XT., - E._.c.@X@X@X@X@X@X@X+X@X@X@X@X@X@X@X@X+X-.      $ t L ! i.a.R R ! s.s.",
"p.R   j 7X%Xa | 7X8X8X8X8X8X8XR.g   C.8X8X8X8X8X8X7XR.< - E.@X X@X+X@X@X@X@X@X@X@X@X@X@X+X@X@X@X@XS..       X o % 6 9 e V D G E ",
"p.) X j 7XB.  | 8X8X8X8X8X8X7Xo.    I.8X8X8X8X8X8X6XT., 2 E.#X+X@X@X@X+X@X@X@X@X@X@X@X@X@X@X+X+X@X^.;                       o F ",
"Q Q $ < 5X$X, B.8X8X8X8X8X8X8XB.  , *X8X8X8X8X8X8X5XI.. 4 Q.#X+X@X@X@X@X@X@X+X@X@X@X@X@X@X@X#X+X@X_.5                       % T ",
"^ Q 6 . T.8X$X7X8X8X8X8X8X8X8X6X;.I.8X8X8X8X8X8X7X=X:.  b /.#X+X@X@X@X@X+X@X@X@X@X@X@X@X@X@X@X@X@X`.5   X                   e E ",
"! ! V   =.8X8X8X8X8X8X8X8X6X5X8X8X8X8X8X8X8X8X8X5X%Xj   4.].#X+X@X XOX@X@X@X@X+X@X@X@X@X+X@X@X@X@X).>   * Z 6               A / ",
"/ a.Y o , %X8X8X8X8X8X6X7X;.*.7X8X8X8X8X8X8X8X7X=XB.. 3 u.OX+X+XOX).OX@X+X@XOX^.OX@X@X+X@X@X@X+X@XK.#     C ! J 0 X       * R ~ ",
"i.a.~ w   | 6X8X8X8X6X*XB.+ . Z.8X8X8X8X8X8X7X=XT.d   [ W.#X#X#XOXJ.+X@X@X@X@XA.r.OX#X@X@X@X@X+X#Xy.  6 r * P h.s.Q V %   r ! ( ",
"s.p.! T *   o.%X7X5X$X:.;     , I.8X8X8X8X7X=XU.j   c b./.A.r.D.`.S.OX+X+X@X@X|.+.#._.@X@X@X@X+XoX .  V Q P K f.s.g.g.E C P _ d.",
"_ _ s.s.J $   , | | d X         + *.R.*X%XU.;.a   u 7.N.'.&.5 , c.q.[.@X@X@X@X@X`.` s w.[.#X@XXX9.2 o P ! W ! i.p.s.( ) Q ! i.g.",
"! _ h.h.( C         X @ z l   f >   + < p ;   . v 8.N.!.X.D.).L. X-.J.#X@X@X@X+X#X[.#.+ f t.Q.M.]   0 ! Q R R R ! a._ ! R Q a.a.",
"! p.f.( S 6     O l >.1.2.,.  n K.%.u = # 3 v 4.u.N.oX[.s . $. X#Xt.#.@X@X@X@X@XOX@XOXr.>   c 3.: X I s.i.! ! W ! i.i.W Y i.d.a.",
"Q G 9 o         1 x ,.<.1.1.1 + J.@X(.n.8.9.b.M.Q.oX#X#XA.g m ).#X^.g L.#X{._.#X XS.J.OX!.n       q p.s.s.s.a.a.! W W W W W ! p.",
"Q J C q 6 % o X       O 1 1 @   %.@X@X@X{.XX].oX@X@X@XoX/.Q.(.+X@X+X . .OX Xr.w.[._.#. .F.[.X.  X K f.g.d.d.p.s.! R W ! i.) / ) ",
"/ ^ ~ Y U U U Z 8       - +     s '.@X+X@X@X@X@X@X].W.M.b.b.n.N./.~.5.= y.-X|.$.m J. X&.> +.^. .  C g.g.( i.s.a.Q W Q a.s.i.! i.",
"^ ~ ~ Y U U U Y U t X   i 4.4.[ ] E.oXOX@X@X+XXXQ.n.b.b.b.b.m.b.b.m.v.i 5 !.#X|...> y.OXw.+ f w.+ r g.( p.) i.p.i.! a.d.d.i.! d.",
"^ R ~ ~ Y Y U / a.s.G %   - ] 6.b.b.M.N.W.W.N.n.m.b.b.b.b.b.b.b.b.b.m.4.. n '.#X[.n + w.@Xq.. > + & G ( ( ! ! s.s.! a.h.h.d.a.a.",
"Y ~ ~ / ~ / / z.k.d.i.R r o   + c { 6.u.b.m.b.m.m.m.b.b.b.b.m.m.m.m.m.b.v   #.OX#XP.5 # S.OX .      X q ! W ! W ! a.! a.h.k.d.a.",
"W W ~ / / a.d.d.d.s._ p.a.R r $     # 4 b [ 4.6.7.8.9.9.9.9.8.8.7.5.3.B 4   . w.@X@Xr.  s `.D.o       V ) R W ! a./ W ! a.a.a.~ ",
"U Y ^ i.a.s.d.d.g.h.s.g.i./ Q K A 9 % X       O # # 2 4 4 2 - # @         +   : F.@X{.n   0.K.+   V V R ! R R W a.Q Y ! a.a.a.~ ",
"! _ i.s.d.a.a.s.d.h.h.i.^ Y Y ~ ) R F A V q 7 * % % o o o $ X     k %...  f s   f ).#Xc.  k &.  X P p.i._ ! Y H ! i.a.a.s.a.~ a.",
"h.d.a.d.s.a.a.i._ a.d.a.R U Y ~ _ R R P P W P H I ( Q I L R C X   $.@X^., + #     +.OX_.y . #   9 p.s.p.Q P Y Y ~ i.d.d.a.a.i.a.",
"i.s.p.i.s.a.a.a.a.W a.a.Y Y ~ a.a.Q ~ W W / Q H R ! p.i.i.( W 7   = F.OXk     X   + A.@X`     % W d.i.i.i.H Y Y Y i.a.a.a.d.s.i.",
"i.s.p.! a.a.s.i.! W ~ / ~ R ~ a./ ! / a.~ W R R W R P W g.h.( F o   `  X .  & D %   k |.X.  % U i.Y i.a.a.i.R W ~ a.a.Q a.a.i.i.",
"! W Q R R Q a.a.! a.p.! Y a.a.l./ / a./ _ W J J P P K E Q Q ) p.V   # F. .  0 ! C   O S.X.  0 s.i.i.i.a.d.a.R i.i.a.i.~ a.s.i.Q ",
"g.! R R Q W W W a.s.d.! a.z.z.l.a.^ a.s.^ R R ~ R Q E ( ) Q ) p.E $   #.g   S p.R %   X.M   C s.d.d.a.i.W i.i.i.i.a.i.i.i.d.i.Q ",
"( i./ ! Q Y R Q i.s.p.) s.l.a.s./ _ l._ R ~ Q T Q ) Q p.f.p.p.p.i.r   > + o E p._ C   , # X W s.a.i.R i.i.i.Q i.a.a.a.i.Q i.i.Q ",
"! ) i.p.^ ~ Q P W a.a.! ^ l.z.l.^ / a._ ! ^ U J I Q I Q f.p.s.( i.L X     t p.g.d.I X     r i.s.a.a.a.a.a.i.K Q i.d.d.~ R W ~ a.",
"d.) p.s.i.Q ! ~ W a.a.! / h.x.s./ ~ ! p.) ) Q J L ) E ) ( E Q R ! ! o   9 Q p.p.d.( &   8 I ! s.a.a.Q i.Q Q Y Y Q a.a.i.W Y ~ i.",
"d.i.) p.s.( ) ) / a.a.a.d.s.i.d.s.) s.) ) p.Q R L L ( ) E Q Q R ! T 6 t ( s.s.p.( _ 9 r Q ) _ p.a.a.i.W Y i.W W Q Q ~ Y i.Q W ~ ",
"h.s.) p.d.d.f.i.! ) f.f.f.i.! p.! ( i.! E ( Q P P J I P I T W R Q W H i.K i.i.i.i.K H i.i.i.a.a.a.a.W W I g.d.i.s.i.i.K i.W K K ",
"i._ ( Q ! f.g.i.! p.s.i.i.! / i.! p.i.! ( f.( I E I J J Q Q Q K K H H H H K K i.H H H i.i.a.a.a.i.W i.W K i.h.i.i.i.p.R W R K R ",
"T R ! ! p.g.( ! E ( ( Q p.a.p.! Q Q ( p.p.g.( I ! Q K K ~ P J J K K K K H K K K i.H F K a.a.a.i.W W i.W i.p.i.W W i.i.i.i.Q i.i.",
"E Y R E ! p.p.) Q Q W ! _ s.p.R E Q i.p.( p.( ( ( W K P R U R R R K K K K K K i.i.K H i.a.a.a.a.i.a.i.i.i.d.i.Q Q i.R Q i.d.i.Q ",
"! U Y Y K Q p.! _ ! P W Q Q E P Q Q ! i.i.( ( E ! ! Q E R Y i.s.i.i.W R i.i.i.i.i.i.i.K ~ a.a.a.a.g.g.p.W i.s.i.i.d.i.i.g.g.d.d.",
"! W Y Y K Q ) W ! / Q Q I ) p._ Q Q ! f.f.i.( Q ( p.! E W W s.j.j.h.p.Q i.i.i.a.i.i.i.Y Y ~ H a.a.a.i.i.i.g.a.i.g.i.i.i.d.p.g.g.",
"g.Q J J R W E R R W W E ( ) i.i.! ) p.f.g.p.p.s.f.( P E i.s.i.i.p.g.i.i.a.i.i.i.a.h.a.i.H Y Y Y i.i.i.W i.i.K i.i.i.i.i.h.p.p.g.",
") P U Y W ! ! I E Q L L p.f.( ) ! i.i.p.f.( g.s.f.p.P L ( f.) W R R i.g.h.a.H i.a.d.d.Y Y ~ Y H W W Q i.W K K K K W i.h.j.g.i.i.",
"Y i.! W R ! i.i.p.( Q Q ( g.g.p.! p.a.a.W ) p.! Q ) K G K W ! I K Q g.j.s.i.Q Q a.d.i.Y Y Y Y i.i.Q Q i.a.R ~ Y K i.i.a.h.d.i.i.",
"~ Q i.W i.i.a.i.p.p._ p.g.f.p.( ! ^ s.d.i.i.) W P Q Y K P p.p.) i.d.p.i.i.g.p.p.l.a.Y Y Y Y Y Y a.a.i.i.i.Q ~ Y R W i.a.d.d.i.i.",
"i.W W a.d.a.d.i./ ! ! s.j.j.h.p.W R / h.d.i.Q K H K R W ) p.( g.i.p.p.i.g.g.g.j.a.a.H H Y i.Y a.i.i.a.a.R Y ~ Y Y Y H Y W i.i.i.",
"i.Y W s.a.i.d.d.i.! s.d.s.d.k.s.! ~ Q s.a.! ! P H J W W W K Q d.K K I Q Q g.h.h.a.H a.a.i.Y i.a.i.i.a.a.a.Y Y H H H H H K Q W i.",
"Y U U a.p.! d.g.a.Q d.d.! ! d.i.Y W W s.p.! i.( W K ! ! R J W ~ Y Y Y H Q h.d.a.a.Y a.a.~ i.W W i.i.i.i.i.Y Y H Q R W K K W Q K ",
"~ ~ H a.g.d.g.g.Q i.h.d.i.a.d.s.i.a.a.d.s.p.s.p.Q R Q / Q ~ W W / ^ R Y Q a.Y H Y Y a.a.Y Y Y a.i.i.W W ~ Y ~ ~ Q i.Q I W Q a.W ",
"a.~ Y a.g.d.s.i.W K Q l.h./ p./ p.h.s.a.s.s.) p.! ) ! ) ! / / a.s.a.a.~ W Y Y H H Y W W F F H U Y i.Y H Y R a.a.W W Q W Q Q R Q ",
"~ Y U a.a.s.i.i.! J Y a.s.a.i.s.g.d._ ! _ a.( Q ! ! ) g.i.i.i.s.d.a.d.l.a.~ ~ H H H Y H H Y H H H Y Y ~ i.a.d.z.a.i.Q J W W W Q "
};
