/* XPM */
static char *result[] = {
/* columns rows colors chars-per-pixel */
"64 64 211 2 ",
"   c #010100",
".  c #090406",
"X  c #070902",
"o  c #090C03",
"O  c #0B0608",
"+  c #0C0B0B",
"@  c #150905",
"#  c #10070B",
"$  c #120B0D",
"%  c #0E1305",
"&  c #111606",
"*  c #141A07",
"=  c #161D08",
"-  c #181F09",
";  c #180E11",
":  c #141313",
">  c #191516",
",  c #1A1718",
"<  c #1E1B1B",
"1  c #26110D",
"2  c #2B130B",
"3  c #261319",
"4  c #2A141B",
"5  c #241D1E",
"6  c #1B220A",
"7  c #1E290D",
"8  c #232C0D",
"9  c #26310E",
"0  c #29340E",
"q  c #243210",
"w  c #2A3611",
"e  c #2E3A11",
"r  c #313E12",
"t  c #261F20",
"y  c #3A1D26",
"u  c #222222",
"i  c #2B2324",
"p  c #2A2728",
"a  c #2C2D2D",
"s  c #36272B",
"d  c #302F30",
"f  c #3A2F30",
"g  c #3F3234",
"h  c #383536",
"j  c #3C3C3D",
"k  c #451F12",
"l  c #612C19",
"z  c #74341E",
"x  c #44212D",
"c  c #472A32",
"v  c #582B3A",
"b  c #413436",
"n  c #45393B",
"m  c #49393C",
"M  c #344314",
"N  c #394B17",
"B  c #3B4C16",
"V  c #3F5017",
"C  c #3E5119",
"Z  c #414F17",
"A  c #415117",
"S  c #435519",
"D  c #445C1C",
"F  c #4A5D1C",
"G  c #46611E",
"H  c #4C641E",
"J  c #4F691F",
"K  c #51661E",
"L  c #52691F",
"P  c #4B6620",
"I  c #4E6A21",
"U  c #506720",
"Y  c #536D22",
"T  c #5A6E22",
"R  c #567224",
"E  c #5B7524",
"W  c #5E7926",
"Q  c #557529",
"!  c #5A7628",
"~  c #5D7B29",
"^  c #657B24",
"/  c #627D26",
"(  c #617E29",
")  c #4C3F41",
"_  c #5D3542",
"`  c #683344",
"'  c #73394C",
"]  c #7C3E52",
"[  c #424242",
"{  c #4E4243",
"}  c #4C4D4D",
"|  c #524245",
" . c #5C484C",
".. c #5C4E50",
"X. c #525252",
"o. c #5C5959",
"O. c #614E51",
"+. c #7A4C5A",
"@. c #655154",
"#. c #6A585A",
"$. c #6D5F61",
"%. c #745E61",
"&. c #686666",
"*. c #7B6468",
"=. c #757676",
"-. c #873D23",
";. c #9D4728",
":. c #B1502D",
">. c #D35F36",
",. c #E6673B",
"<. c #8A445B",
"1. c #90475F",
"2. c #9B4C67",
"3. c #96576A",
"4. c #A14F6A",
"5. c #A4506C",
"6. c #AC5572",
"7. c #A55871",
"8. c #BB5C7B",
"9. c #81676B",
"0. c #856A6E",
"q. c #896E72",
"w. c #8B7477",
"e. c #96787D",
"r. c #C05E7F",
"t. c #668127",
"y. c #698327",
"u. c #658229",
"i. c #6A8529",
"p. c #6D892A",
"a. c #708628",
"s. c #718C2A",
"d. c #74912D",
"f. c #79952D",
"g. c #7A982F",
"h. c #6B8C31",
"j. c #749531",
"k. c #9B7D82",
"l. c #C56484",
"z. c #CB6486",
"x. c #CE6588",
"c. c #CE6C8B",
"v. c #CB708D",
"b. c #CE7490",
"n. c #D17894",
"m. c #D27995",
"M. c #808080",
"N. c #8B8B8B",
"B. c #9A8486",
"V. c #939494",
"C. c #9A9C9C",
"Z. c #A5858A",
"A. c #A7868B",
"S. c #AD8B90",
"D. c #B18E94",
"F. c #B98994",
"G. c #A89396",
"H. c #B9959B",
"J. c #B8969B",
"K. c #B99DA1",
"L. c #A4A4A4",
"P. c #AAABAB",
"I. c #B4B5B5",
"U. c #BBBBBB",
"Y. c #CA899A",
"T. c #D5839C",
"R. c #D1889D",
"E. c #D98CA2",
"W. c #CA97A3",
"Q. c #C39DA3",
"!. c #D695A6",
"~. c #DD9DAD",
"^. c #C7A0A6",
"/. c #C8A1A7",
"(. c #CCA4AA",
"). c #D4A6AF",
"_. c #D5ABB2",
"`. c #D9A8B1",
"'. c #CEB5B8",
"]. c #D6B2B7",
"[. c #DDB2B9",
"{. c #E2AAB6",
"}. c #E2ABB7",
"|. c #E3B5BC",
" X c #E5B8BF",
".X c #BDBFC0",
"XX c #D7BDC0",
"oX c #E6B9C0",
"OX c #E9BBC2",
"+X c #C3C3C3",
"@X c #CECECE",
"#X c #DFC3C7",
"$X c #CED0D1",
"%X c #D3D4D5",
"&X c #D7D9DA",
"*X c #DCDCDC",
"=X c #E5C7CB",
"-X c #EBC4CA",
";X c #EECCD1",
":X c #EED1D4",
">X c #F3D2D6",
",X c #F5D7DB",
"<X c #F7D8DC",
"1X c #F8DADE",
"2X c #FBDCE0",
"3X c #E3E3E4",
"4X c #E6E7E8",
"5X c #ECECEC",
"6X c #EFF0F1",
"7X c #F4F4F4",
"8X c #FFFFFF",
/* pixels */
"~ ~ u.u.t.a.d.s.p.p.t.E Y W Y R Y E t.E J W R J R R R p.j.p.y.y./ L L K S Z B B S P / i.W u.i./ E U R Y J G I R t.i.p.h.~ I Q ~ ",
"/ u.u.u.E t.i.t.t.W t./ W t.E E W E ~ E t.E Y Y R ~ u.h.s.u.F M 8 * o X   X X   X o & 8 B Y p.W I Y Y Y I G J J Y E u.p.h.Q ~ ~ ",
"/ W R W E / i.t.W t.i.s.t./ G B a.t.E E D 7 L Y R Q J N 0 &                       : , .   o 8 S W W W u.E E E J J W ~ ~ ~ Q I Q ",
"i.E Y Y T / s.s.t.W y.s.t.E = % L i.~ R *   S E J M 6 X   O [ w.n               j (.'.G.$.i     8 H p.d.W / W T ~ / i.W Q u.Q ~ ",
"/ / E L L E t.a.i.i.a.a.s.S X   e t.t.S O $ & B 6         #.:X#Xp             ..=X,X<X1X<X=XB.b   X e W u.u./ ^ / W / i.u.j.i.Q ",
"Y W W L E W y.s.s.p.i./ t.0 u g   V d.M 5 O.            p XX1XK..           ..=X,X,X,X,X,X1X2X=Xk.5   6 K t.E E t.u.t.~ h.h.W R ",
"E W t./ / t.a.i.t.a.u.L J * m D.> X F e $ i   .         w.1X<Xq.          m ].-X-X-X;X;X:X,X,X<X<X'.{   % H ^ E / u.u.W p.d.i.Q ",
"u./ E / ^ t./ i.p.i.E E Y 6 f [.k.$ o &     | &.      5 '.;XOX..        5 K.oXoXOX|.OXOXOXOX-X;X:X1X=X#.  & S K / u.i.t.u.t.~ R ",
"u.^ E ^ E T E / d.i.E E t.0 : Q.OXe.>     > '.G.       . X X|.n       . e.OXoXOXOX[.Q.H.H./.|.OXOX-X>X;X*.  & F a.y.s.p.( R Q W ",
"/ / / / 8 - H u.t.u.E L t.C   *.OXOXA.t   i =XK.+     w.OX X[.f       ) [.oXOX).q.b ; . + < ) A.|.OXOX-XG.>   6 S E i.i.u.E W ~ ",
"/ / u.S     & V L E E W y.9   t /. X XQ.b . #.Q.5   + D.OX X[.s     + S.OXoXF.c     p [ [ <   + @._.W. .+         % B / ~ E / i.",
"^ W / 8         9 G R t.S + s   ..|.OXOX_.O.+ | b   > /.OXOX|.b     m |.oXF.3   h L.3X8X7X*XN.<   m s   u =.P.L.o.+ X M W / i.u.",
"^ y.E N           = C E 0 s H.b X 0. X XoX|.9.$ $   < (. X X X|     e.OX!.s   } 3X8X8X8X8X8X8X+Xa     j @X8X8X8X7XC.: X S / t.R ",
"s.t.M 6             o N 0 i ]./.f $ e.OX XoX XZ.<   5 (.OXOX X@.  5 (.|.+.  a %X8X8X8X8X8X8X8X8XXX: < @X8X8X8X8X8X8XN.  6 / y.y.",
"s.D X                 X & X 0.OX/.| , e.oXoX XOXD.i $ Q.OX XOX0.  |  XW.4 . C.8X8X8X8X8X8X8X8X8X8XN.V.8X8X8X8X8X8X8X6Xj   S / t.",
"( w                         ; w. X|.q.f w.[. X XOXD.s #. X XOXA.. *.OX3.  j &X8X8X8X8X8X8X8X8X8X8X7X7X8X8X8X8X8X8X8X8XV.  7 T / ",
"/ U N e 6 +                   + @.).OX(.w.S.|.oX XOXD.i B. XOX).i Z.}._   =.4X8X8X8X8X8X8X8X3X@X7X8X8X8X8X8X8X8X8X5X8X%X: % E i.",
"^ W T ! R T H e - o           i + i e.[.OX|.|.oXoXoXOXZ.m _. X X@.J.~.y X C.6X8X8X8X8X8X8X6XX.: P.8X8X8X8X8X8X8XU.[ @X5Xd X L / ",
"i.i.W Y Y ( / E F M &         0.A.b : b k._.OXOXoXoXoX X%.w. X XD._.!.3 : P.6X8X8X8X8X8X8X.X+ + L.8X8X8X8X8X8X8X&.+ U.8XX.  K / ",
"T S N q 8 6 & o X             @.OX[.S.#.b | e.). XoXoXoX(.%.|. XoXoXY.> : I.5X8X8X8X8X8X8XP.  u P.8X8X8X8X8X8X7XX.: I.8XX.  U u.",
"H X                       + s 5 /.OXOXoX[.Q.D.Q. X X X XoXk.^.oXoXoXY.4 : P.3X8X8X8X8X8X8XI..   } 7X8X8X8X8X8X8X&.  M.7X[ X E i.",
"Y 6                       > k.5 | _.OXoXoXOXOX XoXoXoXoXOX/.Q.OXoXoX!.x   V.*X8X8X8X8X8X8X3Xa   N.8X8X8X8X8X8X8XP.p +X3Xu o E E ",
"E r                   o   : Q.S.i f Z._.oXOXOXOXoXoXoXoXoX|._. XoXoX~.`   &.%X6X8X8X8X8X8X8X.XN.5X8X8X8X8X8X8X8X7X*X8XU.O - E E ",
"~ D X           X 8 F 6   $ H.OX/.*.m | *.Z.H.^._. XoX XoXoX XoXoXoX{.2.  p .X3X8X8X8X8X8X8X8X8X8X*X*X8X8X8X8X8X8X8X8X&.  M ~ E ",
"R Y 6       % r L / M X   + S.OXOXOX[.Q.D.J.K.Q.`.|.oXoX XoXoXoXoXoXoXc.y   =.%X5X8X8X8X8X8X8X8X7Xo.} 4X4X8X8X8X8X8X+X, o I u.! ",
"u.W N   6 A ^ p.s.Y 6 M 9   *.OX XoXOXOXOXoXOXOXOXoXoXoXoXoXoXoXOXOXOXE.<.  , C.&X6X8X8X8X8X8X8XV.+   =.$X3X8X8X8X3X[   w R u.u.",
"p./ R S / d.p.i.p.T Y E V   f ~.oXOX|.OXoXoXoXoXoX XoXoXoXoXoX).q.%.*.W.l.v   u V.%X5X8X8X8X7XV.:     O o.I.%X3XU.[   6 Y W i.i.",
"p.i.W E E t.i.t./ / E E T % # 7.~.|.oXoXoXoX XoXoXoXoXoXoXoXoXD.t i 0.(.R.l.v   : X.V.U.+XL.} .           , f d +   & H i.i.~ u.",
"i.u.E L E t.t.~ Y Y L E / r   v z.T.{.{.~.{.oXoXoXoXoXoXoXoXoX X(.(.k.) J.E.l.` ;     : +     s g   k z 2 .         M / s.s./ / ",
"u.p.u.J R t.t.Q E E E u.a.T % O <.z.c.c.z.c.~.oXoXoXoXOXoXoXoXoX[.O.  t ).}.m.l.5.` y 4 4 c 0.Q.n   ;.,.>.:.l @     & r T y.i.W ",
"i.E E R R R Q u.u./ i.i.a.i.N   3 5.x.z.z.z.c.~.|.}.`.}.oXoXoXoX).O.) A.OXOXoX!.m.c.z.l.m.`.OXH.+ 1 :.:.;.-.l 2         X - B E ",
"/ W ~ u.W R Y W i.i.s.s.s.i.E 0   3 4.x.z.z.z.x.m.c.x.c.E.}.oXoXoX~.E.E.~.}.oXoX|.{.[.|.oXoXOX%.  @ 1 @         o & - 8 r F L E ",
"t.t.u.u.t.E R Q i.i.t.t.d.i.a.E 8   1 <.z.x.x.x.z.z.z.z.x.v.T.T.b.x.z.z.z.n.~.|. XoXoXOXoXoX_.s   O ; 4       9 S P I I I Q ! ~ ",
"t.t.t.p.p.u.W t.u.u.^ t.t.s.a.K 8     O v 5.z.x.z.z.z.z.z.z.x.z.z.z.z.z.z.z.z.n.~.|.|.|.}.{.Y.] <.4.<.y   o B H I P I I I Q Q Q ",
"u.t.p.d.d.t.t.y.i.W E t.W S 7 X       o   $ v 5.r.z.x.x.z.z.z.z.z.z.z.z.z.z.z.z.x.b.m.m.b.x.x.l.2.c O   = K p.u.~ I I I Q Q Y ! ",
"u.s.g.h.u.t.t.W T W R W 0       o 8 K ^ r o   O y ' 4.8.l.x.x.x.x.x.z.x.x.x.x.x.x.x.x.l.8.2.` 4 .   & M E u.i.f.j.u.! Q ! Q Q I ",
"Q u.u.u.W Y ~ u.E E Y W V X % e K y.p.t.^ Z X       # 3 x ` +.1.4.6.6.6.6.6.6.2.<.] v x 3       & M W y.u./ i.p.p.p.u.~ u.R R R ",
"t.Q u.u.W I Q u.E Y Y W E V J W i.s./ B 8 o       * & o         . # ; $ # # # .         X 6 e D U ^ W ( s.p.s.d.p.p.u.u.u.R I P ",
"u.Q u.u.i.t.u.Q G I W t.u.u.t.t.u.p.K X     o 6 A E L F V B e 8 - - - * = 6 6 6 7 9 M B D G Y / W Y I E / d.d.p.u.u.t.p.p.t.~ ~ ",
"u.u.u.u.s.u.W u.I J J E y.u.y.u.u.i.W = o 0 H L W y./ L E E t.Y K T W T E ^ i.E G Y R L L I R u.~ U P Y u.p.u.~ i.u.u.p.p.t.s.s.",
"u.i.p.i.u.u.Q I Y J J W W t.i.i.E u.i.P Y y.i.Y L W W L T E J G D R / u.t.t.W Y G R W R E R E u.u.Q I I u.u.E ~ u.u.i.i.u.i.i.t.",
"t.t.t.i.t.u.t.Q E E Q i.u.t.R W / W Q Q ~ ( W E E t.y.E E E J H I / s.s.E L L E J Y E W ~ ~ ! ~ u.Q Q Y ~ Q R W u.i.u.t.W t.p.u.",
"t.t.t.u.R t.u.t.W E t.d.u.u.t.u.i.( Y I Y E E E E E a.t.E L H E y./ E E T H K L P P R ( ~ u.! ~ u.u.u.I Q i.u.W W i.R R Y E R W ",
"R t.i.u.t.u.p.t.W W W W t.t.p.p.i.i.! R R i.W T t.t.y.y.y.E J t.y.^ E ^ / E E Y R Y Y E u.h.~ u.h.j.j.u.t.p.i./ R R R Q I Y W p.",
"Q t.u.R R p.t.t.t./ t.t./ W W u.i.i.W / u.s.i.( y.t./ t.s.W E t.y.y.i.y.y.^ ^ E Y E Y Y ( h.u.~ h.h.h.u.t.u.i.u.T Y U W ~ / u.t.",
"t.t.Y Y t.p.p.u.E Y E i.t.u.u.~ i.t.u.t./ / p.i.s.y.E ^ s.i.i.t./ y.y.i.T L / L H I ! W ( u.~ ! h.h.u.u.W ~ t.R U E R W i.u./ W ",
"Q Q I Y t.u.u.Q J J E E t.W u.u.i.W / i.y.u.a.p.y.y./ t.y.s.y.E Y E ^ ^ ^ E ^ L P Y / / u.~ E ! u.j.j.~ E u.u.R E W E / y.y./ y.",
"R R Q t.Y R Q R R R ~ L Q W i.t.i.~ / / i.i.^ / y.i.y.y.y.E E W Y E T L ^ E L K U W i./ ( i./ i.h.u.p.p.u./ i./ / / u.i.u./ u.a.",
"I J R E R E t.t.t.p.p.L R R t.p.p.u.t.t.t.Y J R t.t.R J W L E E R L L L J L H J L T ^ T W t.W / i.E u.p.s.a./ E / i.i.s.y.^ i.s.",
"R Y R E E i.t.t.t.s.t.J E t.E t.t.u.p.t.R J J J Y t.Y G G G H J L R W E H H T T T ^ a.^ W t.y.E t.u.E t./ i.y./ y.s.s.W W / ( i.",
"t.R t.E E y.y.E E t.y.t.R t.E E t.t.u.u.Y G J Y Y J J H J J J J H J L R J H E ^ T ^ a.y.y.^ E E E i.t.t.E ^ / E ^ / s.y.W W Y Y ",
"t.t.s.u.W E E E W t.s.t.R t.t.t.t.u.u.u.t.G Y t.t.R J J J J J J L L J R L J T t.^ y.y.t.y.t.E E Y t.i.t.E E E E ^ / y.W Y U U T ",
"i.i.s.s.p.t.s.t.t.y.t.J u.d.d.p.u.t.Q Q R t.t.t.t.t.t.t.J R t.t.p.( Y Y E E E E T ^ t.t.t.W E E Y E W E T L W / / i.E J U I I E ",
"s.s.t.s.t.t.i.s.t.y.s.t.u.u.t.u.u.Y I I I R t.u.p.y.t.t.t.y.s.f.f.p.Q Y E E y.^ E ^ t.a.y.W E E / t.W T E E W E R W E J I U R W ",
"s.t.i.d.t.W t.t.t.J t.t.E t.t.E Q P G P R p.d.u.t.t.t.y.t.t.p.p.y./ i.u.T L t.a.a.y.y.a.p.i.W W t.^ t.^ E R L R L E R J H H E s.",
"t.t.s.f.s.t.Y J J G J Y t.E t.R I I Q P t.s.p.t.R R t.s.p.t.L J Y / i.^ J J y.a.a.a.y.y.u.t.t.t./ t.i.t.K K W T R E W W I H Y W ",
"t.t.s.g.u.t.u.P J R I t.t.t.R t.R J P I Q R p.p.E E ^ i.d.s.E Y T / R H D L W E W y.t.E W y.u.R y.s.s.t.E Y t.t./ / W R Y ~ W R ",
"t.t.p.p.u.u.I t.J R Q Q R t.u.t.t.I P I I R p.p.y.i.s.i.^ y.i./ / y.i.L J L T R L t.t.t.s.u.t.R t.y.s.s.y.t.u.u.u.i.t.W R W W R ",
"t.t.t.J G G P I R Y I u.t.t.t.t.t.E Q Y G G Q i.f.s.s.i.i./ ^ u.s./ i.W I R J G J W t.s.s.t.J Y t.s.f.f.y.W R t./ i.i.d.u.Q R t.",
"t.R t.P G G G G G I I u.u.t.t.t.t.Q Y R u.Q Y p.d.d.s./ W Y I T a.E L E R E H G J W E u.i.E R u.i.f.s.i.p.i.t.t.i.s.W i.i.Q Y W ",
"J R I J G t.I R G G I t.p.t.t.t.~ R Q Q u.i.Q ! ~ p.j.Q P P I I R Y P Y W ! I R t.t.E y.i.R R Y t.s.t.W i.p.E u.d.i.t.u.W G P Q ",
"R u.t.R P Q t.R u.u.I Q R R u.t.W I J Y ~ ~ P I P Y u.Q I Y W ! Y E R E ~ E Y E t.y.y.i.s.t.u.t.i.s.t.t.s.d.t.R s.s.u.d.t.J Q Q ",
"R R I R P t.I u.u.u.I I I I t.I P G C G R R P P P P Y E ! u.( i.u.( W W u.E E / t.t.u.u.u.i.j.u.W t.W d.s.Q J R t.u.p.s.u.I Q Q ",
"E R R R G u.u.u.h.u.u.t.Q I G G G J Y P G P P D P I Q u.h.h.( s.i./ y.y.s.y.E W W u.i.t.Q u.p.p.u.u.u.u.u.J H W u.t.u.u.u.Y I ~ "
};
