/* XPM */
static char *result[] = {
/* columns rows colors chars-per-pixel */
"64 64 210 2 ",
"   c #010100",
".  c #080607",
"X  c #060902",
"o  c #090C03",
"O  c #0C0709",
"+  c #0B0A0A",
"@  c #170A06",
"#  c #120B0E",
"$  c #0D1205",
"%  c #111606",
"&  c #131907",
"*  c #151C08",
"=  c #150E10",
"-  c #1C0C12",
";  c #151414",
":  c #1A1516",
">  c #1D1718",
",  c #171818",
"<  c #1B1A1B",
"1  c #30150C",
"2  c #220F16",
"3  c #261219",
"4  c #29141B",
"5  c #221B1C",
"6  c #371918",
"7  c #1B230A",
"8  c #1E290D",
"9  c #20270B",
"0  c #232D0D",
"q  c #26310E",
"w  c #2A340F",
"e  c #263410",
"r  c #293610",
"t  c #2E3B12",
"y  c #323E12",
"u  c #261F20",
"i  c #321A22",
"p  c #3C1D27",
"a  c #252324",
"s  c #2B2324",
"d  c #2B2A2A",
"f  c #342A2C",
"g  c #342B2D",
"h  c #3A2F31",
"j  c #373637",
"k  c #3E3234",
"l  c #441E11",
"z  c #552616",
"x  c #77351E",
"c  c #43222D",
"v  c #4C2834",
"b  c #542938",
"n  c #413436",
"m  c #47393B",
"M  c #453A3C",
"N  c #54343D",
"B  c #602F3F",
"V  c #344314",
"C  c #3B4A16",
"Z  c #3B4F18",
"A  c #3D5219",
"S  c #415017",
"D  c #425419",
"F  c #445C1C",
"G  c #495D1C",
"H  c #46611E",
"J  c #4C631E",
"K  c #4F691F",
"L  c #52661E",
"P  c #52691F",
"I  c #586C1F",
"U  c #4B6620",
"Y  c #4E6A21",
"T  c #506720",
"R  c #526D22",
"E  c #596E21",
"W  c #567224",
"Q  c #5A7524",
"!  c #5E7926",
"~  c #557529",
"^  c #597628",
"/  c #5D7B29",
"(  c #667B25",
")  c #627D26",
"_  c #617E29",
"`  c #4E3F41",
"'  c #5A3C44",
"]  c #653243",
"[  c #773A4E",
"{  c #7E3F54",
"}  c #4D4243",
"|  c #484848",
" . c #534345",
".. c #564649",
"X. c #5E4C4F",
"o. c #5A4F50",
"O. c #595959",
"+. c #634E51",
"@. c #7C4E5B",
"#. c #685659",
"$. c #6C575A",
"%. c #715A5E",
"&. c #755E62",
"*. c #626262",
"=. c #6B6768",
"-. c #7A6669",
";. c #737374",
":. c #7B7B7C",
">. c #883D23",
",. c #9C4628",
"<. c #AB4D2C",
"1. c #C45832",
"2. c #E0653A",
"3. c #803F55",
"4. c #8B455C",
"5. c #925065",
"6. c #A7526E",
"7. c #AE5573",
"8. c #B35977",
"9. c #BD5D7C",
"0. c #83696D",
"q. c #876C70",
"w. c #896F73",
"e. c #8C7578",
"r. c #93767B",
"t. c #95787D",
"y. c #987B7F",
"u. c #C15E7F",
"i. c #668127",
"p. c #698327",
"a. c #658229",
"s. c #6A8529",
"d. c #6D892A",
"f. c #708628",
"g. c #718C2A",
"h. c #74912D",
"j. c #79952D",
"k. c #7A982F",
"l. c #6B8C31",
"z. c #749531",
"x. c #789732",
"c. c #9B7D82",
"v. c #BA6A83",
"b. c #C35F80",
"n. c #CB6486",
"m. c #CA6787",
"M. c #CE6688",
"N. c #D06D8D",
"B. c #D27894",
"V. c #8D8D8D",
"C. c #9A8285",
"Z. c #939494",
"A. c #9E9E9E",
"S. c #A18286",
"D. c #A5858A",
"F. c #A9898E",
"G. c #AC8D92",
"H. c #B58B93",
"J. c #AD989B",
"K. c #B59297",
"L. c #BA969B",
"P. c #BF9AA0",
"I. c #A1A1A2",
"U. c #ABACAC",
"Y. c #B4A9AB",
"T. c #B4B6B6",
"R. c #BBBBBC",
"E. c #CA889A",
"W. c #D5849C",
"Q. c #D08A9E",
"!. c #C2929C",
"~. c #D98DA2",
"^. c #C29CA2",
"/. c #D894A7",
"(. c #D59BA9",
"). c #C7A0A6",
"_. c #C8A1A7",
"`. c #CDA5AB",
"'. c #D0A6AD",
"]. c #D2A9AF",
"[. c #DFA2B1",
"{. c #D4ABB2",
"}. c #DAAFB6",
"|. c #C9B0B3",
" X c #DBB0B7",
".X c #DDB2B9",
"XX c #D3B9BC",
"oX c #E2A9B5",
"OX c #E2A9B6",
"+X c #E3B6BD",
"@X c #E5B8BF",
"#X c #E6B9C0",
"$X c #E9BBC2",
"%X c #C3C3C3",
"&X c #CACBCB",
"*X c #DDC2C5",
"=X c #D4D4D5",
"-X c #D9DBDC",
";X c #EBC5CA",
":X c #EEC9CE",
">X c #EFCCD1",
",X c #EFD2D6",
"<X c #F3D3D7",
"1X c #F5D6DA",
"2X c #F8DADE",
"3X c #FCDDE1",
"4X c #E3E4E4",
"5X c #EBECEC",
"6X c #F3F3F3",
"7X c #FFFFFF",
/* pixels */
"/ / i.a.i.s.j.g.d.s.i.Q R ! P W R ~ i.Q K ! W Y W ~ W s.x.d._ p.p.Q ) P I G G G J I ( s.! i.s.) W T Q R K H Y ~ s.s.d.l./ Y ~ ~ ",
") i.a.i.Q i.s.i.i.! p.) ! i.Q Q ! Q ! Q a.i.K R W ! a.d.d.p.E S t * % o X X X X o % 8 V G ) g.! Y R W Y R F H Y R Q a.l.l.~ ~ a.",
") ! ~ / Q ) s.p.! ) s.g.i.! ! i.d.i.Q Q p.i.E R ~ ~ Y A V 7 X                     + +     % y J ) ! Q a.Q Q Q J K Q i./ a.~ ~ ~ ",
"s.! R Y E p.s.g.i.) s.g.p.i.! p.i.s.! ) ! s.d.Q R A 8 o     g *.f               h J.Y.e.} ;   X t ) d.h.! i.! E ! i.i.! ~ a.W ! ",
") ) Q P I Q i.f.d.p.s.d.d.a.! i.d.s.i.i.p.s.s.U 8 X       #.:X*Xs             } XX2X2X2X,X|.-.5   $ Z p.i.i.) ( i.! a.a.a.z.a.~ ",
"W Q Q E Q Q p.g.d.d.s.i.i.Q K Q ! s.s.d.s.) V o         s XX3XJ..           ..*X2X1X2X1X2X2X2XXX=.#   q E i.! Q i.p.! ! l.l.! W ",
"Q ! i.) ! i.s.s.p.s.i.R K ~ W ! Q Q s.i.U 9             e.2X2X-.          k {.:X;X:X>X,X<X1X1X2X<XJ.f   7 I ! E Q p.a.a.d.l.s.W ",
"i.) Q ) i.i.) s.g.s.Q W W a.s.s.T U W Z $   j o.      a XX>X;X}         5 L.$X$X$X@X$X$X$X;X:X,X1X2XXXM   8 L L ) p.a.i.i.i.a.W ",
"i.i.Q ) ( Q W i.h.s.Q Q i.W Q i.Q Y V o   , XXC.      X.#X#X.Xk       . r.$X$X$X$X@X{.^.).}.$X$X$X:X1X*X}   7 L s.s.g.d.i.~ ~ Q ",
"! ) ( ) 9 w W ( i.i.Q K i.i.i.p.a.A X     k ,XG..     t.$X$X.Xh       m OX#X$X}.c. .u = > g %.L.$X$X$X:XJ.;   0 L p.s.d.a.Q ! ! ",
"( ) i.D     7 J R Q Q ! d.d.p.a.G X       } $XP.;   # L.$X#X Xf     # G.$X#XL.N .   ; a < +   > q.@X'.#.;         7 J ( ! Q a.i.",
") ) ) 9       o V J R i.p.! s.K $ . s     } $X Xk   > _.$X#X.Xh     m +X#X!.i   a Z.=X4X4X%X*.+ . +.v   ; *.Z.:.j   o S ) ) s.a.",
"( i.Q t           8 G Q i.p.i.8   *.G.+   n +X$X0.  s '.#X@X.Xn   . c.$X(.c   | =X7X7X7X7X7X7XI.;     g %X7X7X7X5X:.. $ J a.i.W ",
"g.i.Z 0             * F i.Q C   g {.@X .  a ].$X^.5 u {.$X#X@X`   5 '.#X@.  d =X7X7X7X7X7X7X7X7XA.. < %X7X7X7X7X7X6X=.  0 i.p.s.",
"g.G X                 o V F $ o D.$X$X!.5 + H.$X@X-.> `.#X@X$X&.  ..@X!.3 + Z.7X7X7X7X7X7X7X7X7X7X=.V.7X7X7X7X7X7X7X-Xd   J ) ( ",
"! 0                       $    ..X@X$X$XF.> $.@X$X`.n L.$X@X$Xc.  w.$X5.  j -X7X7X7X7X7X7X7X7X7X7X5X6X7X7X7X7X7X7X7X7X:.  w Q ) ",
"_ G y 0 % .                 + F.$X@X$X@X$XD.m ^.$X$XF.G.$X$X$XP.5 G.OXN   :.5X7X7X7X7X7X7X7X6X4X7X7X7X7X7X7X7X7X7X7X7X%X+ * ! p.",
"( ! R ^ T U C 8 %           k  X$X@X@X@X@X$XP.K.#X#X.X X$X$X#X}.' ^.(.i + I.6X7X7X7X7X7X7X6XO.d %X7X7X7X7X7X7X7X%XO.4X4Xa o W ( ",
"s.s.Q R R a.a.Q J y $       &.$X@X@X$X$X$X@X$X@X@X#X@X$X@X@X@X$XS.`.E.- , T.6X7X7X7X7X7X7XR.. + U.7X7X7X7X7X7X7XO.+ %X6Xj X P ( ",
"Q G S V r 0 7 & $ X       . D.$X$X@X@X@X@X@X$X@X@X$X@X@X@X$X#X@X.X#XE.: < R.5X7X7X7X7X7X7XZ.  j T.7X7X7X7X7X7X6X| a &X6Xj X R a.",
"F o                       ; ^.$X#X#X@X$X@X@X@X$X@X$X@X@X$X@X@X@X#X#XE.- , T.5X7X7X7X7X7X7XA.    o.7X7X7X7X7X7X7X|   V.6Xj o ) p.",
"T %                       5 _.$X#X#X@X@X$X@X@X@X@X$X@X$X@X@X$X$X#X#XQ.i + I.4X7X7X7X7X7X7X=X,   V.7X7X7X7X7X7X7XV.; %X4X< % Q Q ",
"W r                   X   5 `.$X@X$X#X#X$X@X$X@X@X@X$X@X@X$X@X@X#X#X/.b   :.-X6X7X7X7X7X7X7XA.:.4X7X7X7X7X7X7X7X6X%X7XT.. 7 Q ^ ",
"! A               7 Z *   > _.$X@X@X#X@X@X@X$X@X$X@X@X@X@X@X.X@X#X#X[.4.  j &X4X7X7X7X7X7X7X7X7X7X4X5X7X7X7X7X7X7X7X7X=.  V ! ! ",
"Q R *       o w J ) C     + L.$X#X#X#X@X@X#X$X@X^.@X#X#X@X@X_.@X#X#XOXv.3 . V.-X6X7X7X7X7X7X7X7X6X*.;.6X5X7X7X7X7X7X&X, o T a./ ",
"a.Q t   & V E s.g.I * t 7   y.$X#X#X#X#X#X$X+Xr.c.$X@X#X@X@XK.+X$X$X$XW.[   d T.4X6X7X7X7X7X7X7XA.+ + V.=X5X7X7X7X5X|   r W a.a.",
"d.i.T C Q g.g.s.d.P L Q C   ' oX$X#X#X$X$X_.#.+.}.#X#X#X@X@XD.'.D.t.S./.n.c   j U.-X6X7X7X7X7XI.,     ; :.%X4X6X&X|   * R Q a.s.",
"d.a.Q Q Q i.s.a.( ! W Q P o - v.[.@X$X{.w.s ` `.$X#X#X#X@X{.q.c.: 5 &.{.B.7.i   a ;.U.&X=XR.*.+         . d | } >   * J s.s.) _ ",
"a.s.Q P Q a.a.Q W R R Q ! q   ] N.Q.t.f O #.{.$X@X#X#X@X$XH.-. XL._.F.X.L.B.8.v .   ; < < +   > d   l z @ X       X Z ( g.h.) ! ",
"a.d.a.Y W a.i.~ Q Q ! i.s.L X - { c   > r.@X$X@X@X$X@X@X$X$.y.$X X$.. s {.oXB.u.4.v 2 # - i %.L.n   ,.2.1.>.l @     * S ( g.s.! ",
"s.Q Q R W W ~ a.) ) s.s.s.s.t       n ^.+XK.S.}.#X'.{.$XL.g ^.$X_.m h C.$X$XOX~.N.m.u.8.v.(.$XK.@ 1 1.1.<.,.x 1         o 0 G W ",
") ! i.a.! W R ! d.s.d.g.g.f.J X   +.`.G. .#.`.}.w.r.+X+X.. .@X$X$X(.Q./.[.@X$X@X+X[.[.oX@X$X$X%.  @ 6 @ O       X o % 7 q C L Q ",
"i.i.a.s.i.Q W ~ i.s.i.i.g.g.C    .^.+.> &..XL.m $.}.$Xr.= 5.~.~.B.N.n.n.N.W.[.@X@X$X@X@X@X$X].s   . O - X     9 A H U U Y W ^ ! ",
"a.i.i.s.d.i.! i.i.a.) p.s.s.r # w.f + w.@Xy.> .. X;X!.5 c b.n.n.n.n.n.n.n.n.N.W.oX$X$X@X@XOXH.] [ 4.3.p   X y U Y U Y Y Y ~ ~ / ",
"a.a.d.h.h.a.i.a.d.! Q i.( J % + > . q.@Xe.O n ].$X].n O 4.M.n.n.n.n.n.n.n.n.n.n.M.B.W.W.B.N.M.n.6.] -   % G s.a./ Y Y Y ~ ~ Y ^ ",
"i.l.z.z.a.! i.! W ! I Q w X        .+XS.# 5 L.$X+X#.  v n.M.M.M.n.n.n.n.n.n.n.n.n.n.n.n.9.6.{ c #   o t R p.s.k.z._ / ~ / ~ ~ Y ",
"! a.a.a.! W ! a.Q Q K ! V   X   . F.].s   r.$X$Xw..   4 B { 5.6.7.8.9.9.9.9.8.7.6.4.[ b i #     o t E a.p.) a.d.d.d.a./ / ~ W R ",
"~ i.~ a.Q Y ~ s.Q R W ! P V V   + L.0.  n .X$XF.;   +         # # - 3 4 4 2 # # +         $ 0 S T Q ! _ g.d.g.h.s.g.a.a.a.Q Y U ",
"a.a.a.a.s.a.! ~ H Y ! ) i.p.K X   &.h   y.$X_.f   s f   X.$.k     o $ o o $ & * * 8 e V A H R ) ) R Y Q a.h.h.d.s.a.a.d.s.a./ ! ",
"i.a.a.a.g.s.i.a.Y Y K Q s.p.p.0   # + 5 `.@XX.    # O > ^.$X$.    C I L P Q ( R H P W P P K W _ Q T U R _ d.a._ a.i.i.d.d.a.g.g.",
"i.a.d.p.a.a.~ Y R R Y ! i.i.d.Q %     ` $XS.+   X     k +XG.=   8 W ( i.i.s.Q R H Q ! W ~ W Q a.a.~ Y ~ a.a.W a.i.a.a.d.a.i.d.a.",
"i.i.i.s.i.a.a.~ Q W ~ i.i.a.W ! U %   X.}.k   % S *    . X`   $ F ( g.g.E P R Q K P ~ Q / / ^ / ~ ~ ~ R ~ ~ Q ! a.d.i.i.Q d.s.i.",
"i.i.a.a.Q ! a.i.! Q i.g.a.i.! i.s.0   +.D.+   V ) q    .H.+   V s.) ! Q Q K K K J U Q a./ a./ ^ a.l./ R Q s.a.! / a.Q R W Q W Q ",
"W i.d.a.i.i.d.a.) ! ! ! i.a.g.l.d.C   n X.  % R p.Z   h #.  $ E p.( W ( ) E Q I W W Y Q l.a./ a.l.z.z.a.a.g.a.) ~ W W Q Y W ! d.",
"i.a.i.W i.d.p.i.i.! i.i.) ! Q a.d.R o # >   C ) s.I $ + >   V i.p.s.p.f.( ) ( Q W Q W R _ l.a./ l.a.l.l.a.i.s.i.E R R Q ! ) a.( ",
"~ ~ R R W d.s.s.Q Y ! s.i.a.s./ d.i.t     X R d.s.p.y       K i.( p.p.s.Q P Q I J U ^ Q a.i.! / a.z.d.! ! _ a.W T Q W ^ s.a.) ! ",
"i.~ Y R i.a.a.~ K Y Q Q a.! s.a.a.Q E 9   * ( g.p.p.W 0   $ Q Q I Q Q ( ( Q ( L U W ) _ a.! Q Q a.z.z.! / / i.W ^ ! Q p.p.p.) s.",
"W W ~ i.R ~ W Q Q Q ! Y Q ! a.a.s.a.) W r 0 ) ( p.f.s.) y 7 E Q R W Q E Q ( L L T Q p.) / s._ d.l.a.d.d.i.i.a.) ) ( _ s.p.) i.d.",
"K K W Q W ! ! p.i.d.d.W R W i.p.d.i.i.i.i.H K Q i.i.i.K Q H Q Q W W I P P P K I I E ( E ! i.! ! s.Q i.d.d.g.( Q ( s.g.d.p.( s.h.",
"W R W Q Q f.p.i.i.g.p.K Q i.Q i.i.a.d.i.W K H K W W I F H H H K P W Q Q J J I I I ( f.( ! i.p.Q a.i.Q i.( s.a.) p.g.d.) Q ( _ a.",
"i.W ! i.Q p.p.Q Q i.p.i.W i.Q W i.i.a.a.W H K W R K K H K K K K J J P ~ K K ! ! I ( f.p.p.( Q Q Q s.a.p.Q ( ( Q Q ) g.p.Q ! T E ",
"i.i.g.i.Q W Q Q ! i.g.i.i.i.i.i.a.a.a.a.W K W i.i.W R K K K K K I T J R P K I i.! p.p.i.p.i.Q Q R s.s.! Q Q Q Q ( p.p.Q W R T R ",
"a.s.g.g.d.i.g.i.i.p.i.K i.g.g.d.a.~ i.W W i.i.i.i.i.i.i.K Q i.i.d._ R Y I Q ! E E ( ( i.p.Q Q Q R Q Q Q Q P ! ) ! s.Q K T Y Y Q ",
"g.g.i.g.! i.d.g.p.p.g.i.i.i.a.a.i.~ U Y Y R i.s.s.p.p.i.i.p.h.j.k.s.~ W Q ! p.i.! ( i.f.d.! Q Q ) p.Q I Q Q ! ! Q ) Q K T R W ! ",
"g.p.s.h.i.i.! i.i.H i.i.i.W i.W ~ U U H W d.g.s.i.i.i.p.i.i.d.s.a.( s.i.I P i.f.f.p.p.f.s.a.i.! i.) ) ( Q W I R R Q Q K J J Q g.",
"i.i.g.j.g.i.W R K K W W W i.W i.Y Y ~ U i.g.g.i.W W i.g.s.i.I K W ( s.( K K p.f.f.f.p.p.a.i.i.i.) i.f.p.L L Q W I Q Q ~ R Y P Q ",
"i.i.g.z.a.a.i.U K W Y a.i.i.W i.~ K K Y W ~ d.d.Q Q ( d.h.g.W R E ! R J H P ! Q Q p.i.W i.i.a.W p.g.g.i.Q K i.i.i.! ! W R ! ! W ",
"i.i.d.d.a.a.Y i.K W W i.W i.a.i.i.Y H Y Y W d.g.p.s.g.i.p.s.s.) ) s.p.E K K Q E I i.i.i.g.a.i.W i.p.g.g.p.i.i.i.a.s.a.! W ! i.W ",
"i.i.i.Y H H H Y W W Y ~ i.i.i.i.a.~ ~ Y H H ~ a.j.g.g.d.( i.p.( f.) p.! R R K H K ! i.g.g.i.Y R i.g.j.j.s.! i.i.i.d.s.g.a.W W i.",
"i.W i.Y H H H H H Y Y a.i.i.i.i.i.W W W a.~ R d.h.h.g.) Q R Y Q g.Q P Q W Q J H R Q Q a.p.Q W a.d.j.d.s.d.d.Q i.i.d.i.a.s.~ R ~ ",
"K W Y K H i.Y Y H H Y i.a.i.i.i.~ W ~ ! a.a.R / ! l.h.~ U U Y T Q R U R / ^ K W i.i.Q p.s.W W Y i.g.i.! s.d.Q a.h.s.i.a.i.H Y ~ ",
"W i.i.W H i.i.i.a.i.Y ~ W i.i.i.a.Y K K a./ Y Y U W a.~ Y T ^ ^ ~ W Q W ! ~ R Q i.p.p.d.d.i.s.i.s.d.i.i.d.j.i.W g.g.a.h.i.H ~ ~ ",
"W R W W Y i.Y i.a.a.Y Y H Y ~ Y Y H H A R R U U U U R W ^ l._ s._ _ ) ! i.Q Q ) i.i.a.a.a.s.h.i.! a.! h.d.~ K W i.i.d.l.a.Y ~ ~ ",
"Q R W W H ~ a.l.l.a.a.~ i.Y Y H H U Y U U Y U F U R W a.l.s._ g.s.( p.i.g.p.Q ! ! a.a.i.! a.d.l.a.a.a.s.i.K K ! i.a.a.a.a.Y Y a."
};
