/* XPM */
static char *result[] = {
/* columns rows colors chars-per-pixel */
"64 64 210 2 ",
"   c #010100",
".  c #090406",
"X  c #070902",
"o  c #090C03",
"O  c #0B0608",
"+  c #0C0B0B",
"@  c #150905",
"#  c #10070B",
"$  c #120B0D",
"%  c #0E1305",
"&  c #111606",
"*  c #141A07",
"=  c #161D08",
"-  c #181F09",
";  c #180E11",
":  c #141313",
">  c #191516",
",  c #1A1718",
"<  c #1E1B1B",
"1  c #26110D",
"2  c #2B130B",
"3  c #261319",
"4  c #2A141B",
"5  c #241D1E",
"6  c #1B220A",
"7  c #1E290D",
"8  c #232C0D",
"9  c #26310E",
"0  c #29340E",
"q  c #243210",
"w  c #2A3611",
"e  c #2E3A11",
"r  c #313E12",
"t  c #261F20",
"y  c #3A1D26",
"u  c #222222",
"i  c #2B2324",
"p  c #2A2728",
"a  c #2C2D2D",
"s  c #36272B",
"d  c #302F30",
"f  c #3A2F30",
"g  c #3F3234",
"h  c #383536",
"j  c #3C3C3D",
"k  c #451F12",
"l  c #612C19",
"z  c #74341E",
"x  c #44212D",
"c  c #472A32",
"v  c #582B3A",
"b  c #413436",
"n  c #45393B",
"m  c #49393C",
"M  c #344314",
"N  c #394B17",
"B  c #3B4C16",
"V  c #3F5017",
"C  c #3E5119",
"Z  c #414F17",
"A  c #415117",
"S  c #435519",
"D  c #445C1C",
"F  c #4A5D1C",
"G  c #46611E",
"H  c #4C641E",
"J  c #4F691F",
"K  c #51661E",
"L  c #52691F",
"P  c #4B6620",
"I  c #4E6A21",
"U  c #506720",
"Y  c #536D22",
"T  c #5A6E22",
"R  c #567224",
"E  c #5B7524",
"W  c #5E7926",
"Q  c #557529",
"!  c #5A7628",
"~  c #5D7B29",
"^  c #657B24",
"/  c #627D26",
"(  c #617E29",
")  c #4C3F41",
"_  c #5D3542",
"`  c #683344",
"'  c #73394C",
"]  c #7C3E52",
"[  c #424242",
"{  c #4E4243",
"}  c #4C4D4D",
"|  c #524245",
" . c #5C484C",
".. c #5C4E50",
"X. c #525252",
"o. c #5C5959",
"O. c #614E51",
"+. c #7A4C5A",
"@. c #655154",
"#. c #6A585A",
"$. c #745E61",
"%. c #686666",
"&. c #7B6468",
"*. c #757676",
"=. c #873D23",
"-. c #9D4728",
";. c #B1502D",
":. c #D35F36",
">. c #E6673B",
",. c #8A445B",
"<. c #90475F",
"1. c #9B4C67",
"2. c #96576A",
"3. c #A14F6A",
"4. c #A4506C",
"5. c #AC5572",
"6. c #A55871",
"7. c #BB5C7B",
"8. c #81676B",
"9. c #856A6E",
"0. c #896E72",
"q. c #8B7477",
"w. c #96787D",
"e. c #C05E7F",
"r. c #668127",
"t. c #698327",
"y. c #658229",
"u. c #6A8529",
"i. c #6D892A",
"p. c #708628",
"a. c #718C2A",
"s. c #74912D",
"d. c #79952D",
"f. c #7A982F",
"g. c #6B8C31",
"h. c #749531",
"j. c #789732",
"k. c #9B7D82",
"l. c #C56484",
"z. c #CB6486",
"x. c #CE6588",
"c. c #CE6C8B",
"v. c #CE7490",
"b. c #D17894",
"n. c #D27995",
"m. c #808080",
"M. c #8B8B8B",
"N. c #9A8486",
"B. c #939494",
"V. c #9A9C9C",
"C. c #A5858A",
"Z. c #A7868B",
"A. c #AD8B90",
"S. c #B18E94",
"D. c #B98994",
"F. c #A89396",
"G. c #B9959B",
"H. c #B99DA1",
"J. c #A4A4A4",
"K. c #AAABAB",
"L. c #B7ADAF",
"P. c #B4B5B5",
"I. c #BBBBBB",
"U. c #CA899A",
"Y. c #D5839C",
"T. c #D1889D",
"R. c #D98CA2",
"E. c #CA97A3",
"W. c #C39DA3",
"Q. c #D695A6",
"!. c #DD9DAD",
"~. c #C7A0A6",
"^. c #C8A1A7",
"/. c #CCA4AA",
"(. c #D4A6AF",
"). c #D5ABB2",
"_. c #D9A8B1",
"`. c #CEB5B8",
"'. c #D6B2B7",
"]. c #DDB2B9",
"[. c #E2AAB6",
"{. c #E2ABB7",
"}. c #E3B5BC",
"|. c #E5B8BF",
" X c #BDBFC0",
".X c #D7BDC0",
"XX c #E6B9C0",
"oX c #E9BBC2",
"OX c #C3C3C3",
"+X c #CECECE",
"@X c #DFC3C7",
"#X c #CED0D1",
"$X c #D3D4D5",
"%X c #D7D9DA",
"&X c #DCDCDC",
"*X c #E5C7CB",
"=X c #EBC4CA",
"-X c #EECCD1",
";X c #EED1D4",
":X c #F3D2D6",
">X c #F5D7DB",
",X c #F7D8DC",
"<X c #F8DADE",
"1X c #FBDCE0",
"2X c #E3E3E4",
"3X c #E6E7E8",
"4X c #ECECEC",
"5X c #EFF0F1",
"6X c #F4F4F4",
"7X c #FFFFFF",
/* pixels */
"~ R I y.i.i.y.u.R P P H Y Q J R / u.r.W r./ K S B B Z F F L L ^ t.t.a.j.g.Q R R I R W H W t.R Y R Y ~ Y E r.u.u.i.s.i.r.r.y.y.~ ",
"~ ~ Q g.g.( ! Y P H D I Y Y Y I W i.T B 8 & X X X       X o * 8 M H / i.u.( ! R Y Y W / E ~ E W E E r.W / r.W r.r.i.r.E y.r.y.~ ",
"Q Q Q ~ ~ / W U P W E W r.W ~ W S 8 X   O , >                       & w C I E E Y U 8 D E W r.u.B G r.r.a.p.r./ t.t.W T ~ R E y.",
"Q Q y.Q ~ t./ / E W / W s.p.H 7     p %.F.`.L.n               n q.m X     = N P E S   * Y W t.T % 6 R r.a.t.W t.a.a.r.E J Y E r.",
"Q y.h.g.u.( W / ^ / r.u.W e X   g N.*X,X,X,X,X@X..            p @X;X#.        6 B & $ o D r.t.e     D i.p.i.u.u.p.r.E L J E r.r.",
"R W i.i.~ / t./ E W r.P 6   5 N.=X,X<X,X,X>X>X>X*X..          O H.1X.Xa             @.3 M a.Z   g i 0 r.r.u.i.p.a.p.E E E E E Y ",
"R u.s.i.( r.r./ T W H %   { `.>X,X,X:X:X-X-X=X=X=X'.n           *.,X,Xq.        O   i $ 0 H X > S.n = H L r.u.t.t.p.r.W W r.W E ",
"R ~ y.~ r.u.r./ K D &   #.*X,X:X-X=X=XoXoX|.oX|.oXoXH.5         ..oX=X'.5       %.|     & X : w.].f 6 Y E E u.i.t.r.r.r.W E r.r.",
"E Q Q ( i.a.u.i.F &   %.-X:X=XoXoX|.^.G.G.W.].oXoX|.|.w.O       m |.oX|. .      F.`.>     : w.oXW.> 0 / W R i.a.r.R L ^ / E r.r.",
"/ W W y.i.i.W S 6   > F.=XoXoX|.C.{ , + . ; b 0.(.oX|.}.)       f ].|.oXq.    + H.*Xp   i Z.oXoX&.  Z r.Y R / / r.H 6 7 W ^ / / ",
"r./ E ~ W Z %         $  .Q.).@.+   < [ } p     c D.|.oXA.+     f ].|.oXS.+   5 W.#.. b W.|.|.^.t   0 t./ R E Y V %     D r.E ^ ",
"u.t./ W M   + o.J.K.*.u   s m   < M.&X6X6X3XJ.h   4 D.oX}.m     g ].oXoX^.>   b | . O.).oX|.}...  s $ S t.R G 9 X       8 / / ^ ",
"R t.r.C X : V.6X7X7X7X+Xj     a OX7X7X7X7X7X7X&X}   s Q.oXk..   ) |.|.oX/.,   + : 8.].oX|.|.9.O b W.s 9 E C =           M W t.^ ",
"t.t./ 6   M.7X7X7X7X7X7X+X< > I.7X7X7X7X7X7X7X7X$Xa   +.}./.<   @.|.|.oX/.3   , C.|.oXoXoXw.$ f W.).i 0 N o             6 M r.s.",
"/ / S   n 5X7X7X7X7X7X7X7XB.M.7X7X7X7X7X7X7X7X7X7XV.X 3 E.XX|   9.oXoXoX~.; t S.|.oX|.|.w.> | ^.oX9.X & X                 X D a.",
"/ R 7   B.7X7X7X7X7X7X7X7X6X6X7X7X7X7X7X7X7X7X7X7X%Xj   2.oX&.. Z.oXoX|.#.p G.oX|.|.}.0.g 0.].|.q.$                         w / ",
"t.E & > $X7X5X7X7X7X7X7X7X7X7X7X+X3X7X7X7X7X7X7X7X3X*.  _ }.C.i /.|.oXk.p S.oXXX|.|.Z.w./.oX/.#.+                   o 6 e N I / ",
"/ L X d 4X#X[ P.7X7X7X7X7X7X7XK.: } 6X7X7X7X7X7X7X5XV.X y !.G.O.|.oX(.m k.oX|.XX|.|.|.oX}.w.i + i           o 6 e F T R ! R / ( ",
"/ K   } 7XI.O %.7X7X7X7X7X7X7XJ.+ + I.7X7X7X7X7X7X5XK.: 4 E.(.S.oXoXq.$.oXoXXX|.oXoX).k.b ; n C.9.        & r F E / ( Y Y ! u.p.",
"u.Y   X.7XP.: X.7X7X7X7X7X7X7XK.u   K.7X7X7X7X7X7X4XP.: 3 U.XXXX|.].$./.oX|.XXoX/.w.| b #.A.].oX@.            X o & 6 8 w N A T ",
"i.E X j 6Xm.  %.7X7X7X7X7X7X6X}   O P.7X7X7X7X7X7X2XK.+ 4 U.XXXXoXW.k.oX|.|.XX].W.S.W.).oXoXoXW.t f +                       O H ",
"E R o u 3XOXu K.7X7X7X7X7X7X7XM.  a 3X7X7X7X7X7X7X&XB.  x R.oX|.oXW.W.oXoX|.XXXXXXoXoXoXoXoX).) 5 w.>                       6 R ",
"E W 6 O P.7X&X7X7X7X7X7X7X7X7X4XM.I.7X7X7X7X7X7X5X$X%.  ` !.XXXX|.).|.|.XXXXoXoXoXoXoXoX_.C.b i Z.W.>   X                   e E ",
"W W M   %.7X7X7X7X7X7X7X7X%X&X7X7X7X7X7X7X7X7X7X2X Xp . 1.[.oXXX|.|.|.oX|.oX|._.^.G.C.$.| m &.W.oXG.$   6 F 8 X           X D W ",
"! ( I X > OX7X7X7X7X7X3X3XX.o.6X7X7X7X7X7X7X7X4X$X*.  y c.}.oXXXoX|.|.oX|.|.|.).W.G.G.S.W.}.oXXXoXA.o   X M y.L r %       6 R R ",
"u.y.Q w   [ 2X7X7X7X3X+X*.  O B.7X7X7X7X7X7X6X%XV., . ,.R.oXoXoXoX|.|.oX|.oX|.oXoXoXoXoXoXoXXXXXoX8.  9 M 6 L s.i.^ Z -   N W y.",
"u.r.W Y -   [ I.2X$XP.o.O     : B.6X7X7X7X4X$XB.t   v c.E.8.$.0.(.|.oX|.|.XX|.oXXXXXXXXX|.oX|.oX(.c   C E Y T i.u.a.a.^ S R / i.",
"( / u.u.H *   + a d ,           O } J.OXP.B.o.$   c l.T./.9.i 5 S.oX|.|.XXXX|.|.|.|.oXoXoX|.|.Q.6.# % T E E W r./ u./ / E E u.i.",
"W / d.a.^ M         . 2 z k   b i     + :     ; ` l.Y.S.m k././.}.|.|.oXXX|.oX|.|.|.[.!.[.[.Y.l.v   r / E J Y Y ~ r.r.Q Y E u.y.",
"W u.t.L r &     ; l -.:.>.-.  n W.9.c 4 4 s ` 4.z.n.{.).i   ..].oXoX|.|.oX|.oX|.oX!.c.z.c.c.z.,.. o L i.r.W W E E y.r.R Y r.i.y.",
"R Z 6 X         2 l =.-.:.;.2 $ G.oX_.b.l.z.c.n.Q.}.oXoXZ.| O.).|.|.oXoX{._.[.|.!.c.z.z.z.z.4.3   M t.a.u.u.y.y.r.R R R R E E t.",
"W L S M 8 - & X       . . @ @   $.oXoX|.}.[.{.|.oXoX}.!.R.Y.!.}.|.oX{.R.c.x.c.b.c.z.z.z.z.3.4   0 W p.a.i.i.t.u.~ I Y W r.r.W ~ ",
"~ Q Q I I P P D 9     . 3 ; O   a ).oXoXXXoXoXoX}.!.n.z.z.z.z.b.T.Y.c.z.z.z.z.z.z.z.x.l.,.;   0 E t.a.a.r.r.u.t.Q E ~ y.r.r.W r.",
"Q Q Q I P P P P P N X   y ,.3.,.+.v._.}.|.|.{.!.n.z.z.z.z.z.z.z.z.z.z.z.z.z.z.z.x.x.5.v .     8 K p.a.t.t./ r.r.~ W y.i.u.y.r.u.",
"! Q Q Q I I I y.y.i.K -   # c 1.e.z.z.c.b.n.v.x.z.z.z.z.z.z.z.z.z.z.z.z.z.x.z.l.3.v ;   o       X 7 S ^ / E W i.u./ r.s.s.i.y.y.",
"I R Q ~ Q ~ ~ h.f.t.^ E M &   X 4 ` 1.7.l.z.x.x.x.x.z.x.z.z.x.x.x.x.z.z.7.3.' y #   o r ^ K 8 X       0 W R E R W r.~ r.s.f.i.r.",
"R R Q ~ ~ y.y.i.i.t./ u.r.W M & .   . 1 y v ] ,.1.5.5.5.5.5.5.3.<.] ` x 3 O       X B / r.i.t.H e o   S / Y E W y.r.R W y.y.y.Q ",
"P I Q y.y.u.i.i.a.s.i.a.r.~ E Y F e = X       . . # @ # # + # O         X * *       X 8 C / a.u./ K V E W Y I E y.Q I W y.y.y.Q ",
"W ~ r.i.i.u.u.u.i.s.s./ R J I Q / R P S B M q 6 6 6 - = = 6 6 6 8 r B Z F K E S 7 X       L i.r./ / r.r./ W I G W r.r.y.g.r.Q y.",
"s.i.r.i.i.r.~ u.~ y.i.y.Q P I Q / R I P L R R P E t.^ ^ T W L J U / W R Y / / ^ L H e o = W i.r.r.i.t.u.E I I I y.W u.i.y.y.y.r.",
"r.t.r.r.i.y.y.y.W R y.y.I I Q y.y.E Q R R / R G Y W r.r.r./ R D P I Y E L ^ / L R t.p.Y P u.y.W u.u.r.r.r.G I I J Q r.y.y.u.u.y.",
"r.p.t.W r.y.u.y.~ R ~ Q I Q Q y.~ ! ~ y.Q Q Y U E Y L R a.a.^ J I I R W E t./ R E E / W Q R ! ~ r.I r.r.y.r.R E Q y.y.Q u.r.r.r.",
"W R E R Y E y.~ ~ y.t.W R y.y.g.~ ~ y.~ ( Q P H L L K T E W / t.E G Y R / p.E E E Q E Y I Y ~ g.y.r.r.y.i.r.R E r.y.r.Q y.u.r.r.",
"i.~ Y Y E R R E y.u.i.W y.h.h.g.y.~ y.y.E Y R R L E E ^ / R ^ t./ H ^ t.t.t.t.r.R W i.R R ~ u.u.g.y.r.r.E r.r.r.r.u.r.r.y.u.r.R ",
"r./ ~ W Q Y Y E t.p.t.r.i.g.y.g.~ y.u.( Y R E Y ^ / E t.t.t.t./ / E W p./ / r.t./ i.a.r.r.W u.u.y.r.R r.r.r.r.r.y.y.u.r.R r.r.E ",
"W ^ t.u.W Y R J R ~ y.W ~ y.h.i.~ ~ y.( ! ! U G L E L E p.p.t./ / i.i.p./ ^ t.a.i.t./ / r.r.y.u.y.y.y.r.y.r.G R y.u.i.Q R Y Q r.",
"i./ r.u./ W W E Q r.~ W ~ s.j.y.! R ~ t.( / E P L ^ E ^ ^ E ^ Y E t.p.i./ / t.t.p.i.r.r.t.W W t.y.y.r.r.R E I I R u.y.r.R I Q r.",
"i./ / t.u.t./ W W u.y.y.i.i.( g.i.( t./ / t.W U L L T ^ T E R Y W W W t.t.t.t.t./ r.t.p.r.W / u.y.r.r.Y I r.R R E E Q I r.E Q R ",
"s.u.^ t.a.a.t.r.E / p.p.i.r.W t.^ W r.E E ^ ^ K K J L K L L R R r.R Y r.J r.r.r.r.J J r.r.r.r.y.y.y.Y Y R i.i.r.t.r.r.J r.E J J ",
"t.~ ^ ! W p.a.r.W t.t.t.r.W ~ r.E t.r.W ^ p.^ L T T H H R W R L G G G G G J J r.G G G r.y.y.y.r.r.Q r.R J t.s.r.r.t.t.E Y Y J J ",
"T Y W W r.a.r.E T ^ / E r.u.t.W E E ^ t.p.a.^ L E W H K R I H H J G J J G J J J r.G G J r.y.y.r.R Y y.R r.r.r.R E r.t.R r.R r.r.",
"Y U Y Y / t.r.^ W E R E / i.t.L E E r.t.^ t.r.^ ^ T J Y R P J L R J J J J J J r.r.r.G r.r.y.y.y.r.r.r.r.r.i.r.E R E R r.r.t.r.r.",
"W H I I P W t.W / ^ Y R E E T L E E E r.r.r.^ E E / E T R I y.i.t.r.R R r.r.r.r.J r.r.J Q y.y.y.y.s.i.r.Y r.t.r.r.i.r.t.a.i.i.i.",
"E R I P J E / E E / R E Y / t./ E E ^ t.p.r.E E ^ t.E E Y Q u.d.s.s.r.E r.r.r.y.r.y.r.I I Q G y.y.y.r.r.r.s.u.r.a.r.r.E i.t.a.s.",
"a.E H H L Y E Y Y Y R E / / / t.W / u.p.a.t.t.p.p.t.L T r.u.r.r.t.a.r.r.y.r.r.r.y.i.y.r.P I G Q r.R r.r.r.r.G r.r.r.r.r.d.t.t.a.",
"/ L P Y W W E Y T W K K t.p.^ / W r.r.t.p.^ a.p.p.t.K J ^ p./ T J Y r.a.s.y.G r.y.y.y.r.P Q I G Y r.r.R R Y J J J R r.d.d.i.r.r.",
"R W W R R W ~ r.t./ T E ^ a.a.t.E t.u.y.E W t.E E / L G J L W R R E p.d.t.r.E E i.i.r.r.G P P y.r.R r.E r.Y Q I I r.r.y.s.i.r.r.",
"Y W ~ R W r.u.r.t.t.( t.a.a.t./ E W y.i.r.t.W E L E P J L t.t./ r.i.t.r.t.a.t.t.i.y.I G I G P I u.y.r.r.r.E Q Y R R r.y.i.u.r.r.",
"r.R R y.a.u.i.r./ ~ E u.d.s.s.t.Q R ~ s.i.y.E J G J R I / t./ a.r.t.t.r.t.a.a.d.y.y.G G Q y.I r.r.r.y.y.Y I Q I I I G I R r.r.r.",
"y.R R u.r.y.i.u.( W i.i.u.a.d.i.! R E t.y.W E L G H Q R E L E i.J J Y E r.s.a.d.y.P y.Q y.G y.y.r.r.y.y.y.I I G G G G G J E R r.",
"I G P y.r.~ u.a.r.W u.g.W / a.y.I Q R i.t./ / / R J E ~ R G R R I I J G R h.i.r.y.I y.y.Q r.Y Q r.r.r.r.r.I I G E R E H J J r.I ",
"Q Q G y.s.i.s.a.E r.s.i./ / i.i.~ u.r.i.i.t.t.t.W Y E / R E E Y E Q R I R r.I G I I y.y.I I I y.r.r.R Y R Y Q Q W W E R R E r.R ",
"y.Q I y.a.i.t.r.Y J ! i.s./ y.W u.s.u.u.u.t./ t.W W W / ~ W y.y.u.y.y.Q Q I I G G I Y R G D G G I r.I I I Q r.y.E R E Y E E I Q ",
"Q I P y.y.u.r.t.W H P u.i.~ y.u.a.i.~ W ( r.^ W W W / a.t.t.W u.i.y.g.g.y.Q I I G P I G P P G G G I I R Q y.i.s.y.r.E J Y R E E "
};
