/* XPM */
static char *result[] = {
/* columns rows colors chars-per-pixel */
"64 64 193 2 ",
"   c #000000",
".  c #090807",
"X  c #0D0C0B",
"o  c #100F0E",
"O  c #11100E",
"+  c #161413",
"@  c #191616",
"#  c #1A1817",
"$  c #1C1B1A",
"%  c #211F1E",
"&  c #24211F",
"*  c #232221",
"=  c #292524",
"-  c #2C2A2A",
";  c #302E2E",
":  c #39322D",
">  c #363232",
",  c #3C3532",
"<  c #3F3834",
"1  c #3B3939",
"2  c #413A36",
"3  c #443D3A",
"4  c #4C661F",
"5  c #52661E",
"6  c #47403E",
"7  c #4A423D",
"8  c #525435",
"9  c #555A34",
"0  c #585D34",
"q  c #56543C",
"w  c #59563D",
"e  c #565939",
"r  c #5A5A3A",
"t  c #4A6620",
"y  c #4E6921",
"u  c #596726",
"i  c #526D22",
"p  c #5A6E21",
"a  c #56662B",
"s  c #576A29",
"d  c #5B6D2A",
"f  c #567224",
"g  c #5A7524",
"h  c #5E7926",
"j  c #567629",
"k  c #5C722B",
"l  c #5E7C29",
"z  c #5B6134",
"x  c #5D6C31",
"c  c #5E6A3A",
"v  c #637124",
"b  c #627D26",
"n  c #63752B",
"m  c #637B2A",
"M  c #697F2A",
"N  c #616736",
"B  c #65683F",
"V  c #687033",
"C  c #637A34",
"Z  c #697C33",
"A  c #607439",
"S  c #657C3C",
"D  c #6D7B3C",
"F  c #4A4442",
"G  c #4E4947",
"H  c #4E4949",
"J  c #564B45",
"K  c #584D47",
"L  c #534D4B",
"P  c #594E49",
"I  c #57504E",
"U  c #5C524D",
"Y  c #5E5A49",
"T  c #544F50",
"R  c #565151",
"E  c #5E5552",
"W  c #5F5957",
"Q  c #5E5A5A",
"!  c #605652",
"~  c #635955",
"^  c #655D5A",
"/  c #685E5A",
"(  c #626542",
")  c #676941",
"_  c #6A6E46",
"`  c #69674F",
"'  c #656848",
"]  c #6A6D4D",
"[  c #667146",
"{  c #667840",
"}  c #707840",
"|  c #707149",
" . c #75794E",
".. c #686653",
"X. c #67605E",
"o. c #6A615E",
"O. c #717354",
"+. c #757956",
"@. c #74785A",
"#. c #666161",
"$. c #6C6563",
"%. c #6F6867",
"&. c #6E6969",
"*. c #706762",
"=. c #726966",
"-. c #746D6B",
";. c #786F6B",
":. c #797761",
">. c #7B7C63",
",. c #77706D",
"<. c #79716F",
"1. c #767171",
"2. c #7C7573",
"3. c #7E7877",
"4. c #7F7979",
"5. c #807774",
"6. c #817A75",
"7. c #837C7B",
"8. c #887F7D",
"9. c #668127",
"0. c #6A8427",
"q. c #658129",
"w. c #6A842A",
"e. c #6D8A2B",
"r. c #70842A",
"t. c #718B2A",
"y. c #74912D",
"u. c #78952D",
"i. c #6C8133",
"p. c #6A8932",
"a. c #6E833B",
"s. c #718635",
"d. c #748833",
"f. c #798D36",
"g. c #71853C",
"h. c #73893A",
"j. c #749430",
"k. c #7E933C",
"l. c #758A41",
"z. c #7C8B44",
"x. c #79844E",
"c. c #7B894C",
"v. c #7A8453",
"b. c #7A8557",
"n. c #7D825A",
"m. c #7F8360",
"M. c #849A3A",
"N. c #82875D",
"B. c #899655",
"V. c #828563",
"C. c #838862",
"Z. c #868D6A",
"A. c #898E6D",
"S. c #919A66",
"D. c #91946E",
"F. c #91996C",
"G. c #848374",
"H. c #878872",
"J. c #888B72",
"K. c #86807E",
"L. c #89817E",
"P. c #8E9272",
"I. c #939674",
"U. c #959977",
"Y. c #95997D",
"T. c #9A9E7B",
"R. c #99A166",
"E. c #9CA077",
"W. c #9DA17C",
"Q. c #878180",
"!. c #8A8484",
"~. c #8F8B83",
"^. c #8E8888",
"/. c #918A86",
"(. c #938C8B",
"). c #988F8D",
"_. c #9C9D82",
"`. c #96918C",
"'. c #98928E",
"]. c #9D9C89",
"[. c #979191",
"{. c #9B9493",
"}. c #9F9A93",
"|. c #9F9898",
" X c #A19A95",
".X c #A39C9C",
"XX c #9DA180",
"oX c #A5A58A",
"OX c #A9A695",
"+X c #A7A19F",
"@X c #A8A19D",
"#X c #ACA4A4",
"$X c #B1AAA9",
/* pixels */
"l l q.q.9.e.y.t.e.e.9.g i g y f i f 0.g y l f y f f f e.u.e.b b 0.b 0.0.t.0.b p g b 0.w.j 9.e.9.f i f i 4 4 4 f 0.e.e.p.q.y j j ",
"b q.q.q.g 9.0.9.9.h 9.9.9.9.g g l g h g b 9.i y f j q.e.e.t.e.M 0.v b 0.t.t.0.p 5 5 b t.e.e.t.h 4 i f 4 4 4 4 4 i f q.e.p.j q.q.",
"b l f l p 9.0.0.h 9.0.t.9.9.9.9.w.9.g g 0.b j d l j i i m i.h.D s.a.a.d.w.M 0.g i f j e.e.y.9.b 9.g j 0.g g g 5 4 g h l q.j t j ",
"0.g i i p b t.t.9.h 0.t.9.9.g 9.0.9.b S v.n.n.Z.J.@.e e B >./.(.`.`.`.Y.D. .z 0 0 f j l h e.h j e.u.t.u.h 9.h p 9.9.0.h j q.y q.",
"b b g 5 p g 9.e.e.0.e.e.0.e.p.i.w.M Z v.G.!.!.|.#XK.! q P =.!.!.^.!.(..X@X<.P U Y c C i.Z Z w.b e.y.e.e.9.b b b 9.f q.q.q.j.q.q.",
"f h g p g g 0.t.e.e.w.b q.h.Z.m.B _ n.H.!.!.^.|.#XL.U J P =.!.!.!.!./..X@X5.U o.,.>.C.P.A.] 0 M u.0.b b b b h g 9.q.q.q.p.p.q.y ",
"g b 9.b h 9.e.e.0.0.l s A b.}.~.*.=.3.4.K.Q.!.|.@X!.o.U U =.8.!.!.!./.{.'.;.! ,.Q.!.(.@X.X=.q z w.w.C l 0.0.g p h 9.q.q.e.p.q.j ",
"b b g h 9.9.h 0.t.m 0 ( @.H.`.[.).6.$.$.1.4.!.^.[.[./.;.! =.!.Q.!.!.L.5.*.~ U ,.!.!.(.@X.X,.K w ( +.x.i.9.e.g 5 h q.q.q.q.q.q.y ",
"9.9.v b t.b f b r.x w / 5.8.!.{..XL.~ E ^ ;.7.Q.!..X#X7.E $.7.Q.7.7.3.o.P U / 1.!.^.).|.(.*.P U X.2.H.c.C n v 5 0.0.t.e.9.f f h ",
"h b 9.b b 0.b n z w K ! =.3.Q.^.).2.U P E #.;.4.!. X#X8.E ^ -.;.1.1.-.~ U #.2.7./..X.X7.*.! U *.2.K.~._.S.f.t.0.t.e.0.0.9.h g q.",
"b h M b b t.d.} ..~ U U ^ -.7.Q.Q.3.$.! P E X.;.7.!.Q.#.7 F T R T T T T W ;.!.^.).{.(.;.! ! o.2.!.!.(.#XoXz.t.r.9.9.0.9.h f 9.q.",
"b b b b v Z v.H./.6.! K U ^ &.3.Q./.).2.U P U #.=.R , = # $ % % % $ = F #.2.^.|..X8.=.-.1.2.3.Q.!.!.).#X XO.V r.e.t.9.g q.9.0.q.",
"b 0.p b v } G.)..X^.*./ o.$.o.-.Q.{..X4.F 2 2 F H - .               X ; T ^ &.4.7./ ! -.7.!.^.^.(.(.[.|.^.=.` z.M.t.f f g 9.9.f ",
"t.0.g v N ` 6.^.(.^.6.8.(.7./ $.Q.^.^.Q & + @ $ # o                   + $ % = ; , 3 P #.1.7.^..X#X#X}.3.=.1.L.T.R.f.9.9.9.0.0.0.",
"e.b g d w ~ 2.7.Q.Q.!.{.#X8.L G Q #.#., X                                       X = 2 F ~ 4.[.{. X X/.=.$.4.(..XXXB.k.y.0.9.9.9.",
"b g i n w E &.-.-.2.!.{.#X2.; # % * % + .                                         o + # > 4.{.6.$.*.*.1.4.Q.^.).{.XXS.u.0.g f h ",
"q.k u x w P ^ ^ / =.3.!.).^ @                                                           @ W 1.L 3 J ^ 2.!.!.!.!.^.[.D.s.b b b 0.",
"b d 9 q J K P U U ^ &.=.#.3 o                                                           . $ = $ = G $.7.!.!.!.!.7.=.| n l e.9.b ",
"w.n w J L P ~ / *.o.^ I 2 * .                                                                   @ H -.7.!.!.7.3.*.E r d h t.0.h ",
"g u w J K ~ ;.!.{.Q.^ 2 $ X                                                                     @ H &.7.!.!.6.o.E P r n w.e.e.9.",
"b n q P U #.7.)..X'.1.F +                                                                       o > R 1.3.2.$.! I ~ ..x.h.p.j.w.",
"g n q P ^ =.7.!.(.[.{.$.#                                                                       . o - R &.^ E P ~ ,.!.].F.h.0.g ",
"i u q E #.&.3.7.!.[.|.&.$                                                                           @ F ~ ^ ^ ^ *.7.[.#X_.a.b f ",
"l a w P #.&.-.2.7.^.!.Q @                                                                           + 3 ~ 1.3.7.7.!.[.#XXXg.l h ",
"{ [ ..X.^ ^ ^ #.-.<.;.G +                                                                           + 3 X.3.!.!.!.!.!.).Z.a.b l ",
"G.3.3.-.~ U U U U ! U , o                                                                           @ F %.4.!.Q.!.L.6.*.' k q.0.",
"4.7.K.3.*.~ P J J 7 > & .                                                                           o ; R -.3.2.,.,.,.,.:.v.l.p.",
"&.1.K.Q.7.-.! K J 2 @ .                                                                             . X = R $.~ E ! =.'.@XOXF.h.",
"X.$.1.7.Q.K.2.<.;.J @                                                                                   @ F ^ X.X.o.<.{.#X$XW.a.",
"I E $.,.7.(.|.#X.X&.$                                                                                   + 1 ~ <.7.7.K.^.|.#XE.a.",
"J I ! $.2.!.|.#X$X2.%                                                                                   @ 6 o.4.!.!.!.!.~./.C.Z ",
"J J P ! $.1.!.{.#X1.%                                                                                   # G -.7.!.!.!.K.2.o.B n ",
"J J J P ~ / =.2.8.~ @                                                                                   # H 1.7.!.!.7.<.o.U 9 k ",
"J P P P P E ! ~ ! 2 O                                                                                   $ H &.7.Q.Q.2./ U U r d ",
"E ~ o.$.#.=.1.*.U : o                                                                                   @ F X.$.-.-.-.5.5.2.O.A ",
"#.=.3.7.8.^..X/./ > o                                                                                   @ 2 U U E E -.'.#X#XI.A ",
"^ $.7.!.!.(.|.[.8.L @                                                                                   @ 6 ^ o.$.$.2.{.#X$XT.S ",
"L ^ 2.!.!.!.^.[..X;.$                                                                                   $ H &.4.7.Q.Q.^.{.#XY.A ",
"J ! =.7.Q.!.!.[.#X3.*                                                                                   $ L 1.7.!.!.!.!.[.#XW.a.",
"J E #.-.K.Q.Q.).+X1.$                                                                                   @ H &.7.!.Q.Q.Q.(.#XE.k.",
"J U X.%.%.-.2.5.6.R @                                                                                   # 6 #.-.2.2.2.=.;.6.N.Z ",
"J U ^ ^ E ! #.X.E < o                                                                                   + 3 ! #.%.&.#.~ ~ ~ ) m ",
"J P ! E K K E E J : o                                                                                   $ L o.^ W W o.5.8.8.+.Z ",
"P P U U E E E U J : o                                                                                   % X.2.^ U U =.{.#X#XU.k.",
"%.%.%.;.5.8.8.5.U : o                                                                                   % #.7.1.=.*.5.).+X$XW.f.",
"Q.7.Q.(..X$X@X/.o.< o                                                                                   % #.Q.7.7.!.Q.Q.(..XU.g.",
"2.5.Q.(.{..X X).!.W @                                                                                   % W 1.2.7.Q.7.=.=.5.+.s.",
"&.-.7.Q.!.!.Q.(.|.=.$                                                                                   # H &.$.-.3.;.~ U ~ ) Z ",
"&.&.1.5.7.7.=.=.5.L @                                                                                   @ 6 E ~ ~ o./ U / 6.N.f.",
"#.$.&.-.5.5.! P J 2 O                                                                                   @ 3 U U E ~ U P *./.P.f.",
"E ^ #.$.$.~ P J J : X                                                                                   $ L -.-.1.7.5.~ ! ;.O.N ",
"K R ^ ^ U P ! ~ E 2 o                                                                                   * #.Q.Q.)..X).*.U U 9 u ",
"J K E U K ^ 7./.!.W $                                                                                   * #.!.!.(.[.{./.5.! 8 d ",
"K K U E U -.{.$X$X2.%                                                                                   % #.Q.!.!.!.).+X).*.B n ",
"J E $.-.;.7.(..X$X2.%                                                                                   $ R 4.Q.!.!./.{.'.(.n.f.",
"J ~ 5.Q.Q.!.!.[..X1.%                                                                                   $ H &.4.Q.!.Q.8.!. XJ.Z ",
"J ^ 2.^.!.!.!.^.(.#.$                                                                                   @ 3 ~ =.2.Q.6.*.$.;.| d ",
"J ~ -.6.6.6.7.7.7.R @                                                                                   + 2 R ^ &.2.1.*./ / ' d ",
"J P ~ ^ ^ ^ ^ / ^ 3 +                                                                                   + 2 L U W ^ =.Q.(.).V.a.",
"! ! ~ ~ ! ! / ~ P : X                                                                                   + 2 U E W E ;. X$X$XY.g.",
";.1.1.;.1.7./.6.! : X                                                                                   @ F #.;.1.1.7.(..X$XY.{ ",
"7.Q.7.Q.Q.)..X/.~ : o                                                                                   @ H $.4.K.Q.!.!./.}.J.S ",
"-.-.-.2.K.^.).7.! : o                                                                                   @ 3 ~ %.3.7.!.!.7.,.] C ",
"&.&.&.1.7.!.!.1.! : X                                                                                   + < U #.1.K.!.!.,.E e k "
};
