/* XPM */
static char *result[] = {
/* columns rows colors chars-per-pixel */
"64 64 225 2 ",
"   c #435D1D",
".  c #4B651E",
"X  c #556A1F",
"o  c #515B2F",
"O  c #555D31",
"+  c #56533C",
"@  c #575938",
"#  c #4E6A21",
"$  c #526D22",
"%  c #53622C",
"&  c #596B28",
"*  c #567224",
"=  c #5A7524",
"-  c #5D7925",
";  c #567629",
":  c #5C742B",
">  c #5D7C29",
",  c #566333",
"<  c #5B6434",
"1  c #5E6933",
"2  c #5B643B",
"3  c #5E6A3B",
"4  c #627D26",
"5  c #637529",
"6  c #637E28",
"7  c #626D34",
"8  c #677639",
"9  c #707D36",
"0  c #564C45",
"q  c #584D48",
"w  c #594E49",
"e  c #4D5D4C",
"r  c #595245",
"t  c #5C524D",
"y  c #575949",
"u  c #5E5550",
"i  c #605B4A",
"p  c #605652",
"a  c #625A55",
"s  c #655D5A",
"d  c #685F5B",
"f  c #56674C",
"g  c #5B624D",
"h  c #4B6B53",
"j  c #556954",
"k  c #4D7251",
"l  c #597455",
"z  c #5E7B5A",
"x  c #656747",
"c  c #657343",
"v  c #6A7643",
"b  c #6C7A44",
"n  c #6A764A",
"m  c #6C7A4B",
"M  c #727F46",
"N  c #656553",
"B  c #676957",
"V  c #65635C",
"C  c #6A615D",
"Z  c #667C5E",
"A  c #747957",
"S  c #597463",
"D  c #6D6563",
"F  c #6C6B66",
"G  c #6E6768",
"H  c #6F6A69",
"J  c #716763",
"K  c #726966",
"L  c #746D6B",
"P  c #786F6C",
"I  c #657D62",
"U  c #6C7D66",
"Y  c #727E60",
"T  c #75726C",
"R  c #7A726D",
"E  c #757B6D",
"W  c #7A7868",
"Q  c #767070",
"!  c #7C7573",
"~  c #797974",
"^  c #7D7976",
"/  c #7F7979",
"(  c #817E6E",
")  c #807673",
"_  c #827A75",
"`  c #837D7C",
"'  c #887F7D",
"]  c #668126",
"[  c #6A8327",
"{  c #658229",
"}  c #6A8529",
"|  c #6D8A2A",
" . c #718C2A",
".. c #74912D",
"X. c #7A942D",
"o. c #6C8437",
"O. c #738A34",
"+. c #72853D",
"@. c #758A39",
"#. c #799333",
"$. c #55874F",
"%. c #48885D",
"&. c #598855",
"*. c #5D875B",
"=. c #4B975F",
"-. c #4D9A5D",
";. c #5A9457",
":. c #5A9B55",
">. c #52945B",
",. c #519E5B",
"<. c #5C9C59",
"1. c #758542",
"2. c #778A45",
"3. c #75834B",
"4. c #7B9046",
"5. c #7A8657",
"6. c #768359",
"7. c #63965D",
"8. c #56A256",
"9. c #59A656",
"0. c #5CA857",
"q. c #55A159",
"w. c #59A55A",
"e. c #5EAA5A",
"r. c #62A45C",
"t. c #62AC5D",
"y. c #66B05F",
"u. c #458E65",
"i. c #4A8B63",
"p. c #418C69",
"a. c #4D8F68",
"s. c #469163",
"d. c #499461",
"f. c #4E9960",
"g. c #5B9162",
"h. c #529D60",
"j. c #6A8866",
"k. c #7C846D",
"l. c #659764",
"z. c #729B69",
"x. c #6B8776",
"c. c #7C8574",
"v. c #788E74",
"b. c #629A78",
"n. c #7C9576",
"m. c #56A161",
"M. c #5AA561",
"N. c #5FA863",
"B. c #6AA567",
"V. c #64AC64",
"C. c #76A769",
"Z. c #67B060",
"A. c #6BB363",
"S. c #6DB369",
"D. c #70B667",
"F. c #71B66B",
"G. c #7BB16F",
"H. c #75B96A",
"J. c #79BC6D",
"K. c #6AA176",
"L. c #78A673",
"P. c #77BB70",
"I. c #7CBE71",
"U. c #7FC072",
"Y. c #818F49",
"T. c #828C58",
"R. c #88935C",
"E. c #919E5B",
"W. c #858968",
"Q. c #89956C",
"!. c #838374",
"~. c #898E75",
"^. c #85827B",
"/. c #8A817F",
"(. c #8A8F7F",
"). c #989A78",
"_. c #86A878",
"`. c #91AF7B",
"'. c #88B679",
"]. c #8ABC7A",
"[. c #91B87D",
"{. c #83C375",
"}. c #87C578",
"|. c #8AC67A",
" X c #8DC97C",
".X c #91C67F",
"XX c #90CB7F",
"oX c #878181",
"OX c #8A8484",
"+X c #8C8A83",
"@X c #8F8888",
"#X c #918987",
"$X c #938C8B",
"%X c #988F8D",
"&X c #8D9588",
"*X c #99958C",
"=X c #969889",
"-X c #968F90",
";X c #979090",
":X c #9C9494",
">X c #9E9997",
",X c #A19A96",
"<X c #A39C9B",
"1X c #8FAC85",
"2X c #9EA282",
"3X c #97B784",
"4X c #99A596",
"5X c #A5A48C",
"6X c #A4A499",
"7X c #A9A49C",
"8X c #9FAAA1",
"9X c #AAA3A3",
"0X c #ACA9A6",
"qX c #B2ACA6",
"wX c #B2AAAA",
"eX c #B4B7A9",
"rX c #95C383",
"tX c #94CE82",
"yX c #98CE84",
"uX c #9BD286",
"iX c #9DD388",
"pX c #A3C28E",
"aX c #A3D78C",
"sX c #ABCB98",
"dX c #AADC92",
/* pixels */
"> > { { 4 | .. . .} ] * * - $ * $ * } = # - * # * * * | X. .6 4 [ 4 [ [  .4 4 = * 4 [ } - ] } ] * $ ; X . . . * { | | { { ; # { ",
"4 { { { 4 4 | 4 - 4 [ 4 - 4 = = 4 * - = 4 ] X $ * - { {  . .} [ 4 4 4 [  . . .X # X 5  .} |  .- # $ $ X X   . X $ * { | o.; ; { ",
"4 - * > * 4 [ [ 4 4 [  .] 4 4 4 } { = * ] 4 * $ * * $ $ 4 [ O.+.@.+.1.@.[ 4 4 4 $ * - | | ..] - ] - ; [ - = = X X - > > { ; ; ; ",
"} = $ $ * 4  . .[ 4 [  .] 4 - [ ] [ 4 4 4 }  .= $ ; $ > 5 #.).qXqXqXqX2XY.[ 4 = $ ; - > > | > - | X.| ..- 4 - X ] - [ > ; { # ; ",
"4 4 = X X = [  .} [ |  .| { - ] } [ [ { } +.2.8 3.3.8 7 & 8 ~.<X9X9X9X*XR.Y.7 % % & = = = 4 | { | ..| | ] ] 4 4 ] - ] { { ..{ { ",
"$ - = * = - [  .}  .[ ] ] - # - 4 [ |  .1.W.!.` &X=XW r + i ! @X$X$X$X%X,X).i + + 2 6 5 = ; = [ X.{ ] > 4 ] - = ] { ] ; { | ; ; ",
"= 4 ] 4 4 [ [ [ [ | 4 X # ; : 2.M 7 8 1.A /.OX@X>X0X` q 0 t P oXoXOXOX%X9X:XC p d n 3.3.5.b 1 * | { - - [ [ = * - ] { { | ..{ ; ",
"] 4 = - 4 4 4 [  .[ = * * 6 4.2X(.C N W ^.OXOX@X>X9X` p 0 t P OXOXOX#X%X<X*Xd p ! _ !.=X5X!.r % ] | { [ 4 | = X - ] { { { { ; ; ",
"[ 4 = 4  .4 = 6 ..[ $ & 7 v 5.*X;X' ! P P ! ` OX;X:X#X) d u L oXOXOXOXOXOXR p d _ OX@X:XqX' p @ 7 9 +.o.X - 5 X [ [  .| ] ; ; = ",
"4 4 4 4 4 [ 6 6 4 4 & @ i W /.@X:X<XOXd a G Q ' OX$X,X,XR p L oXoXoXoX/ C u t C _ @X@X:X<X' p 0 i K ( Y.| 4  .4  .| [ | { = - - ",
"4 4 4 4 4  . .6 $ 1 O + u L / oX$X:X' a w a G Q ` @X<X9X! p D ~ ! ~ / K u t C Q oX$X:X-X/.J t p J ) /.Q.E.#.X. .[ 4 [ 4 - - 4 [ ",
"4 4 4 4 5 5  .6 & @ t r w s L ` OXOX! a w w a G Q OX>X6X^ y B F F F F D t d ! oX@X:X<XOXC t t G ` OX#X<X5XY.X.X.|  .] - 4 > [ [ ",
"4 4 4 4 5 [ [ 9 A ( ) a w u s Q / oXOX' K t r p G Q ~.L.l.l $.*.*.*.*.z j J ` $X:X-X' R K K L ^ oXOX@X9X7XA 7 [ X. .= * - 4 ] * ",
" .4 5 4  .5 5 A +X,X:XL u u a D L ' ;X<X(.a y y V U j.V.e.e.r.r.N.e.e.l.U ~ ^.&X6X+XV D _ ' oXOX@X@X$X,X,XP x 9 X.} 4 ] ] [ [ [ ",
"| 4 = 4 6 5 2 W OX;X%X_ R ` / d D ` @X;X~.z l $.z._.].|.}.}.}.}.|.|.}.].`._.z.z.L.j.y a Q ` OX;X<X<X>XOX) P R W.R.#. . .[ ] 4 ] ",
"4 = X  . .1 r L ' oXoXoX$X7X:XF j c.+X&Xn.t.r.V.I.yXuXiXiXiXiXiXuXuXuXuXuX|.S.V.V.*.B B F ~ @X>X<X9X,X! d R $X<X5XY.O. .[ - * 4 ",
"4 = X } } 7 w C Q Q ! oX$X9X6Xj.&.l.L.3X3X|.|.|.U.J.H.U.H.H.J.H.J.J.J.J.J.I.{.|.|.]._.z.l.n.>X#X) ! R P Q ` @X;X*X).E.O.4 4 4 [ ",
"4 4 * = & 2 w a C C G ! OX>X1Xl.0.t.J.tXuXuXuXyXU.w.q.w.w.8.q.9.8.8.8.8.8.A. XuXuXuXuX{.D.L.4Xc.u y a P oXOXOXOX$X<X).o.-  .] 4 ",
"[ [ = % @ + w w u u a G Q L U <.Z.{.{.J.H.F.F.S.N.-.-.=.-.=.-.=.f.-.-.-.d.m.A.F.D.D.F.U.|.'.S.l.&.l C Q oXOXOXOX' Q A 7 4  .{ 4 ",
"5 = X O + 0 0 p a s d C C V Z r.J. X{.e.8.8.8.8.-.=.=.=.=.d.d.=.d.d.f.d.d.-.q.q.8.9.w.S. X{.A.A.B.j.H _ OXOXOX` L a @ 5 }  .} 6 ",
"4 4 * < 0 0 w C ! @X@XJ B Q.[..X}.H.V.f.-.d.-.-.-.,.q.q.8.,.8.8.q.q.q.,.,.,.-.-.-.-.d.M.S.U. XtX|.v.H / oXOX` G a r @ 5 { { ..{ ",
"= ] 5 O + q p P @X>X>X) W '.yXtX{.N.-.d.d.d.-.d.M.Z.A.A.A.A.A.A.A.A.A.A.A.N.,.d.=.d.d.-.q.F.tXtX.X_.c.c.` / L a q u i v o.o.{ = ",
"* = & O q p D ! @X$X;X;X=XG.A.A.N.q.d.d.-.,.q.8.H.tXtXtXtXtXyXyXyXyXtXtXtX{.V.8.q.-.d.d.-.m.A.A.D.].[.~.L V a w p L ^.=XQ.o.4 = ",
"- $ # O q a G ! c.oX@X>X4XB.9.,.-.d.d.d.m.A.D.F.U.XXXXtXXXtXXXXXXXXXtXXXXX|.H.D.A.N.f.d.s.-.,.8.r.H.].k.V s a a D _ %X0X2X+.= > ",
"; * $ @ r a G G Q ` OX@X(.h.w.-.d.d.d.q.D. XuXtXU.D.Z.A.y.Z.A.y.Z.Z.y.Z.Z.H. XuXuXU.e.h.d.s.=.,.9.t.r.l a G ^ ^ _ oX%X9X2X1.{ ; ",
"] > v x d a s s C H Q Q T >.,.-.-.-.m.S.U. X X XH.0.8.,.,.-.q.,.q.q.,.,.9.y.{. X XU.F.N.-.f.-.-.q.8.:.l d Q OXOXOXOX$X#XW.8 { { ",
"} 3.c._ ! D u w t t p u j %.-.,.8.8.S. X{.A.y.y.0.8.,.=.d.=.d.d.=.=.d.-.8.0.y.y.Z.J.tXU.e.q.q.,.-.,.:.z F ^ OXOXOXoX` J x 5 { { ",
"| 3.` ^.oXQ s u 0 0 0 e h %.=.8.t.D.U.}.H.0.8.,.q.,.=.s.s.s.s.s.s.s.s.d.-.,.,.8.8.A.U.U.H.A.9.-.=.-.-.*.I E / Q L Q L P W T.+.{ ",
"[ b H / oXoX/ C q q e h u.u.d.w.D. X}.A.0.9.-.=.=.d.d.d.d.s.d.d.s.s.s.d.=.d.d.-.8.w.y.U. XU.e.-.%.d.d.-.;.I G a u p K %X7X7XT.- ",
"{ 8 s H / ` oX_ ) ! E i.d.=.M.S.U.{.P.w.,.-.-.d.s.s.d.f.-.-.-.-.-.-.-.-.d.d.u.=.-.,.,.Z.U.U.U.N.-.d.d.-.>.j a d C C ! ;X0XwXR.- ",
"{ < t s G / OX:X9X9X4Xb.d.q.A. X}.D.w.d.d.d.s.s.s.d.-.8.w.w.w.9.w.w.w.q.=.d.d.u.s.d.d.,.y.U.tXP.e.-.d.d.i.h a L ' ` oX@X;X9XT.- ",
"] , 0 t a H / %X<XwX0XK.M.S.U.{.H.e.,.d.s.s.s.s.=.-.Z.U.U.U.U.U.J.U.U.S.m.=.d.s.s.s.d.-.8.A.U.U.U.N.-.d.u.j s ^ OXOXOXOXOX^.1.] ",
"6 , 0 q w a G / #X<X4XC.A.XXXXA.0.9.-.d.s.s.d.d.,.e.U.uXiXiXiXiXaXuXuX XA.q.f.d.s.s.s.-.q.9.y.U.uXH.q.-.i.S H / OXOXOX^.Q d < > ",
"| < 0 q q u a d K R k.7.A.XXXXA.9.-.-.d.s.s.d.q.V.U.U.U.U.U.U.U.{.{.U.{.{.F.w.=.d.s.s.d.-.q.e.U.iXU.0.-.i.S L / OXOX` L d w O > ",
"{ 7 q w w t u u p p g ;.D.XX XZ.,.=.d.s.s.d.-.N.U.tXU.e.t.0.0.w.9.0.0.A. X|.A.m.f.d.s.s.d.-.0.U.uXU.e.h.i.S G / oX` ! C p t 2 ; ",
"> v s D K K L / _ d g z.{.{.D.t.q.d.s.d.d.-.Z.U.U.P.y.9.,.,.-.-.-.,.8.t.F.I.{.F.m.-.s.s.s.,.9.Z.U.U.U.V.>.j a d D D L _ +XOXn # ",
"- c D T ` oX@X>X,X) A `.uXD.0.8.,.d.s.d.f.N.U. XU.e.9.8.f.s.s.s.s.d.,.9.w.A. X|.A.w.f.s.s.-.8.9.0.U.tXF.,.k r u u p L :XqXwX5.$ ",
"- 3 a L oXOX@X-X:X#X:X3XXXD.8.,.=.d.d.,.Z.U.U.U.A.9.,.-.s.p.u.u.p.u.=.-.9.t.F.U.U.H.m.-.=.=.-.,.e.}.uXU.:.l V G L L / $X<XwX6.. ",
"{ < t D ` oXOXOX$X9XeXsXXXD.,.=.s.s.-.q.H.uX{.t.9.q.-.s.p.p.s.s.p.p.u.d.q.8.9.F.uX}.0.-.s.s.=.-.t.}.uXH.7.Z F / oXoXoXOX:X0X5.- ",
"} 1 q s Q ` OXOX$X0XeXsXuXA.q.=.s.s.-.9.U.uX}.0.,.=.s.p.p.u.f.-.d.p.p.u.=.-.9.H.uX Xt.,.s.s.s.,.e.}.iXU.9.Z L / OXOXOXOX:X9XE. .",
"{ 7 q a G Q / ` oX:X6XsXtXA.q.=.s.s.-.q.U.uX{.t.-.s.p.p.u.d.m.N.,.d.p.p.u.=.q.D.uX|.y.-.s.s.=.-.e.}.iXH.:.z G ! ' ` ` ` OX:XT.] ",
"] 1 q a D V s G L L !.3XXXD.8.=.s.s.-.q.H.uX{.e.-.=.s.s.f.w.P.U.Z.f.d.p.s.=.q.H.uX|.t.,.s.s.s.-.e.}.iXH.:.l u G Q Q G C d J v ] ",
"4 1 0 u s u w a d u N `.uXA.8.=.s.u.=.w.U.iX}.t.,.s.u.u.-.w.U.tXS.,.d.s.s.=.q.H.uX}.t.,.=.s.=.,.e.}.iXU.:.l u V C s C D C C 3 = ",
"= < 0 q u w q w t r N `.yXD.8.=.s.s.-.q.H.iX}.0.-.s.p.p.s.f.N.Z.m.d.p.p.u.-.8.D.uX Xt.,.s.s.s.-.e.}.iXH.7.j.L d t u D OX,X:X3.| ",
"- x a s a D D J C p N `.tXD.q.=.s.s.-.9.H.uX{.e.,.=.s.p.p.s.-.,.d.p.p.p.d.-.9.D.uX Xt.,.d.s.s.-.e.{.iXU.r.v./ G a a L :XqXwXT.4 ",
"> n ! ! _ @X:X,X$XJ B `.uXZ.q.=.s.s.=.q.U.uX{.e.9.q.=.s.p.p.s.s.u.p.u.d.-.8.9.H.uX Xt.,.s.s.=.,.e.}.uXH.M.v.oX_ _ ^ ` #X,XwXT.5 ",
"> b ` ` @X:X9X9X>X^.k.3XtXA.8.-.d.s.=.q.A.}.{.H.t.9.,.f.p.p.u.s.p.p.d.-.9.e.A.U.}.U.w.-.s.d.-.q.e.}.uXU.<.j./ ` ' oX/.! ` $XA [ ",
"= c L / OX@X$X@X*X>X6XpXuXD.9.8.,.d.s.d.m.y.U. XU.0.8.q.d.s.s.s.u.d.-.8.9.A.}.}.D.w.d.d.s.-.q.8.t.{.uXH.<.j.L K Q ` _ C p C 8 | ",
". 2 G Q / oXoX^ ! ' &X].|.J.A.e.,.=.s.s.=.-.S.U.U.F.Z.w.q.-.-.-.-.-.8.e.A.U.{.P.w.-.s.s.d.-.9.y.H.{.{.A.>.l a s C L J w p J M X.",
"* 3 D H L / ` G p a B 7.H. X|.y.q.d.s.s.s.f.,.V.U.tXU.e.8.q.q.8.9.w.9.Z.}.}.D.N.d.d.s.s.d.-.9.U.XXU.V.q.%.h t w t u p 0 J $X5.6 ",
"> 3 s D G K K p 0 0 y $.Z.yXyXA.8.,.=.s.s.s.=.q.S.U.U.U.U.H.H.U.J.J.J.I.{.I.m.-.d.s.s.d.-.q.w.{.iXU.9.-.i.S D D G L J p d _ n X ",
"4 , u u d a p w w w y $.Z. XXXA.9.8.,.d.s.s.s.d.q.t.U.XXuXuXuXiXuXuXiX XF.w.-.s.s.s.d.-.q.9.t.U.uXJ.8.-.u.x./ ` OX>X#XD p p 2 X ",
"| 7 0 t a w p J ^ / E g.N.P.U.U.D.e.,.d.s.s.s.s.f.,.S.U.}.}.}.}.}.|.{.P.N.-.d.s.s.s.s.-.8.A.J.U.U.V.-.d.a.x.OXOX@X,X:XoXJ p o = ",
" .8 q q t w a oX9X0X4Xb.-.w.S. X XZ.q.-.s.s.s.s.s.d.m.e.e.e.e.0.e.e.e.w.d.s.s.s.s.s.d.-.e.J.tXU.e.h.d.d.a.x.oXOX@XOX;X<X#XC < - ",
" .7 q a D G L OX<X0X8Xb.d.-.N.F.U.U.S.q.,.-.=.s.s.s.f.-.-.,.-.,.-.-.-.-.d.s.s.d.-.-.-.V.J.U.U.V.h.d.d.d.h.j.! oXOXOX#X,X:X' 9  .",
"4 1 q J ' ' ^.OX$X9X8Xb.d.d.f.w.S.tX}.y.9.8.,.=.d.d.s.s.d.d.d.s.d.s.d.d.d.d.d.-.9.w.e.P.tXU.V.q.d.d.d.q.7.j.H / oXOXOXOX#X,Xm 5 ",
"4 < q J oXOXOXOXOX:X&XK.-.d.=.q.y.U.U.U.H.9.q.,.-.,.=.s.s.s.s.%.s.s.s.s.-.-.,.,.9.Z.U.{.J.A.9.-.d.=.w.S.G.U s L ! oX` L L ) n X ",
"4 7 q D ` ' ` ` ` ` c.7.q.-.=.q.q.0.D. X{.Z.t.t.9.8.-.=.s.d.d.=.d.d.=.-.,.9.e.e.e.J. X{.t.9.9.-.=.-.e.|.rXY u a G ! ! d a a 7 * ",
"[ 1 q a d D d D C C F ;.8.q.-.-.-.-.N.F.U.U. XU.D.9.q.,.,.,.8.,.-.,.,.,.9.y.U.}.|.U.I.Z.,.d.-.-.,.8.t.|.rXA q u a d L ' #XOXm 4 ",
"4 < t t u u p a a t y ;.0.9.q.-.d.d.f.q.H.tXiXuXU.y.y.e.y.e.y.y.y.e.t.y.t.H. XuXuX{.N.,.d.d.d.q.9.0.A.|.[.j.t u u p L :X9XwX6.- ",
"* c L L L L Q oX' J x C.U.t.9.q.-.d.d.-.M.D.U.H.U.}. X X X X X X}. X X X}.{.U.U.J.V.h.d.d.-.,.8.0.H.{.{.S.Z d K Q L _ $X<XwX6.$ ",
"* m oX` oXoX@X,X,XK N _. XH.t.t.M.f.d.s.-.q.q.w.U.XXuXuXXXXXXXiXuXuXuXuXuX}.t.8.8.-.d.d.d.m.t.y.A.{. XS.;.z G Q ` oXOXOX%X<X6.; ",
"* v Q Q Q _ OX#XOXJ y 7.J.|.XXXXU.e.-.s.d.=.-.-.N.D.D.D.A.U.U.D.D.H.D.H.D.Z.,.-.=.d.d.d.q.S.|.XX XU.D.M.%.j u G ! oXOXOX' Q c > ",
"= f G G G ` OXOX` d f $.Z.XXdXdX Xy.,.d.s.s.s.d.,.9.9.9.9.9.9.9.9.9.9.9.9.,.=.s.s.s.d.f.w.I.aXdXaXJ.e.-.u.h u s L ` OXOXQ u , - "
};
