/* XPM */
static char *result[] = {
/* columns rows colors chars-per-pixel */
"64 64 220 2 ",
"   c #131D16",
".  c #15161A",
"X  c #181718",
"o  c #151C1C",
"O  c #1B1A1B",
"+  c #231E1B",
"@  c #142414",
"#  c #192617",
"$  c #152B13",
"%  c #192C15",
"&  c #15221A",
"*  c #1A231C",
"=  c #172919",
"-  c #1A2A1A",
";  c #173211",
":  c #1A3513",
">  c #1C3B13",
",  c #1D331B",
"<  c #1F3B19",
"1  c #25211D",
"2  c #2C241D",
"3  c #272D1A",
"4  c #31261E",
"5  c #332A1F",
"6  c #213D16",
"7  c #24361B",
"8  c #2C3B1B",
"9  c #35371D",
"0  c #313D1D",
"q  c #161D22",
"w  c #1A1D23",
"e  c #211F20",
"r  c #172121",
"t  c #1B2324",
"y  c #1D2D22",
"u  c #1B232C",
"i  c #1D2631",
"p  c #1F2932",
"a  c #232223",
"s  c #242B24",
"d  c #212B2A",
"f  c #362C20",
"g  c #3A2D21",
"h  c #2D3B25",
"j  c #2A372A",
"k  c #3D3122",
"l  c #363D21",
"z  c #242F34",
"x  c #222C39",
"c  c #273335",
"v  c #413424",
"b  c #453A25",
"n  c #493B27",
"m  c #4B3F29",
"M  c #1E4313",
"N  c #214515",
"B  c #234B15",
"V  c #244419",
"C  c #264C19",
"Z  c #2A4818",
"A  c #294C1A",
"S  c #39451D",
"D  c #374B1D",
"F  c #265216",
"G  c #295417",
"H  c #275018",
"J  c #2A5419",
"K  c #2D5B1A",
"L  c #38541B",
"P  c #335C1C",
"I  c #2F611B",
"U  c #33631D",
"Y  c #3A651D",
"T  c #366A1E",
"R  c #3A6B1E",
"E  c #38701F",
"W  c #384626",
"Q  c #3B4D22",
"!  c #385623",
"~  c #314030",
"^  c #376720",
"/  c #3B6D21",
"(  c #3C7321",
")  c #3E7A23",
"_  c #404F1C",
"`  c #42541E",
"'  c #445C1D",
"]  c #45611E",
"[  c #4B651F",
"{  c #426B1F",
"}  c #4D6A1F",
"|  c #52661E",
" . c #4C4628",
".. c #52452C",
"X. c #55482E",
"o. c #594E2E",
"O. c #465424",
"+. c #465C22",
"@. c #4A5C23",
"#. c #525E24",
"$. c #564930",
"%. c #5B4D31",
"&. c #5E5132",
"*. c #625534",
"=. c #675B37",
"-. c #6A5D38",
";. c #466322",
":. c #4B6521",
">. c #456C21",
",. c #4E6A21",
"<. c #566625",
"1. c #526D23",
"2. c #5A6E22",
"3. c #447323",
"4. c #4C7423",
"5. c #437C24",
"6. c #4B7C24",
"7. c #567224",
"8. c #5A7524",
"9. c #547C25",
"0. c #5D7926",
"q. c #557529",
"w. c #5A7629",
"e. c #557D28",
"r. c #5D7C29",
"t. c #63652D",
"y. c #627D26",
"u. c #677728",
"i. c #627E29",
"p. c #6A6D32",
"a. c #6E613B",
"s. c #72653C",
"d. c #766B3D",
"f. c #697531",
"g. c #242F40",
"h. c #786941",
"j. c #7D7144",
"k. c #837545",
"l. c #8B7D51",
"z. c #468326",
"x. c #4B8426",
"c. c #498627",
"v. c #4D8D29",
"b. c #538427",
"n. c #568428",
"m. c #5A8428",
"M. c #548B2A",
"N. c #5C8C2A",
"B. c #4E922B",
"V. c #53942B",
"C. c #5C952C",
"Z. c #559A2D",
"A. c #5C9B2E",
"S. c #5F9C30",
"D. c #668127",
"F. c #698327",
"G. c #658229",
"H. c #6A8529",
"J. c #628C2B",
"K. c #6D892A",
"L. c #718C2A",
"P. c #64932D",
"I. c #6A932D",
"U. c #649B2E",
"Y. c #6B9A2F",
"T. c #74922D",
"R. c #7A952D",
"E. c #78992F",
"W. c #6B8C31",
"Q. c #649E30",
"!. c #6E9D30",
"~. c #769731",
"^. c #729D31",
"/. c #57A02F",
"(. c #5BA330",
"). c #5FA933",
"_. c #63A331",
"`. c #6AA332",
"'. c #64AC33",
"]. c #6CAA34",
"[. c #74A532",
"{. c #7BA433",
"}. c #74AB34",
"|. c #7CAC35",
" X c #6BB336",
".X c #68B637",
"XX c #72B336",
"oX c #7AB237",
"OX c #74B538",
"+X c #74BB39",
"@X c #7ABC3A",
"#X c #6FC13B",
"$X c #7BC23C",
"%X c #79C63D",
"&X c #84A534",
"*X c #83AD36",
"=X c #82B539",
"-X c #87B438",
";X c #85BD3A",
":X c #8EBB3B",
">X c #91BE3C",
",X c #84C43D",
"<X c #89C83E",
"1X c #92C33D",
"2X c #99C63E",
"3X c #908552",
"4X c #998A61",
"5X c #82CF40",
"6X c #9ACC41",
"7X c #88D241",
"8X c #93D342",
"9X c #9CD443",
"0X c #9ADC45",
"qX c #A3CB41",
"wX c #A6D845",
"eX c #B3DC47",
"rX c #9EE147",
"tX c #A6E348",
"yX c #B6E54A",
"uX c #C7EC4D",
/* pixels */
"r.r.D.G.D.K.T.L.K.K.D.8.1.8.} 7.1.q.F.8.} 0.7.} 8.7.q.H.R.K.y.D.F.y.F.F.L.u.y.2.8.y.F.H.8.D.H.D.7.1.8.,.} [ } 2.F.F.K.W.e.q.1.q.",
"y.D.G.D.8.F.K.D.y.8.D.y.y.D.8.0.0.7.0.8.D.D.} 1.7.0.D.H.K.L.K.F.H.8.y.K.L.L.L.2.} | u.T.K.H.T.0.,.,.1.1.} ' [ } 2.7.D.W.W.q.r.m.",
"y.0.q.w.2.y.D.F.y.y.K.L.D.y.0.D.K.D.8.0.D.y.2.} q.q.4.1.y.D.F.0.y.y.y.F.F.F.F.2.} 8.8.K.K.T.G.0.D.0.0.D.0.8.8.[ } 0.0.r.r.q.7.q.",
"H.0.1.1.2.y.L.L.F.0.F.L.F.y.0.F.F.F.0.0.y.K.K.8.1.2.1.r.D.&X&XF.D.K.L.y.y.F.F.8.} 8.9.y.y.H.0.0.L.T.K.T.0.y.0.2.y.y.F.0.w.r.7.r.",
"y.y.8.| | 0.F.L.F.F.K.L.H.F.0.F.H.F.D.F.F.F.F.0.,.7.7.J.M.M.oXP.x.Y.Y.9.2.L.D.} 1.8.8.9.8.D.F.F.K.T.K.K.D.D.y.y.y.y.i.H.W.~.G.w.",
"7.8.8.2.0.8.F.L.K.L.F.D.D.8.} 8.0.D.K.K.K.K.D.7.,.1.7.6.F M 5.V.U.,XoXA.&Xn.4.} } y.F.y.8.8.9.F.R.H.D.y.y.y.y.8.y.F.i.r.W.K.r.7.",
"8.y.y.y.0.D.K.F.F.K.D.} } 7.9.N.T.E.I.!.P.F.G.0.1.1.6.K F I N.2XU.Z.%X).'.A.8.D.y.8.K.m.8.} 7.9.I.H.0.0.F.F.0.2.u.D.i.i.K.T.F.7.",
"D.y.8.y.D.y.y.F.L.H.8.7.8.G.`.+X].6X[.`.|.Y.[.N.e.9.Y B B K Z.V.5.n./.<X2X<XoXL.K.F.D.K.E.} x.].#X!.H.D.y.K.8.| y.D.H.D.r.D.y.7.",
"F.F.2.y.L.y.2.y.L.H.7.0.y.n.Z.E I.2XI.9.Y.=X5.U.M.Z.T B U I T c.|.eX`.$XtXyX%XP.F.F.b.R.I.4.N.<X@X+XXXH.| 8.8.| H.F.L.L.y.q.7.8.",
"8.y.F.y.y.F.F.y.y.D.7.} ' { P.{ U U R 9.v.A.Y.:XJ.K : > B F N.}. X,XV..X,X<X%XA.F.6.{.b.{ Z.].}.,X2X'.{.K.F.L.F.L.L.H.H.D.0.0.i.",
"y.y.F.y.y.L.L.y.7.8.8.} Z N 9.4.!.b.].[.}.P.A.C.{.4.0 < F E b.U.`.5.) +X%X'.wX[.Y F } 4.Y.+X#X$X<XtX`.:XE.L.R.L.y.y.F.y.0.8.y.H.",
"y.y.F.u.2.u.F.y.| } 7.} M > N P.1X[.}.qXuXeXC.}.Y.{.G.7 B E M K v.z.T `.'.v.V.Z.K 9.{ I {.`./.$X.X0X,X:XT.F.R.T.L.L.y.y.0.y.H.D.",
"y.y.2.y.u.F.F.y.y.1.| Z ; > Y Y.v.oXP.P.9XeX@X7X;X*XL $ ; < > G z.B.x.U.z.I I b.Y.P.G > G Y ) E /. X2XY.>.} F.T.R.L.7.7.0.y.F.7.",
"L.F.8.F.F.F.8.y.y.2.| > $ ; P 3.R M.+X4._.7X[.;XA.( F # , A B B I E E 5.E I G I }.x.{ { > > B B E XX{.6.6.) 3.`.$XP.m.D.F.F.F.F.",
"K.D.2.F.F.y.0.0.8.} L ; $ : M B ( V._.M.Q.+X8XN.( 5.J $ q ! N > T B B M B F G B I 5.v.E K G T I B J.6.K R v.v.oX2X%X}.K.F.D.y.D.",
"y.8.2.F.T.y.y.y.y.| _ % @ ; M I C Y.,X(.Z.z._.P.U m.7.D A K 3.( G > M B B B ; ; F I I z.x.{ v.B.Y I G > F E V. X:XyX8XoXF.0.7.y.",
"D.7.2.K.K.L.T.K.y.| _ @ $ ; J J N T A..XM.5.I P ( T R Y.:X6.<X}.Q.! A J > M : M R K N 3.b.|.qX_.2XU.5.B G I 5.(.;XyX2XXXD.D.y.D.",
"D.8.| 8.7.K.T.F.K.y._ 3   $ J P U F F ( U U B / (.).b.N.oX+XwX}. XQ.b.3.: : : J U I K N.Q.|.6XwXuX|.C.T K K 5.`.'.tX2XF.0.L.D.y.",
"F.F.8.} 1.D.H.H.L.L.L.D o $ $ : V $ ; > ; C M K v.M.!.6.) %X%X7X@X6.J.M., $ > U T B.z./ OXN._.9XwX<XwXXX4.M x.x.z.1X$X*Xy.L.F.0.",
"0.8.8.8.w.r.D.G.T.L.L.O.# o @ @ $ $ ; $ $ > M F K 6.qX|.).8X8X0X'.M.qXS.V $ ; M x.Z.^ B Q.@X'.5X.XwXwX}.F.B G I ) oXC.E.F.K.K.D.",
"y.i.7.i.K.J.r.i.T.L.i.1.S   @ $ : M @ $ $ : > M < ( ;X[.x.P.>X9X.XC.-XM./   # V H 5.v.C H ].5X@X%X'.1X@XK.M ; ; K @X_.r.F.G.~.D.",
"8.D.y.y.G.w.7.w.W.L.2.1.7 o q @ $ $ $ @ ; > J K B F z.A.[.x.b._.7X,X].J , @ : F C ( / / >.z.(.) /.(.V.}.qXU ; : 3.N.m.2.0.D.D.8.",
"1.8.7.7.w.7.0.7.K.L.` L & o o   t = @ $ @ ; > G / z.) 3.,XOXK V.tXoX;XP & @ : C > C ( c.S.3.6.5.Z.(.#XU.2X{ M G V.q.8.r.0.0.r.8.",
"0.1.,.2.i.F.F.y.y.y.8 # $ $ @ @ = 7 o @ $ @ : K ^ H ( c.B.+X6.c.(.A.C.C $ $ $ $ ; > ( Z.z.( 4.A.<X,X_.M.J.T ) x.V.4.q.G.D.i.0.r.",
"8.7.1.1.y.L.F.K.K.8.8 # ; > M > $ @ & o   $ : M / M M K I ) V.T F F I M $ ; ; $ $ M ( G K v.K M ( _.[.Y N 3.V.].|.4.r.0.K.G.i.w.",
"D.8.8.8.K.L.L.L.L.`     @ K U F ;.,.$ & & @ $ ; ; ; C T J J T J ! : M K ; : M V ; - C ! ) K C : K T +XN.>.[.@X.X=Xe.~.0.m.w.G.G.",
"K.y.i.0.F.L.K.H.K.Q t # M ( Z.V.].6XU K :   @ $ ; ; > J K B B 6 ^ N K U C N I / : $   ! ) $ J ^ F P T K V. X<XrX9X-XE.r.0.8.G.H.",
"L.G.8.8.8.y.K.D.8.8 & $ > I 3.].'.V.v.) K ; @ : > $ B ( z.T : $ : M F I A.C.z./.^ M V : F $ > V $ ; > / Z.B.+X%XQ.Y.m.0.F.H.i.i.",
"G.H.8.1.8.y.G.0.D o & & $ > ! K 5.( F K J : ; > U U ^ c.J U J - @ : U ( =XqXx./ P P B.7 @ $ $ $ @ $ $ P Z.B.S.9XA.}.H.0.L.T.y.y.",
"D.K.D.,.q.D.D.0.:.3 r o @ $ ^ J K 3.A > N > M T 5._.[.J.R 5.P -   $ K Q.9X$X-X&Xe.z.Q.A > # & = ; ; $ $ > ( c.}.oXA.H.L.T.L.F.0.",
"H.8.7.7.7.7.7.0.0.0 o q t @ < M A U C ; - $ < z.C.S.XX;X|./ > @ @ $ M R }.#X8X1X1X].;X/ : : - $ < 7 : ; @ M F K 3.4.0.y.8.D.K.y.",
"y.r.D.D.0.q.7.0.F.D q & u & : M < > : V   $ > I V.v./ 5.A.c.B # & & > J Y b.OX-X8X`.U U $ V > : T J.P C @ $ : >.n.,.1.1.8.F.H.y.",
"y.0.H.K.m.0.7.0.H.:.d p q r ; $ M G : = & $ ; : N U C I ( K B $ @ @ ; : K ) V.].v.) M : $ > I R U.<XY > $ V ;.;.4.1.1.:.,.7.q.r.",
"H.y.y.K.K.G.0.0.F.0.' s q t r & < ! $ r o & & $ ; > > > C # ; $ $ @ # @ > K F F C > # @ $ > K z.+X0XU.K K 0.F.:.:.:.:.,.1.7.7.w.",
"G.H.K.T.T.D.D.H.H.y.2.D o r p t r r & = $ M : & $ ; $ $ : J 6 L B @ & & $ $ $ $ & o   # $ ; M b.6.Z.Z.!.~.K.K.D.r.,.,.4.q.7.1.q.",
"r.T.~.T.G.0.0.0.7.8.7.L - q u r r & = C F K M : $ @   & & V J M.5.6 % @ $ & t . . t & @ $ $ ; M N { b.K.H.D.H.R.T.G.q.q.r.w.q.,.",
"0.m.G.G.r.q.0.F.0.7.1.8.2.0 o t : : < U ( T F U < .     @ ; J Q.!.b.( > $ y i o 8 S * o   @ $ : ; B b.D.G.m.H.K.H.W.m.r.r.q.q.1.",
"w.r.r.H.0.,.q.F.7.1.1.0.y.+.* r r = M K / K G J %         N V U v.U U M $ j u D _ 5 + O o     $ N L N.D.L.K.L.T.H.L.H.H.G.w.,.[ ",
"J.w.r.K.H.D.0.0.' 1.y.y.D.:.& u u   < ^ M : : M - @ # r & @ : M V : $ : 8 d t S 9 5 4 4 + 3 3 8 ' 1.4.8.y.~.L.K.H.H.H.H.H.D.0.0.",
"y.D.G.H.K.H.D.0.,.,.} 8.F.y.O.t u t = y @   & . q , * t u & - , $ o   3 l a t 5 v v 5 9 L [ 1.w.0.1.] 2.G.K.D.i.F.i.G.K.K.y.L.T.",
"F.H.K.H.D.D.q.q.,.1.,.0.0.F.D.O.h h - w   u u . O 9 O.j w w o . o X + X + 5 v v g b #.1.q.7.8.G.m.q.,.q.m.G.q.0.D.G.G.K.G.G.K.D.",
"i.i.D.H.r.D.D.q.8.7.8.F.m.D.7.0.q.,.Q d p x w o + + 3 O.u h 1 X + 2 4 + + v ..X.n <.7.8.r.i.w.r.r.q.1.1.w.0.7.0.D.H.D.D.w.H.H.D.",
"y.y.K.G.0.0.F.0.0.0.D.L.H.D.r.D.H.i.,.! c g.q . + + 2 W ~ W 8 O 2 g v + 4 v ....a.<.8.i.r.i.r.r.G.W.r.2.0.H.G.r.r.G.8.1.7.8.7.0.",
"y.u.K.F.0.G.H.F.0.y.0.y.y.D.T.L.G.K.r.7.:.W x w X X 4 4 j d 3   4 v *.g 4 v %.v a.w.2.7.W.G.r.i.W.~.^.D.i.K.G.D.w.7.7.8.1.1.0.L.",
"0.y.0.7.y.T.F.D.D.y.D.y.u.r.r.G.H.H.0.y.H.i.O.c q X + + . w w O 2 g *.$.4 k %...&.f.7.1.i.K.D.m.W.W.W.H.D.F.H.D.7.2.2.8.0.y.D.D.",
"r.9.7.7.0.K.H.G.0.} 8.H.D.D.G.i.K.D.D.D.i.i.H.<.z q + + w w O w + 4 m *...g ..s.%.f.0.8.m.D.r.w.G.W.K.r.0.r.D.7.1.7.1.8.G.F.y.0.",
"y.8.:.7.0.D.G.q.| ,.8.0.D.0.H.m.G.0.y.F.F.i.H.i.c d X + w x w w o + g ..h.$.v s.k.j.u.m.G.i.7.0.H.~.~.r.q.D.D.q.7.y.y.i.H.y.0.H.",
"8.q.0.0.q.q.8.8.7.7.0.,.8.0.G.G.H.y.y.y.H.F.i.<.c u X O O i p i w e 4 g ..h.%.$.h.4X3X0.i.H.u.H.W.i.K.H.D.D.F.y.0.u.y.H.F.y.F.K.",
":.| 8.8.2.0.y.F.D.K.L.2.1.7.F.H.K.H.D.y.y.8.} W x . O 2 X X u w w q X f v *.k.&.%.h.l.f.0.F.0.y.H.0.i.L.K.L.u.8.y.H.K.K.F.y.F.R.",
"7.1.7.8.8.F.F.D.D.L.F.} 8.y.m.0.D.H.K.D.8.} ' c u O + 2 + w w O X w w O 2 m s.l.X.X.d.p.0.y.F.8.D.i.8.y.y.K.F.y.y.L.K.y.8.u.y.F.",
"i.8.0.y.0.F.F.8.7.D.H.y.0.0.8.8.y.D.H.G.1.' l i X + 2 2 O w + 4 1 e + a + f m k.-.n a.t.y.y.u.2.8.H.H.F.8.y.y.8.u.y.L.F.0.0.| | ",
"y.y.L.D.8.2.8.8.y.y.L.D.0.D.D.y.m.H.G.r.8.' z q X + 2 + O O + a e 2 2 + w + v -.s.n -.s.u.F.8.7.1.F.H.y.8.2.8.8.y.F.F.0.2.1.} 2.",
"K.H.L.T.K.y.L.D.0.K.D.2.F.T.L.K.D.0.0.,.@.h u X O 2 f w + 2 e w 1 2 2 + w X + v s.%.X.s.h.t.0.8.1.8.u.8.2.} 0.y.y.F.8.} } ,.[ 8.",
"T.L.F.L.y.y.K.L.F.H.L.D.D.D.F.F.0.+.W j c i q X + 2 a + 4 2 + + f f 2 + + X + f X.a.%.%.h.s.<.1.y.F.y.| 8.8.y.8.7.y.8.| } 1.7.0.",
"L.H.H.T.y.y.y.F.y.} y.y.y.y.0.9.q.;.j u i w X O 2 e + 4 g e O 2 f n f + f + X + v *.k.s.-.&.-.=.t.f.y.y.8.7.2.7.1.8.7.} ] [ 8.L.",
"y.y.L.R.T.D.2.} } | } 8.8.y.8.8.1.,.Q d i q X + + 2 4 k g O X 4 n s.m 2 g g + + 2 n &.k.l.=...%.d.j.u.u.| | 8.2.| 8.0.8.1.} | y.",
"y.D.L.R.L.y.8.1.} 7.1.r.y.y.8.8.+.h c w q . w X 4 v v v 2 q O 2 g a.m 4 v ..m + + f b -.3X4Xs.$.b ..t.u.u.7.y.F.D.y.0.q.1.0.0.7.",
"y.D.K.K.y.8.q.q.| 7.8.y.0.y.F.Q z g.i q . w t O + 5 v 5 2 t O + f m 5 + 5 ..a.g O 2 k ..*.h.$.-. .8.F.L.D.y.H.F.D.K.G.0.7.0.0.7.",
"F.F.F.2.[ :.} 1.7.7.,.9.D.D.y.O.s d d r t h Q z O 4 4 v <.O.* + f v f 1 2 k &.*.1 O 5 v n *.b X.*.u.T.R.F.8.0.0.y.K.H.L.D.q.7.D.",
"y.2.0.} ] ] ] ] ] ,.,.r.K.D.y.y.2.:.' ;.1.q.1.Q w + + O.8.1.Q a 2 v O.@.;.l k *.k O + 5 v ..%.g v _ 7.H.K.K.0.D.F.K.y.H.H.8.4.0.",
"1.9.1.| } 8.7.8.:.} q.0.F.D.D.D.0.7.8.0.G.G.7.,.a X 5 @.@.:.:.h + k :.7.r.<.l v k O O 2 v m *.n _ t.8.y.H.K.0.D.T.F.0.F.0.:.:.4.",
"7.0.0.7.| 8.y.0.q.q.,.q.7.0.G.D.0.1.} 1.r.r.,.,.h t @.7.,.q.w.O.O b 2.8.r.8.S f v 2 * O 4 5 m o.u.L.y.y.K.T.D.q.L.T.H.T.D.:.q.q.",
"8.2.7.8.1.0.q.q.D.G.q.,.:.,.9.1.} ] L ' 7.q.:.:.+.+.1.q.w.G.i.y.W $.f.u.y.y.1.l 0 <.2.8 X 4 5 v o.p.y.T.K.0.} 7.D.F.K.T.r.,.q.r.",
"8.2.7.7.} 8.0.G.E.K.D.w.7.,.,.] ] [ 1.[ [ ,.:.' :.1.q.G.W.H.i.L.i.w.u.y.L.y.y.7.1.F.F.1.S 9 _  .O.<.i.H.D.,.[ 8.F.D.G.G.D.,.q.w."
};
